{"glyphs":{"0":{"ha":867,"x_min":80,"x_max":788,"o":"m 434 -13 q 172 113 264 -13 q 80 514 80 238 q 171 916 80 790 q 434 1041 263 1041 q 697 916 606 1041 q 788 514 788 790 q 696 113 788 238 q 434 -13 604 -13 m 434 84 q 564 124 511 84 q 645 258 617 163 q 674 512 674 352 q 645 769 674 674 q 564 904 617 864 q 434 944 511 944 q 303 904 356 944 q 222 770 251 865 q 193 516 193 676 q 222 259 193 354 q 303 124 251 164 q 434 84 356 84 z "},"1":{"ha":507,"x_min":17,"x_max":383,"o":"m 311 1031 l 383 1031 l 383 0 l 270 0 l 270 890 l 17 708 l 17 819 l 311 1031 z "},"2":{"ha":685,"x_min":30,"x_max":641,"o":"m 641 97 l 641 0 l 42 0 l 42 63 l 335 453 q 442 622 410 551 q 473 758 473 692 q 419 900 473 856 q 253 944 365 944 q 30 904 133 944 l 30 1001 q 137 1030 75 1019 q 262 1041 199 1041 q 585 767 585 1041 q 570 658 585 711 q 522 546 556 606 q 429 409 488 486 l 192 97 l 641 97 z "},"3":{"ha":703,"x_min":35,"x_max":653,"o":"m 431 534 q 597 447 540 513 q 653 278 653 381 q 559 63 653 139 q 283 -13 465 -13 q 35 26 153 -13 l 35 118 q 159 89 95 99 q 281 78 222 78 q 478 130 412 78 q 544 283 544 182 q 481 430 544 378 q 288 481 418 481 l 165 481 l 165 574 l 232 574 q 439 625 369 574 q 510 772 510 676 q 453 904 510 859 q 285 949 396 949 q 60 911 168 949 l 60 1003 q 170 1031 108 1021 q 294 1041 233 1041 q 536 973 452 1041 q 619 780 619 905 q 570 626 619 690 q 431 534 520 562 z "},"4":{"ha":820,"x_min":33,"x_max":792,"o":"m 792 338 l 792 247 l 647 247 l 647 0 l 542 0 l 542 247 l 33 247 l 33 309 l 433 1028 l 545 1028 l 163 338 l 542 338 l 557 681 l 647 681 l 647 338 l 792 338 z "},"5":{"ha":710,"x_min":54,"x_max":672,"o":"m 260 592 q 495 549 405 584 q 629 450 586 513 q 671 291 672 386 q 577 65 671 142 q 302 -13 483 -13 q 174 -3 238 -13 q 54 27 110 8 l 54 119 q 176 90 112 100 q 300 79 240 79 q 497 131 432 79 q 562 288 562 183 q 530 401 562 357 q 423 470 497 445 q 221 502 348 494 l 92 510 l 127 1028 l 628 1028 l 628 935 l 228 935 l 205 596 l 260 592 z "},"6":{"ha":799,"x_min":88,"x_max":758,"o":"m 440 591 q 607 558 535 591 q 718 458 678 525 q 758 292 758 391 q 718 125 758 194 q 608 22 678 57 q 445 -13 538 -13 q 88 481 88 -13 q 523 1041 88 1041 q 710 1010 635 1041 l 710 917 q 623 940 671 933 q 526 948 575 948 q 281 844 362 948 q 199 515 199 740 q 308 571 244 551 q 440 591 372 591 m 447 76 q 596 129 540 76 q 652 288 652 181 q 591 449 652 396 q 422 502 531 502 q 302 483 363 502 q 199 424 242 463 q 269 156 206 235 q 447 76 332 76 z "},"7":{"ha":652,"x_min":8,"x_max":612,"o":"m 8 1028 l 612 1028 l 612 965 l 235 0 l 117 0 l 487 931 l 8 931 l 8 1028 z "},"8":{"ha":867,"x_min":69,"x_max":798,"o":"m 589 523 q 749 419 701 481 q 798 265 798 357 q 756 118 798 181 q 634 21 715 56 q 440 -13 553 -13 q 236 19 319 -13 q 111 112 153 51 q 69 258 69 173 q 120 419 69 350 q 265 527 172 489 q 141 629 179 569 q 102 773 102 689 q 141 915 102 854 q 256 1008 181 976 q 436 1041 331 1041 q 612 1010 538 1041 q 725 920 686 978 q 765 781 765 861 q 720 630 765 695 q 589 523 676 565 m 212 776 q 235 681 212 719 q 316 612 259 642 q 474 558 372 583 l 497 552 q 624 644 584 592 q 663 773 663 697 q 604 908 663 861 q 435 954 544 954 q 269 907 326 954 q 212 776 212 860 m 440 74 q 625 122 561 74 q 690 258 690 169 q 665 353 690 315 q 585 419 641 392 q 429 471 528 447 q 351 492 385 482 q 222 403 267 462 q 177 268 177 344 q 244 123 177 173 q 440 74 310 74 z "},"9":{"ha":799,"x_min":42,"x_max":712,"o":"m 354 1041 q 712 547 712 1041 q 276 -13 712 -13 q 89 17 165 -13 l 89 111 q 176 88 128 95 q 273 80 224 80 q 519 184 438 80 q 601 513 600 288 q 491 457 556 477 q 359 437 427 437 q 192 470 264 437 q 81 570 121 503 q 42 736 42 637 q 81 902 42 834 q 191 1006 121 971 q 354 1041 262 1041 m 147 740 q 208 579 147 632 q 377 526 269 526 q 497 545 437 526 q 600 604 557 565 q 531 872 594 793 q 353 951 467 951 q 203 899 260 951 q 147 740 147 847 z "},"\u0000":{"ha":0,"x_min":0,"x_max":0,"o":""},"\r":{"ha":340,"x_min":0,"x_max":0,"o":""}," ":{"ha":340,"x_min":0,"x_max":0,"o":""},"A":{"ha":936,"x_min":19,"x_max":916,"o":"m 801 0 l 684 333 l 250 333 l 133 0 l 19 0 l 388 1028 l 547 1028 l 916 0 l 801 0 m 283 428 l 650 428 l 467 946 l 283 428 z "},"Á":{"ha":936,"x_min":19,"x_max":916,"o":"m 801 0 l 684 333 l 250 333 l 133 0 l 19 0 l 388 1028 l 547 1028 l 916 0 l 801 0 m 283 428 l 650 428 l 467 946 l 283 428 m 417 1117 l 540 1314 l 660 1314 l 519 1117 l 417 1117 z "},"Ă":{"ha":936,"x_min":19,"x_max":916,"o":"m 801 0 l 684 333 l 250 333 l 133 0 l 19 0 l 388 1028 l 547 1028 l 916 0 l 801 0 m 283 428 l 650 428 l 467 946 l 283 428 m 469 1123 q 311 1170 367 1123 q 247 1299 255 1217 l 322 1299 q 364 1216 330 1243 q 469 1189 399 1189 q 573 1216 539 1189 q 614 1299 607 1243 l 690 1299 q 626 1169 681 1216 q 469 1123 571 1123 z "},"Ắ":{"ha":936,"x_min":19,"x_max":916,"o":"m 801 0 l 684 333 l 250 333 l 133 0 l 19 0 l 388 1028 l 547 1028 l 916 0 l 801 0 m 283 428 l 650 428 l 467 946 l 283 428 m 432 1278 l 540 1451 l 630 1451 l 504 1278 l 432 1278 m 469 1123 q 314 1167 369 1123 q 251 1291 259 1212 l 319 1291 q 362 1210 328 1236 q 469 1183 396 1183 q 575 1210 541 1183 q 618 1291 608 1236 l 685 1291 q 623 1167 677 1212 q 469 1123 568 1123 z "},"Ặ":{"ha":936,"x_min":19,"x_max":916,"o":"m 801 0 l 684 333 l 250 333 l 133 0 l 19 0 l 388 1028 l 547 1028 l 916 0 l 801 0 m 283 428 l 650 428 l 467 946 l 283 428 m 469 -243 q 412 -226 433 -243 q 392 -178 392 -209 q 412 -131 392 -148 q 469 -113 433 -113 q 525 -131 505 -113 q 546 -178 546 -148 q 525 -226 546 -209 q 469 -243 505 -243 m 469 1123 q 311 1170 367 1123 q 247 1299 255 1217 l 322 1299 q 364 1216 330 1243 q 469 1189 399 1189 q 573 1216 539 1189 q 614 1299 607 1243 l 690 1299 q 626 1169 681 1216 q 469 1123 571 1123 z "},"Ằ":{"ha":936,"x_min":19,"x_max":916,"o":"m 801 0 l 684 333 l 250 333 l 133 0 l 19 0 l 388 1028 l 547 1028 l 916 0 l 801 0 m 283 428 l 650 428 l 467 946 l 283 428 m 432 1278 l 306 1451 l 396 1451 l 504 1278 l 432 1278 m 467 1123 q 313 1167 367 1123 q 251 1291 259 1212 l 318 1291 q 361 1210 327 1236 q 467 1183 395 1183 q 574 1210 540 1183 q 616 1291 608 1236 l 685 1291 q 622 1168 677 1213 q 467 1123 567 1123 z "},"Ẳ":{"ha":936,"x_min":19,"x_max":916,"o":"m 801 0 l 684 333 l 250 333 l 133 0 l 19 0 l 388 1028 l 547 1028 l 916 0 l 801 0 m 283 428 l 650 428 l 467 946 l 283 428 m 433 1278 q 444 1312 434 1299 q 468 1333 455 1326 q 504 1351 482 1341 q 539 1368 528 1360 q 549 1389 549 1376 q 531 1413 549 1404 q 469 1421 513 1421 q 333 1399 399 1421 l 333 1450 q 399 1466 361 1460 q 475 1472 436 1472 q 583 1451 547 1472 q 619 1394 619 1431 q 610 1364 619 1376 q 588 1343 601 1351 q 555 1325 576 1335 q 517 1304 529 1313 q 502 1278 504 1294 l 433 1278 m 467 1123 q 313 1167 367 1123 q 251 1291 259 1212 l 319 1291 q 361 1210 328 1236 q 467 1183 394 1183 q 574 1210 540 1183 q 618 1291 608 1236 l 685 1291 q 622 1168 677 1213 q 467 1123 567 1123 z "},"Ẵ":{"ha":936,"x_min":19,"x_max":916,"o":"m 801 0 l 684 333 l 250 333 l 133 0 l 19 0 l 388 1028 l 547 1028 l 916 0 l 801 0 m 283 428 l 650 428 l 467 946 l 283 428 m 565 1337 q 515 1344 539 1337 q 456 1364 491 1351 q 407 1381 425 1376 q 370 1386 388 1386 q 308 1375 336 1386 q 251 1338 280 1363 l 251 1403 q 305 1435 276 1425 q 371 1446 334 1446 q 420 1439 397 1446 q 479 1419 444 1433 q 528 1402 508 1408 q 566 1397 547 1397 q 627 1408 599 1397 q 685 1444 656 1419 l 685 1379 q 631 1347 660 1357 q 565 1337 602 1337 m 467 1123 q 313 1167 367 1123 q 251 1291 259 1212 l 319 1291 q 361 1210 328 1236 q 467 1183 394 1183 q 574 1210 540 1183 q 616 1291 608 1237 l 685 1291 q 622 1168 677 1213 q 467 1123 567 1123 z "},"Â":{"ha":936,"x_min":19,"x_max":916,"o":"m 801 0 l 684 333 l 250 333 l 133 0 l 19 0 l 388 1028 l 547 1028 l 916 0 l 801 0 m 283 428 l 650 428 l 467 946 l 283 428 m 690 1117 l 592 1117 l 468 1265 l 344 1117 l 247 1117 l 417 1314 l 519 1314 l 690 1117 z "},"Ấ":{"ha":936,"x_min":19,"x_max":916,"o":"m 801 0 l 684 333 l 250 333 l 133 0 l 19 0 l 388 1028 l 547 1028 l 916 0 l 801 0 m 283 428 l 650 428 l 467 946 l 283 428 m 734 1433 l 824 1433 l 699 1251 l 626 1251 l 734 1433 m 417 1306 l 519 1306 l 690 1117 l 592 1117 l 468 1260 l 344 1117 l 247 1117 l 417 1306 z "},"Ậ":{"ha":936,"x_min":19,"x_max":916,"o":"m 801 0 l 684 333 l 250 333 l 133 0 l 19 0 l 388 1028 l 547 1028 l 916 0 l 801 0 m 283 428 l 650 428 l 467 946 l 283 428 m 469 -243 q 412 -226 433 -243 q 392 -178 392 -209 q 412 -131 392 -148 q 469 -113 433 -113 q 525 -131 505 -113 q 546 -178 546 -148 q 525 -226 546 -209 q 469 -243 505 -243 m 690 1117 l 592 1117 l 468 1265 l 344 1117 l 247 1117 l 417 1314 l 519 1314 l 690 1117 z "},"Ầ":{"ha":936,"x_min":19,"x_max":916,"o":"m 801 0 l 684 333 l 250 333 l 133 0 l 19 0 l 388 1028 l 547 1028 l 916 0 l 801 0 m 283 428 l 650 428 l 467 946 l 283 428 m 716 1251 l 644 1251 l 518 1433 l 608 1433 l 716 1251 m 417 1306 l 519 1306 l 690 1117 l 592 1117 l 468 1260 l 344 1117 l 247 1117 l 417 1306 z "},"Ẩ":{"ha":936,"x_min":19,"x_max":916,"o":"m 801 0 l 684 333 l 250 333 l 133 0 l 19 0 l 388 1028 l 547 1028 l 916 0 l 801 0 m 283 428 l 650 428 l 467 946 l 283 428 m 667 1444 q 776 1424 740 1444 q 812 1367 812 1403 q 803 1336 812 1349 q 781 1315 794 1323 q 748 1297 769 1308 q 710 1276 722 1285 q 695 1251 697 1267 l 626 1251 q 638 1284 627 1271 q 661 1306 648 1298 q 697 1323 675 1313 q 732 1341 721 1333 q 742 1361 742 1349 q 724 1385 742 1377 q 661 1393 706 1393 q 526 1372 591 1393 l 526 1422 q 592 1439 554 1433 q 667 1444 629 1444 m 417 1306 l 519 1306 l 690 1117 l 592 1117 l 468 1260 l 344 1117 l 247 1117 l 417 1306 z "},"Ẫ":{"ha":936,"x_min":19,"x_max":916,"o":"m 801 0 l 684 333 l 250 333 l 133 0 l 19 0 l 388 1028 l 547 1028 l 916 0 l 801 0 m 283 428 l 650 428 l 467 946 l 283 428 m 569 1397 q 632 1408 603 1397 q 690 1444 660 1419 l 690 1379 q 635 1347 665 1357 q 569 1337 606 1337 q 516 1344 542 1337 q 456 1364 491 1351 q 405 1381 423 1376 q 367 1386 386 1386 q 305 1375 333 1386 q 247 1338 276 1363 l 247 1403 q 301 1435 272 1425 q 367 1446 331 1446 q 420 1439 394 1446 q 480 1419 445 1432 q 532 1402 513 1407 q 569 1397 550 1397 m 417 1306 l 519 1306 l 690 1117 l 592 1117 l 468 1260 l 344 1117 l 247 1117 l 417 1306 z "},"Ȁ":{"ha":936,"x_min":19,"x_max":916,"o":"m 801 0 l 684 333 l 250 333 l 133 0 l 19 0 l 388 1028 l 547 1028 l 916 0 l 801 0 m 283 428 l 650 428 l 467 946 l 283 428 m 308 1117 l 211 1314 l 306 1314 l 395 1117 l 308 1117 m 541 1117 l 445 1314 l 540 1314 l 628 1117 l 541 1117 z "},"Ä":{"ha":936,"x_min":19,"x_max":916,"o":"m 801 0 l 684 333 l 250 333 l 133 0 l 19 0 l 388 1028 l 547 1028 l 916 0 l 801 0 m 283 428 l 650 428 l 467 946 l 283 428 m 306 1152 q 253 1169 272 1152 q 234 1216 234 1186 q 253 1264 234 1247 q 306 1282 272 1282 q 358 1264 339 1282 q 376 1216 376 1247 q 358 1169 376 1186 q 306 1152 339 1152 m 631 1152 q 578 1169 597 1152 q 560 1216 560 1186 q 578 1264 560 1247 q 631 1282 597 1282 q 683 1264 664 1282 q 702 1216 702 1247 q 683 1169 702 1186 q 631 1152 665 1152 z "},"Ạ":{"ha":936,"x_min":19,"x_max":916,"o":"m 801 0 l 684 333 l 250 333 l 133 0 l 19 0 l 388 1028 l 547 1028 l 916 0 l 801 0 m 283 428 l 650 428 l 467 946 l 283 428 m 469 -243 q 412 -226 433 -243 q 392 -178 392 -209 q 412 -131 392 -148 q 469 -113 433 -113 q 525 -131 505 -113 q 546 -178 546 -148 q 525 -226 546 -209 q 469 -243 505 -243 z "},"À":{"ha":936,"x_min":19,"x_max":916,"o":"m 801 0 l 684 333 l 250 333 l 133 0 l 19 0 l 388 1028 l 547 1028 l 916 0 l 801 0 m 283 428 l 650 428 l 467 946 l 283 428 m 417 1117 l 275 1314 l 395 1314 l 519 1117 l 417 1117 z "},"Ả":{"ha":936,"x_min":19,"x_max":916,"o":"m 801 0 l 684 333 l 250 333 l 133 0 l 19 0 l 388 1028 l 547 1028 l 916 0 l 801 0 m 283 428 l 650 428 l 467 946 l 283 428 m 433 1117 q 453 1161 435 1146 q 504 1192 472 1177 q 538 1210 527 1201 q 549 1231 549 1218 q 531 1256 549 1247 q 469 1264 513 1264 q 333 1242 399 1264 l 333 1297 q 398 1313 360 1307 q 475 1319 435 1319 q 583 1297 547 1319 q 619 1238 619 1276 q 610 1205 619 1218 q 589 1184 601 1192 q 555 1165 576 1176 q 517 1143 529 1153 q 502 1117 504 1133 l 433 1117 z "},"Ȃ":{"ha":936,"x_min":19,"x_max":916,"o":"m 801 0 l 684 333 l 250 333 l 133 0 l 19 0 l 388 1028 l 547 1028 l 916 0 l 801 0 m 283 428 l 650 428 l 467 946 l 283 428 m 247 1131 q 310 1261 255 1215 q 467 1308 365 1308 q 625 1261 569 1308 q 690 1131 681 1214 l 614 1131 q 571 1215 606 1188 q 467 1242 537 1242 q 363 1215 397 1242 q 322 1131 329 1188 l 247 1131 z "},"Ā":{"ha":936,"x_min":19,"x_max":916,"o":"m 801 0 l 684 333 l 250 333 l 133 0 l 19 0 l 388 1028 l 547 1028 l 916 0 l 801 0 m 283 428 l 650 428 l 467 946 l 283 428 m 256 1178 l 256 1253 l 681 1253 l 681 1178 l 256 1178 z "},"Ą":{"ha":936,"x_min":19,"x_max":984,"o":"m 873 -233 q 924 -227 898 -233 q 984 -208 950 -222 l 984 -263 q 863 -289 925 -289 q 742 -256 784 -289 q 700 -161 700 -222 q 725 -75 700 -114 q 808 0 750 -35 l 801 0 l 684 333 l 250 333 l 133 0 l 19 0 l 388 1028 l 547 1028 l 916 0 q 803 -75 835 -38 q 771 -155 771 -111 q 797 -213 771 -193 q 873 -233 822 -233 m 283 428 l 650 428 l 467 946 l 283 428 z "},"Å":{"ha":936,"x_min":19,"x_max":916,"o":"m 684 333 l 250 333 l 133 0 l 19 0 l 388 1028 l 419 1028 q 357 1075 380 1042 q 334 1153 334 1109 q 352 1222 334 1192 q 400 1270 369 1253 q 470 1288 431 1288 q 540 1270 509 1288 q 588 1222 571 1253 q 606 1153 606 1192 q 583 1075 606 1109 q 522 1028 560 1042 l 547 1028 l 916 0 l 801 0 l 684 333 m 389 1153 q 411 1093 389 1115 q 470 1071 434 1071 q 528 1093 506 1071 q 551 1153 551 1115 q 528 1214 551 1191 q 470 1236 506 1236 q 411 1214 434 1236 q 389 1153 389 1191 m 283 428 l 650 428 l 467 946 l 283 428 z "},"Ǻ":{"ha":936,"x_min":19,"x_max":916,"o":"m 684 333 l 250 333 l 133 0 l 19 0 l 388 1028 l 420 1028 q 358 1076 381 1042 q 334 1153 334 1109 q 352 1223 334 1192 q 400 1271 369 1253 q 470 1288 431 1288 q 530 1276 503 1288 l 616 1367 l 710 1367 l 581 1233 q 606 1153 606 1198 q 582 1075 606 1109 q 519 1028 559 1042 l 547 1028 l 916 0 l 801 0 l 684 333 m 389 1153 q 411 1093 389 1116 q 470 1071 434 1071 q 528 1093 506 1071 q 551 1153 551 1116 q 528 1214 551 1192 q 470 1236 506 1236 q 411 1214 434 1236 q 389 1153 389 1192 m 283 428 l 650 428 l 467 946 l 283 428 z "},"Ã":{"ha":936,"x_min":19,"x_max":916,"o":"m 801 0 l 684 333 l 250 333 l 133 0 l 19 0 l 388 1028 l 547 1028 l 916 0 l 801 0 m 283 428 l 650 428 l 467 946 l 283 428 m 575 1158 q 521 1165 546 1158 q 458 1186 497 1172 q 404 1205 426 1199 q 359 1211 382 1211 q 294 1199 322 1211 q 240 1162 267 1188 l 240 1239 q 360 1284 284 1284 q 416 1277 390 1284 q 478 1256 442 1269 q 532 1237 510 1243 q 576 1231 554 1231 q 641 1242 613 1231 q 696 1280 669 1254 l 696 1203 q 644 1169 674 1181 q 575 1158 615 1158 z "},"Æ":{"ha":1282,"x_min":19,"x_max":1232,"o":"m 758 96 l 1232 96 l 1232 0 l 653 0 l 630 333 l 253 333 l 133 0 l 19 0 l 394 1028 l 1225 1028 l 1225 932 l 699 932 l 724 575 l 1158 575 l 1158 480 l 731 480 l 758 96 m 288 428 l 624 428 l 589 932 l 470 932 l 288 428 z "},"Ǽ":{"ha":1282,"x_min":19,"x_max":1232,"o":"m 758 96 l 1232 96 l 1232 0 l 653 0 l 630 333 l 253 333 l 133 0 l 19 0 l 394 1028 l 1225 1028 l 1225 932 l 699 932 l 724 575 l 1158 575 l 1158 480 l 731 480 l 758 96 m 288 428 l 624 428 l 589 932 l 470 932 l 288 428 m 587 1117 l 710 1314 l 831 1314 l 689 1117 l 587 1117 z "},"B":{"ha":874,"x_min":117,"x_max":824,"o":"m 613 531 q 771 447 718 512 q 824 280 824 381 q 778 120 824 183 q 633 24 733 56 q 372 -9 533 -9 q 117 8 249 -9 l 117 1010 q 400 1039 256 1039 q 700 972 606 1039 q 794 765 794 905 q 750 615 794 677 q 613 531 705 553 m 410 949 q 228 934 306 949 l 228 573 l 430 573 q 626 619 566 573 q 687 760 687 665 q 659 869 687 828 q 571 930 631 910 q 410 949 510 949 m 394 81 q 585 103 515 81 q 686 169 656 125 q 717 283 717 213 q 652 433 717 385 q 449 481 588 481 l 228 481 l 228 90 q 394 81 299 81 z "},"C":{"ha":799,"x_min":73,"x_max":772,"o":"m 538 -13 q 194 111 315 -13 q 73 512 73 235 q 196 912 73 783 q 549 1041 319 1041 q 772 1011 662 1041 l 772 913 q 553 943 665 943 q 354 901 433 943 q 233 764 274 858 q 192 515 192 669 q 233 261 192 356 q 353 125 275 166 q 547 85 431 85 q 657 94 603 85 q 772 124 711 103 l 772 25 q 538 -13 663 -13 z "},"Ć":{"ha":799,"x_min":73,"x_max":772,"o":"m 538 -13 q 194 111 315 -13 q 73 512 73 235 q 196 912 73 783 q 549 1041 319 1041 q 772 1011 662 1041 l 772 913 q 553 943 665 943 q 354 901 433 943 q 233 764 274 858 q 192 515 192 669 q 233 261 192 356 q 353 125 275 166 q 547 85 431 85 q 657 94 603 85 q 772 124 711 103 l 772 25 q 538 -13 663 -13 m 436 1117 l 560 1314 l 680 1314 l 538 1117 l 436 1117 z "},"Č":{"ha":799,"x_min":73,"x_max":772,"o":"m 538 -13 q 194 111 315 -13 q 73 512 73 235 q 196 912 73 783 q 549 1041 319 1041 q 772 1011 662 1041 l 772 913 q 553 943 665 943 q 354 901 433 943 q 233 764 274 858 q 192 515 192 669 q 233 261 192 356 q 353 125 275 166 q 547 85 431 85 q 657 94 603 85 q 772 124 711 103 l 772 25 q 538 -13 663 -13 m 612 1314 l 709 1314 l 539 1117 l 436 1117 l 266 1314 l 363 1314 l 488 1165 l 612 1314 z "},"Ç":{"ha":799,"x_min":73,"x_max":772,"o":"m 553 943 q 354 901 433 943 q 233 764 274 858 q 192 515 192 669 q 233 261 192 356 q 353 125 275 166 q 547 85 431 85 q 657 94 603 85 q 772 124 711 103 l 772 25 q 538 -13 663 -13 l 523 -13 l 523 -71 q 614 -103 582 -76 q 647 -178 647 -131 q 607 -260 647 -232 q 493 -289 567 -289 q 423 -282 458 -289 q 359 -263 388 -276 l 359 -207 q 489 -234 424 -234 q 579 -176 579 -234 q 488 -117 579 -117 l 459 -117 l 459 -9 q 173 135 273 10 q 73 512 73 260 q 196 912 73 783 q 549 1041 319 1041 q 772 1011 662 1041 l 772 913 q 553 943 665 943 z "},"Ḉ":{"ha":799,"x_min":73,"x_max":772,"o":"m 680 1314 l 538 1117 l 436 1117 l 560 1314 l 680 1314 m 553 943 q 354 901 433 943 q 233 764 274 858 q 192 515 192 669 q 233 261 192 356 q 353 125 275 166 q 547 85 431 85 q 657 94 603 85 q 772 124 711 103 l 772 25 q 538 -13 663 -13 l 523 -13 l 523 -71 q 614 -103 582 -76 q 647 -178 647 -131 q 607 -260 647 -232 q 493 -289 567 -289 q 423 -282 458 -289 q 359 -263 388 -276 l 359 -207 q 489 -234 424 -234 q 579 -176 579 -234 q 488 -117 579 -117 l 459 -117 l 459 -9 q 173 135 273 10 q 73 512 73 260 q 196 912 73 783 q 549 1041 319 1041 q 772 1011 662 1041 l 772 913 q 553 943 665 943 z "},"Ĉ":{"ha":799,"x_min":73,"x_max":772,"o":"m 538 -13 q 194 111 315 -13 q 73 512 73 235 q 196 912 73 783 q 549 1041 319 1041 q 772 1011 662 1041 l 772 913 q 553 943 665 943 q 354 901 433 943 q 233 764 274 858 q 192 515 192 669 q 233 261 192 356 q 353 125 275 166 q 547 85 431 85 q 657 94 603 85 q 772 124 711 103 l 772 25 q 538 -13 663 -13 m 709 1117 l 612 1117 l 488 1265 l 363 1117 l 266 1117 l 436 1314 l 539 1314 l 709 1117 z "},"Ċ":{"ha":799,"x_min":73,"x_max":772,"o":"m 538 -13 q 194 111 315 -13 q 73 512 73 235 q 196 912 73 783 q 549 1041 319 1041 q 772 1011 662 1041 l 772 913 q 553 943 665 943 q 354 901 433 943 q 233 764 274 858 q 192 515 192 669 q 233 261 192 356 q 353 125 275 166 q 547 85 431 85 q 657 94 603 85 q 772 124 711 103 l 772 25 q 538 -13 663 -13 m 488 1152 q 431 1169 451 1152 q 410 1216 410 1185 q 431 1264 410 1247 q 488 1282 451 1282 q 544 1264 524 1282 q 565 1216 565 1247 q 544 1169 565 1185 q 488 1152 524 1152 z "},"D":{"ha":972,"x_min":117,"x_max":899,"o":"m 361 -8 q 117 6 246 -8 l 117 1011 q 251 1031 181 1024 q 386 1038 322 1038 q 770 909 642 1038 q 899 514 899 779 q 765 118 899 245 q 361 -8 631 -8 m 383 88 q 606 132 518 88 q 739 270 694 176 q 783 514 783 364 q 686 839 783 736 q 390 942 590 942 q 230 928 317 942 l 230 97 q 383 88 299 88 z "},"Ǳ":{"ha":1739,"x_min":117,"x_max":1697,"o":"m 361 -8 q 117 6 246 -8 l 117 1011 q 251 1031 181 1024 q 386 1038 322 1038 q 770 909 642 1038 q 899 514 899 779 q 765 118 899 245 q 361 -8 631 -8 m 383 88 q 606 132 518 88 q 739 270 694 176 q 783 514 783 364 q 686 839 783 736 q 390 942 590 942 q 230 928 317 942 l 230 97 q 383 88 299 88 m 1129 97 l 1697 97 l 1697 0 l 981 0 l 981 63 l 1540 931 l 989 931 l 989 1028 l 1688 1028 l 1688 965 l 1129 97 z "},"Ǆ":{"ha":1739,"x_min":117,"x_max":1697,"o":"m 361 -8 q 117 6 246 -8 l 117 1011 q 251 1031 181 1024 q 386 1038 322 1038 q 770 909 642 1038 q 899 514 899 779 q 765 118 899 245 q 361 -8 631 -8 m 383 88 q 606 132 518 88 q 739 270 694 176 q 783 514 783 364 q 686 839 783 736 q 390 942 590 942 q 230 928 317 942 l 230 97 q 383 88 299 88 m 1129 97 l 1697 97 l 1697 0 l 981 0 l 981 63 l 1540 931 l 989 931 l 989 1028 l 1688 1028 l 1688 965 l 1129 97 m 1463 1314 l 1560 1314 l 1390 1117 l 1288 1117 l 1117 1314 l 1215 1314 l 1339 1165 l 1463 1314 z "},"Ð":{"ha":972,"x_min":2,"x_max":899,"o":"m 386 1038 q 770 909 642 1038 q 899 514 899 779 q 765 118 899 245 q 361 -8 631 -8 q 117 6 246 -8 l 117 490 l 2 490 l 2 569 l 117 569 l 117 1011 q 251 1031 181 1024 q 386 1038 322 1038 m 383 88 q 606 132 518 88 q 739 270 694 176 q 783 514 783 364 q 686 839 783 736 q 390 942 590 942 q 230 928 317 942 l 230 569 l 460 569 l 460 490 l 230 490 l 230 97 q 383 88 299 88 z "},"Ď":{"ha":972,"x_min":117,"x_max":899,"o":"m 361 -8 q 117 6 246 -8 l 117 1011 q 251 1031 181 1024 q 386 1038 322 1038 q 770 909 642 1038 q 899 514 899 779 q 765 118 899 245 q 361 -8 631 -8 m 383 88 q 606 132 518 88 q 739 270 694 176 q 783 514 783 364 q 686 839 783 736 q 390 942 590 942 q 230 928 317 942 l 230 97 q 383 88 299 88 m 565 1314 l 662 1314 l 492 1117 l 389 1117 l 219 1314 l 316 1314 l 440 1165 l 565 1314 z "},"Đ":{"ha":972,"x_min":2,"x_max":899,"o":"m 386 1038 q 770 909 642 1038 q 899 514 899 779 q 765 118 899 245 q 361 -8 631 -8 q 117 6 246 -8 l 117 490 l 2 490 l 2 569 l 117 569 l 117 1011 q 251 1031 181 1024 q 386 1038 322 1038 m 383 88 q 606 132 518 88 q 739 270 694 176 q 783 514 783 364 q 686 839 783 736 q 390 942 590 942 q 230 928 317 942 l 230 569 l 460 569 l 460 490 l 230 490 l 230 97 q 383 88 299 88 z "},"Ḍ":{"ha":972,"x_min":117,"x_max":899,"o":"m 361 -8 q 117 6 246 -8 l 117 1011 q 251 1031 181 1024 q 386 1038 322 1038 q 770 909 642 1038 q 899 514 899 779 q 765 118 899 245 q 361 -8 631 -8 m 383 88 q 606 132 518 88 q 739 270 694 176 q 783 514 783 364 q 686 839 783 736 q 390 942 590 942 q 230 928 317 942 l 230 97 q 383 88 299 88 m 444 -243 q 387 -226 408 -243 q 367 -178 367 -209 q 387 -131 367 -148 q 444 -113 408 -113 q 500 -131 480 -113 q 521 -178 521 -148 q 500 -226 521 -209 q 444 -243 480 -243 z "},"Ḏ":{"ha":972,"x_min":117,"x_max":899,"o":"m 361 -8 q 117 6 246 -8 l 117 1011 q 251 1031 181 1024 q 386 1038 322 1038 q 770 909 642 1038 q 899 514 899 779 q 765 118 899 245 q 361 -8 631 -8 m 383 88 q 606 132 518 88 q 739 270 694 176 q 783 514 783 364 q 686 839 783 736 q 390 942 590 942 q 230 928 317 942 l 230 97 q 383 88 299 88 m 231 -215 l 231 -140 l 656 -140 l 656 -215 l 231 -215 z "},"ǲ":{"ha":1610,"x_min":117,"x_max":1572,"o":"m 361 -8 q 117 6 246 -8 l 117 1011 q 251 1031 181 1024 q 386 1038 322 1038 q 770 909 642 1038 q 899 514 899 779 q 765 118 899 245 q 361 -8 631 -8 m 383 88 q 606 132 518 88 q 739 270 694 176 q 783 514 783 364 q 686 839 783 736 q 390 942 590 942 q 230 928 317 942 l 230 97 q 383 88 299 88 m 1156 92 l 1572 92 l 1572 0 l 1015 0 l 1015 69 l 1424 662 l 1024 662 l 1024 753 l 1564 753 l 1564 685 l 1156 92 z "},"ǅ":{"ha":1610,"x_min":117,"x_max":1572,"o":"m 361 -8 q 117 6 246 -8 l 117 1011 q 251 1031 181 1024 q 386 1038 322 1038 q 770 909 642 1038 q 899 514 899 779 q 765 118 899 245 q 361 -8 631 -8 m 383 88 q 606 132 518 88 q 739 270 694 176 q 783 514 783 364 q 686 839 783 736 q 390 942 590 942 q 230 928 317 942 l 230 97 q 383 88 299 88 m 1156 92 l 1572 92 l 1572 0 l 1015 0 l 1015 69 l 1424 662 l 1024 662 l 1024 753 l 1564 753 l 1564 685 l 1156 92 m 1418 1092 l 1515 1092 l 1345 894 l 1242 894 l 1072 1092 l 1169 1092 l 1294 943 l 1418 1092 z "},"E":{"ha":810,"x_min":117,"x_max":760,"o":"m 229 96 l 760 96 l 760 0 l 117 0 l 117 1028 l 753 1028 l 753 932 l 229 932 l 229 575 l 685 575 l 685 480 l 229 480 l 229 96 z "},"É":{"ha":810,"x_min":117,"x_max":760,"o":"m 229 96 l 760 96 l 760 0 l 117 0 l 117 1028 l 753 1028 l 753 932 l 229 932 l 229 575 l 685 575 l 685 480 l 229 480 l 229 96 m 399 1117 l 523 1314 l 643 1314 l 501 1117 l 399 1117 z "},"Ĕ":{"ha":810,"x_min":117,"x_max":760,"o":"m 229 96 l 760 96 l 760 0 l 117 0 l 117 1028 l 753 1028 l 753 932 l 229 932 l 229 575 l 685 575 l 685 480 l 229 480 l 229 96 m 451 1123 q 294 1170 350 1123 q 229 1299 238 1217 l 304 1299 q 347 1216 313 1243 q 451 1189 381 1189 q 556 1216 522 1189 q 597 1299 590 1243 l 672 1299 q 609 1169 664 1216 q 451 1123 553 1123 z "},"Ě":{"ha":810,"x_min":117,"x_max":760,"o":"m 229 96 l 760 96 l 760 0 l 117 0 l 117 1028 l 753 1028 l 753 932 l 229 932 l 229 575 l 685 575 l 685 480 l 229 480 l 229 96 m 575 1314 l 672 1314 l 502 1117 l 399 1117 l 229 1314 l 326 1314 l 451 1165 l 575 1314 z "},"Ḝ":{"ha":810,"x_min":117,"x_max":760,"o":"m 451 1123 q 294 1170 350 1123 q 229 1299 238 1217 l 304 1299 q 347 1216 313 1243 q 451 1189 381 1189 q 556 1216 522 1189 q 597 1299 590 1243 l 672 1299 q 609 1169 664 1216 q 451 1123 553 1123 m 478 0 l 478 -71 q 570 -103 538 -76 q 602 -178 602 -131 q 562 -260 602 -232 q 449 -289 522 -289 q 379 -282 414 -289 q 315 -263 344 -276 l 315 -207 q 444 -234 380 -234 q 535 -176 535 -234 q 443 -117 535 -117 l 415 -117 l 415 0 l 117 0 l 117 1028 l 753 1028 l 753 932 l 229 932 l 229 575 l 685 575 l 685 480 l 229 480 l 229 96 l 760 96 l 760 0 l 478 0 z "},"Ê":{"ha":810,"x_min":117,"x_max":760,"o":"m 229 96 l 760 96 l 760 0 l 117 0 l 117 1028 l 753 1028 l 753 932 l 229 932 l 229 575 l 685 575 l 685 480 l 229 480 l 229 96 m 672 1117 l 575 1117 l 451 1265 l 326 1117 l 229 1117 l 399 1314 l 502 1314 l 672 1117 z "},"Ế":{"ha":810,"x_min":117,"x_max":807,"o":"m 229 96 l 760 96 l 760 0 l 117 0 l 117 1028 l 753 1028 l 753 932 l 229 932 l 229 575 l 685 575 l 685 480 l 229 480 l 229 96 m 717 1433 l 807 1433 l 681 1251 l 609 1251 l 717 1433 m 399 1306 l 502 1306 l 672 1117 l 575 1117 l 451 1260 l 326 1117 l 229 1117 l 399 1306 z "},"Ệ":{"ha":810,"x_min":117,"x_max":760,"o":"m 229 96 l 760 96 l 760 0 l 117 0 l 117 1028 l 753 1028 l 753 932 l 229 932 l 229 575 l 685 575 l 685 480 l 229 480 l 229 96 m 451 -243 q 395 -226 415 -243 q 374 -178 374 -209 q 395 -131 374 -148 q 451 -113 415 -113 q 508 -131 488 -113 q 528 -178 528 -148 q 508 -226 528 -209 q 451 -243 488 -243 m 672 1117 l 575 1117 l 451 1265 l 326 1117 l 229 1117 l 399 1314 l 502 1314 l 672 1117 z "},"Ề":{"ha":810,"x_min":117,"x_max":760,"o":"m 229 96 l 760 96 l 760 0 l 117 0 l 117 1028 l 753 1028 l 753 932 l 229 932 l 229 575 l 685 575 l 685 480 l 229 480 l 229 96 m 699 1251 l 626 1251 l 501 1433 l 590 1433 l 699 1251 m 399 1306 l 502 1306 l 672 1117 l 575 1117 l 451 1260 l 326 1117 l 229 1117 l 399 1306 z "},"Ể":{"ha":810,"x_min":117,"x_max":794,"o":"m 229 96 l 760 96 l 760 0 l 117 0 l 117 1028 l 753 1028 l 753 932 l 229 932 l 229 575 l 685 575 l 685 480 l 229 480 l 229 96 m 650 1444 q 759 1424 723 1444 q 794 1367 794 1403 q 785 1336 794 1349 q 764 1315 776 1323 q 731 1297 751 1308 q 692 1276 705 1285 q 678 1251 680 1267 l 609 1251 q 620 1284 610 1271 q 644 1306 631 1298 q 680 1323 658 1313 q 714 1341 703 1333 q 725 1361 725 1349 q 707 1385 725 1377 q 644 1393 688 1393 q 508 1372 574 1393 l 508 1422 q 574 1439 537 1433 q 650 1444 612 1444 m 399 1306 l 502 1306 l 672 1117 l 575 1117 l 451 1260 l 326 1117 l 229 1117 l 399 1306 z "},"Ễ":{"ha":810,"x_min":117,"x_max":760,"o":"m 229 96 l 760 96 l 760 0 l 117 0 l 117 1028 l 753 1028 l 753 932 l 229 932 l 229 575 l 685 575 l 685 480 l 229 480 l 229 96 m 552 1397 q 614 1408 586 1397 q 672 1444 642 1419 l 672 1379 q 618 1347 648 1357 q 551 1337 588 1337 q 499 1344 524 1337 q 439 1364 474 1351 q 387 1381 406 1376 q 349 1386 369 1386 q 287 1375 315 1386 q 229 1338 259 1363 l 229 1403 q 284 1435 254 1425 q 350 1446 313 1446 q 402 1439 377 1446 q 463 1419 428 1432 q 514 1402 496 1407 q 552 1397 533 1397 m 399 1306 l 502 1306 l 672 1117 l 575 1117 l 451 1260 l 326 1117 l 229 1117 l 399 1306 z "},"Ȅ":{"ha":810,"x_min":117,"x_max":760,"o":"m 229 96 l 760 96 l 760 0 l 117 0 l 117 1028 l 753 1028 l 753 932 l 229 932 l 229 575 l 685 575 l 685 480 l 229 480 l 229 96 m 290 1117 l 194 1314 l 288 1314 l 378 1117 l 290 1117 m 524 1117 l 428 1314 l 522 1314 l 611 1117 l 524 1117 z "},"Ë":{"ha":810,"x_min":117,"x_max":760,"o":"m 229 96 l 760 96 l 760 0 l 117 0 l 117 1028 l 753 1028 l 753 932 l 229 932 l 229 575 l 685 575 l 685 480 l 229 480 l 229 96 m 288 1152 q 235 1169 254 1152 q 217 1216 217 1186 q 236 1264 217 1247 q 288 1282 255 1282 q 340 1264 322 1282 q 359 1216 359 1247 q 340 1169 359 1186 q 288 1152 322 1152 m 613 1152 q 561 1169 580 1152 q 542 1216 542 1186 q 561 1264 542 1247 q 613 1282 580 1282 q 666 1264 647 1282 q 685 1216 685 1247 q 666 1169 685 1186 q 613 1152 647 1152 z "},"Ė":{"ha":810,"x_min":117,"x_max":760,"o":"m 229 96 l 760 96 l 760 0 l 117 0 l 117 1028 l 753 1028 l 753 932 l 229 932 l 229 575 l 685 575 l 685 480 l 229 480 l 229 96 m 451 1152 q 394 1169 415 1152 q 374 1216 374 1185 q 394 1264 374 1247 q 451 1282 415 1282 q 507 1264 487 1282 q 528 1216 528 1247 q 507 1169 528 1185 q 451 1152 487 1152 z "},"Ẹ":{"ha":810,"x_min":117,"x_max":760,"o":"m 229 96 l 760 96 l 760 0 l 117 0 l 117 1028 l 753 1028 l 753 932 l 229 932 l 229 575 l 685 575 l 685 480 l 229 480 l 229 96 m 451 -243 q 395 -226 415 -243 q 374 -178 374 -209 q 395 -131 374 -148 q 451 -113 415 -113 q 508 -131 488 -113 q 528 -178 528 -148 q 508 -226 528 -209 q 451 -243 488 -243 z "},"È":{"ha":810,"x_min":117,"x_max":760,"o":"m 229 96 l 760 96 l 760 0 l 117 0 l 117 1028 l 753 1028 l 753 932 l 229 932 l 229 575 l 685 575 l 685 480 l 229 480 l 229 96 m 400 1117 l 258 1314 l 378 1314 l 501 1117 l 400 1117 z "},"Ẻ":{"ha":810,"x_min":117,"x_max":760,"o":"m 229 96 l 760 96 l 760 0 l 117 0 l 117 1028 l 753 1028 l 753 932 l 229 932 l 229 575 l 685 575 l 685 480 l 229 480 l 229 96 m 416 1117 q 436 1161 417 1146 q 487 1192 454 1177 q 521 1210 510 1201 q 532 1231 532 1218 q 514 1256 532 1247 q 451 1264 496 1264 q 315 1242 381 1264 l 315 1297 q 381 1313 343 1307 q 458 1319 418 1319 q 566 1297 530 1319 q 601 1238 601 1276 q 592 1205 601 1218 q 571 1184 583 1192 q 538 1165 559 1176 q 499 1143 512 1153 q 485 1117 487 1133 l 416 1117 z "},"Ȇ":{"ha":810,"x_min":117,"x_max":760,"o":"m 229 96 l 760 96 l 760 0 l 117 0 l 117 1028 l 753 1028 l 753 932 l 229 932 l 229 575 l 685 575 l 685 480 l 229 480 l 229 96 m 229 1131 q 293 1261 238 1215 q 449 1308 348 1308 q 608 1261 551 1308 q 672 1131 664 1214 l 597 1131 q 554 1215 588 1188 q 449 1242 519 1242 q 345 1215 379 1242 q 304 1131 312 1188 l 229 1131 z "},"Ē":{"ha":810,"x_min":117,"x_max":760,"o":"m 229 96 l 760 96 l 760 0 l 117 0 l 117 1028 l 753 1028 l 753 932 l 229 932 l 229 575 l 685 575 l 685 480 l 229 480 l 229 96 m 238 1178 l 238 1253 l 663 1253 l 663 1178 l 238 1178 z "},"Ḗ":{"ha":810,"x_min":117,"x_max":760,"o":"m 229 96 l 760 96 l 760 0 l 117 0 l 117 1028 l 753 1028 l 753 932 l 229 932 l 229 575 l 685 575 l 685 480 l 229 480 l 229 96 m 396 1327 l 519 1488 l 648 1488 l 506 1327 l 396 1327 m 238 1178 l 238 1253 l 663 1253 l 663 1178 l 238 1178 z "},"Ḕ":{"ha":810,"x_min":117,"x_max":760,"o":"m 229 96 l 760 96 l 760 0 l 117 0 l 117 1028 l 753 1028 l 753 932 l 229 932 l 229 575 l 685 575 l 685 480 l 229 480 l 229 96 m 396 1327 l 253 1488 l 382 1488 l 506 1327 l 396 1327 m 238 1178 l 238 1253 l 663 1253 l 663 1178 l 238 1178 z "},"Ę":{"ha":810,"x_min":117,"x_max":771,"o":"m 660 -233 q 711 -227 685 -233 q 771 -208 737 -222 l 771 -263 q 650 -289 712 -289 q 529 -256 571 -289 q 487 -161 487 -222 q 512 -75 487 -114 q 594 0 537 -35 l 117 0 l 117 1028 l 753 1028 l 753 932 l 229 932 l 229 575 l 685 575 l 685 480 l 229 480 l 229 96 l 760 96 l 760 0 l 703 0 q 590 -75 622 -38 q 558 -155 558 -111 q 583 -213 558 -193 q 660 -233 609 -233 z "},"Ẽ":{"ha":810,"x_min":117,"x_max":760,"o":"m 229 96 l 760 96 l 760 0 l 117 0 l 117 1028 l 753 1028 l 753 932 l 229 932 l 229 575 l 685 575 l 685 480 l 229 480 l 229 96 m 558 1158 q 504 1165 528 1158 q 440 1186 479 1172 q 387 1205 409 1199 q 342 1211 365 1211 q 277 1199 305 1211 q 223 1162 249 1188 l 223 1239 q 343 1284 267 1284 q 399 1277 373 1284 q 461 1256 424 1269 q 515 1237 492 1243 q 559 1231 537 1231 q 624 1242 596 1231 q 678 1280 651 1254 l 678 1203 q 627 1169 656 1181 q 558 1158 598 1158 z "},"F":{"ha":781,"x_min":117,"x_max":748,"o":"m 748 931 l 230 931 l 230 567 l 680 567 l 680 470 l 230 470 l 230 0 l 117 0 l 117 1028 l 748 1028 l 748 931 z "},"G":{"ha":935,"x_min":73,"x_max":831,"o":"m 831 500 l 831 11 q 712 -5 766 0 q 600 -9 658 -9 q 205 117 336 -9 q 73 513 74 244 q 205 912 73 783 q 576 1041 337 1041 q 807 1010 691 1041 l 807 912 q 693 936 747 928 q 583 943 639 943 q 291 842 391 943 q 191 512 191 742 q 236 269 191 363 q 369 132 281 175 q 594 88 458 88 q 724 97 664 88 l 724 500 l 831 500 z "},"Ǵ":{"ha":935,"x_min":73,"x_max":831,"o":"m 831 500 l 831 11 q 712 -5 766 0 q 600 -9 658 -9 q 205 117 336 -9 q 73 513 74 244 q 205 912 73 783 q 576 1041 337 1041 q 807 1010 691 1041 l 807 912 q 693 936 747 928 q 583 943 639 943 q 291 842 391 943 q 191 512 191 742 q 236 269 191 363 q 369 132 281 175 q 594 88 458 88 q 724 97 664 88 l 724 500 l 831 500 m 465 1117 l 589 1314 l 709 1314 l 567 1117 l 465 1117 z "},"Ğ":{"ha":935,"x_min":73,"x_max":831,"o":"m 831 500 l 831 11 q 712 -5 766 0 q 600 -9 658 -9 q 205 117 336 -9 q 73 513 74 244 q 205 912 73 783 q 576 1041 337 1041 q 807 1010 691 1041 l 807 912 q 693 936 747 928 q 583 943 639 943 q 291 842 391 943 q 191 512 191 742 q 236 269 191 363 q 369 132 281 175 q 594 88 458 88 q 724 97 664 88 l 724 500 l 831 500 m 517 1123 q 360 1170 416 1123 q 295 1299 303 1217 l 370 1299 q 413 1216 378 1243 q 517 1189 447 1189 q 622 1216 588 1189 q 663 1299 656 1243 l 738 1299 q 675 1169 730 1216 q 517 1123 619 1123 z "},"Ǧ":{"ha":935,"x_min":73,"x_max":831,"o":"m 831 500 l 831 11 q 712 -5 766 0 q 600 -9 658 -9 q 205 117 336 -9 q 73 513 74 244 q 205 912 73 783 q 576 1041 337 1041 q 807 1010 691 1041 l 807 912 q 693 936 747 928 q 583 943 639 943 q 291 842 391 943 q 191 512 191 742 q 236 269 191 363 q 369 132 281 175 q 594 88 458 88 q 724 97 664 88 l 724 500 l 831 500 m 641 1314 l 738 1314 l 568 1117 l 465 1117 l 295 1314 l 392 1314 l 517 1165 l 641 1314 z "},"Ĝ":{"ha":935,"x_min":73,"x_max":831,"o":"m 831 500 l 831 11 q 712 -5 766 0 q 600 -9 658 -9 q 205 117 336 -9 q 73 513 74 244 q 205 912 73 783 q 576 1041 337 1041 q 807 1010 691 1041 l 807 912 q 693 936 747 928 q 583 943 639 943 q 291 842 391 943 q 191 512 191 742 q 236 269 191 363 q 369 132 281 175 q 594 88 458 88 q 724 97 664 88 l 724 500 l 831 500 m 738 1117 l 641 1117 l 517 1265 l 392 1117 l 295 1117 l 465 1314 l 568 1314 l 738 1117 z "},"Ģ":{"ha":935,"x_min":73,"x_max":831,"o":"m 831 500 l 831 11 q 712 -5 766 0 q 600 -9 658 -9 q 205 117 336 -9 q 73 513 74 244 q 205 912 73 783 q 576 1041 337 1041 q 807 1010 691 1041 l 807 912 q 693 936 747 928 q 583 943 639 943 q 291 842 391 943 q 191 512 191 742 q 236 269 191 363 q 369 132 281 175 q 594 88 458 88 q 724 97 664 88 l 724 500 l 831 500 m 515 -113 q 570 -133 551 -113 q 590 -190 590 -152 q 579 -256 590 -219 q 550 -324 568 -292 l 481 -324 q 510 -226 504 -269 q 461 -210 478 -225 q 444 -169 444 -194 q 462 -128 444 -143 q 515 -113 481 -113 z "},"Ġ":{"ha":935,"x_min":73,"x_max":831,"o":"m 831 500 l 831 11 q 712 -5 766 0 q 600 -9 658 -9 q 205 117 336 -9 q 73 513 74 244 q 205 912 73 783 q 576 1041 337 1041 q 807 1010 691 1041 l 807 912 q 693 936 747 928 q 583 943 639 943 q 291 842 391 943 q 191 512 191 742 q 236 269 191 363 q 369 132 281 175 q 594 88 458 88 q 724 97 664 88 l 724 500 l 831 500 m 517 1152 q 460 1169 481 1152 q 440 1216 440 1185 q 460 1264 440 1247 q 517 1282 481 1282 q 573 1264 553 1282 q 594 1216 594 1247 q 573 1169 594 1185 q 517 1152 553 1152 z "},"Ḡ":{"ha":935,"x_min":73,"x_max":831,"o":"m 831 500 l 831 11 q 712 -5 766 0 q 600 -9 658 -9 q 205 117 336 -9 q 73 513 74 244 q 205 912 73 783 q 576 1041 337 1041 q 807 1010 691 1041 l 807 912 q 693 936 747 928 q 583 943 639 943 q 291 842 391 943 q 191 512 191 742 q 236 269 191 363 q 369 132 281 175 q 594 88 458 88 q 724 97 664 88 l 724 500 l 831 500 m 304 1178 l 304 1253 l 729 1253 l 729 1178 l 304 1178 z "},"H":{"ha":1003,"x_min":117,"x_max":885,"o":"m 117 0 l 117 1028 l 230 1028 l 230 578 l 773 578 l 773 1028 l 885 1028 l 885 0 l 773 0 l 773 476 l 230 476 l 230 0 l 117 0 z "},"Ħ":{"ha":1003,"x_min":1,"x_max":1001,"o":"m 1001 843 l 1001 765 l 885 765 l 885 0 l 773 0 l 773 476 l 230 476 l 230 0 l 117 0 l 117 765 l 1 765 l 1 843 l 117 843 l 117 1028 l 230 1028 l 230 843 l 773 843 l 773 1028 l 885 1028 l 885 843 l 1001 843 m 773 578 l 773 765 l 230 765 l 230 578 l 773 578 z "},"Ḫ":{"ha":1003,"x_min":117,"x_max":885,"o":"m 117 0 l 117 1028 l 230 1028 l 230 578 l 773 578 l 773 1028 l 885 1028 l 885 0 l 773 0 l 773 476 l 230 476 l 230 0 l 117 0 m 502 -287 q 341 -239 398 -287 q 280 -106 284 -190 l 355 -106 q 395 -192 360 -163 q 502 -222 431 -222 q 609 -192 574 -222 q 647 -106 644 -163 l 723 -106 q 663 -239 719 -191 q 502 -287 607 -287 z "},"Ĥ":{"ha":1003,"x_min":117,"x_max":885,"o":"m 117 0 l 117 1028 l 230 1028 l 230 578 l 773 578 l 773 1028 l 885 1028 l 885 0 l 773 0 l 773 476 l 230 476 l 230 0 l 117 0 m 723 1117 l 626 1117 l 501 1265 l 377 1117 l 280 1117 l 450 1314 l 553 1314 l 723 1117 z "},"Ḥ":{"ha":1003,"x_min":117,"x_max":885,"o":"m 117 0 l 117 1028 l 230 1028 l 230 578 l 773 578 l 773 1028 l 885 1028 l 885 0 l 773 0 l 773 476 l 230 476 l 230 0 l 117 0 m 501 -243 q 445 -226 465 -243 q 424 -178 424 -209 q 445 -131 424 -148 q 501 -113 465 -113 q 558 -131 538 -113 q 578 -178 578 -148 q 558 -226 578 -209 q 501 -243 538 -243 z "},"I":{"ha":347,"x_min":117,"x_max":230,"o":"m 117 0 l 117 1028 l 230 1028 l 230 0 l 117 0 z "},"Í":{"ha":347,"x_min":117,"x_max":366,"o":"m 117 0 l 117 1028 l 230 1028 l 230 0 l 117 0 m 122 1117 l 246 1314 l 366 1314 l 224 1117 l 122 1117 z "},"Ĭ":{"ha":347,"x_min":-48,"x_max":395,"o":"m 117 0 l 117 1028 l 230 1028 l 230 0 l 117 0 m 174 1123 q 17 1170 73 1123 q -48 1299 -40 1217 l 27 1299 q 70 1216 35 1243 q 174 1189 104 1189 q 278 1216 244 1189 q 319 1299 313 1243 l 395 1299 q 332 1169 387 1216 q 174 1123 276 1123 z "},"Î":{"ha":347,"x_min":-48,"x_max":395,"o":"m 117 0 l 117 1028 l 230 1028 l 230 0 l 117 0 m 395 1117 l 298 1117 l 174 1265 l 49 1117 l -48 1117 l 122 1314 l 225 1314 l 395 1117 z "},"Ȉ":{"ha":347,"x_min":-83,"x_max":334,"o":"m 117 0 l 117 1028 l 230 1028 l 230 0 l 117 0 m 13 1117 l -83 1314 l 11 1314 l 101 1117 l 13 1117 m 247 1117 l 151 1314 l 245 1314 l 334 1117 l 247 1117 z "},"Ï":{"ha":347,"x_min":-60,"x_max":408,"o":"m 117 0 l 117 1028 l 230 1028 l 230 0 l 117 0 m 11 1152 q -42 1169 -23 1152 q -60 1216 -60 1186 q -41 1264 -60 1247 q 11 1282 -22 1282 q 63 1264 44 1282 q 82 1216 82 1247 q 63 1169 82 1186 q 11 1152 44 1152 m 336 1152 q 284 1169 303 1152 q 265 1216 265 1186 q 284 1264 265 1247 q 336 1282 303 1282 q 389 1264 369 1282 q 408 1216 408 1247 q 389 1169 408 1186 q 336 1152 370 1152 z "},"Ḯ":{"ha":347,"x_min":-60,"x_max":408,"o":"m 117 0 l 117 1028 l 230 1028 l 230 0 l 117 0 m 119 1327 l 242 1488 l 371 1488 l 229 1327 l 119 1327 m 11 1152 q -42 1169 -23 1152 q -60 1216 -60 1186 q -41 1264 -60 1247 q 11 1282 -22 1282 q 63 1264 44 1282 q 82 1216 82 1247 q 63 1169 82 1186 q 11 1152 44 1152 m 336 1152 q 284 1169 303 1152 q 265 1216 265 1186 q 284 1264 265 1247 q 336 1282 303 1282 q 389 1264 369 1282 q 408 1216 408 1247 q 389 1169 408 1186 q 336 1152 370 1152 z "},"İ":{"ha":347,"x_min":97,"x_max":251,"o":"m 117 0 l 117 1028 l 230 1028 l 230 0 l 117 0 m 174 1152 q 117 1169 138 1152 q 97 1216 97 1185 q 117 1264 97 1247 q 174 1282 138 1282 q 230 1264 210 1282 q 251 1216 251 1247 q 230 1169 251 1185 q 174 1152 210 1152 z "},"Ị":{"ha":347,"x_min":97,"x_max":251,"o":"m 117 0 l 117 1028 l 230 1028 l 230 0 l 117 0 m 174 -243 q 117 -226 138 -243 q 97 -178 97 -209 q 117 -131 97 -148 q 174 -113 138 -113 q 230 -131 210 -113 q 251 -178 251 -148 q 230 -226 251 -209 q 174 -243 210 -243 z "},"Ì":{"ha":347,"x_min":-19,"x_max":230,"o":"m 117 0 l 117 1028 l 230 1028 l 230 0 l 117 0 m 123 1117 l -19 1314 l 101 1314 l 224 1117 l 123 1117 z "},"Ỉ":{"ha":347,"x_min":38,"x_max":324,"o":"m 117 0 l 117 1028 l 230 1028 l 230 0 l 117 0 m 139 1117 q 159 1161 140 1146 q 210 1192 177 1177 q 244 1210 233 1201 q 255 1231 255 1218 q 237 1256 255 1247 q 174 1264 219 1264 q 38 1242 104 1264 l 38 1297 q 103 1313 66 1307 q 181 1319 141 1319 q 289 1297 253 1319 q 324 1238 324 1276 q 315 1205 324 1218 q 294 1184 306 1192 q 260 1165 282 1176 q 222 1143 235 1153 q 208 1117 210 1133 l 139 1117 z "},"Ȋ":{"ha":347,"x_min":-48,"x_max":395,"o":"m 117 0 l 117 1028 l 230 1028 l 230 0 l 117 0 m -48 1131 q 16 1261 -40 1215 q 172 1308 71 1308 q 331 1261 274 1308 q 395 1131 387 1214 l 319 1131 q 277 1215 311 1188 q 172 1242 242 1242 q 68 1215 102 1242 q 27 1131 35 1188 l -48 1131 z "},"Ī":{"ha":347,"x_min":-39,"x_max":386,"o":"m 117 0 l 117 1028 l 230 1028 l 230 0 l 117 0 m -39 1178 l -39 1253 l 386 1253 l 386 1178 l -39 1178 z "},"Į":{"ha":347,"x_min":14,"x_max":298,"o":"m 187 -233 q 238 -227 212 -233 q 298 -208 264 -222 l 298 -263 q 177 -289 239 -289 q 56 -256 98 -289 q 14 -161 14 -222 q 39 -75 14 -114 q 122 0 64 -35 l 117 0 l 117 1028 l 230 1028 l 230 0 q 117 -75 149 -38 q 85 -155 85 -111 q 110 -213 85 -193 q 187 -233 136 -233 z "},"Ĩ":{"ha":347,"x_min":-54,"x_max":401,"o":"m 117 0 l 117 1028 l 230 1028 l 230 0 l 117 0 m 281 1158 q 227 1165 251 1158 q 163 1186 202 1172 q 110 1205 132 1199 q 65 1211 88 1211 q 0 1199 28 1211 q -54 1162 -28 1188 l -54 1239 q 66 1284 -10 1284 q 122 1277 96 1284 q 184 1256 147 1269 q 238 1237 215 1243 q 282 1231 260 1231 q 347 1242 319 1231 q 401 1280 374 1254 l 401 1203 q 350 1169 379 1181 q 281 1158 321 1158 z "},"J":{"ha":347,"x_min":-6,"x_max":230,"o":"m -6 -188 q 89 -8 60 -98 q 117 202 117 82 l 117 1028 l 230 1028 l 230 188 q 189 -36 226 63 q 68 -239 152 -135 l -6 -188 z "},"Ĵ":{"ha":347,"x_min":-48,"x_max":395,"o":"m -6 -188 q 89 -8 60 -98 q 117 202 117 82 l 117 1028 l 230 1028 l 230 188 q 189 -36 226 63 q 68 -239 152 -135 l -6 -188 m 395 1117 l 298 1117 l 174 1265 l 49 1117 l -48 1117 l 122 1314 l 225 1314 l 395 1117 z "},"K":{"ha":859,"x_min":117,"x_max":875,"o":"m 748 0 l 382 476 l 230 476 l 230 0 l 117 0 l 117 1028 l 230 1028 l 230 578 l 384 578 l 722 1028 l 846 1028 l 469 529 l 875 0 l 748 0 z "},"Ķ":{"ha":859,"x_min":117,"x_max":875,"o":"m 748 0 l 382 476 l 230 476 l 230 0 l 117 0 l 117 1028 l 230 1028 l 230 578 l 384 578 l 722 1028 l 846 1028 l 469 529 l 875 0 l 748 0 m 446 -113 q 502 -133 483 -113 q 521 -190 521 -152 q 510 -256 521 -219 q 481 -324 499 -292 l 412 -324 q 441 -226 435 -269 q 392 -210 409 -225 q 375 -169 375 -194 q 393 -128 375 -143 q 446 -113 412 -113 z "},"L":{"ha":744,"x_min":117,"x_max":735,"o":"m 117 0 l 117 1028 l 230 1028 l 230 99 l 735 99 l 735 0 l 117 0 z "},"Ǉ":{"ha":1091,"x_min":117,"x_max":974,"o":"m 117 0 l 117 1028 l 230 1028 l 230 99 l 735 99 l 735 0 l 117 0 m 738 -188 q 833 -8 804 -98 q 861 202 861 82 l 861 1028 l 974 1028 l 974 188 q 933 -36 969 63 q 812 -239 896 -135 l 738 -188 z "},"Ĺ":{"ha":744,"x_min":117,"x_max":735,"o":"m 117 0 l 117 1028 l 230 1028 l 230 99 l 735 99 l 735 0 l 117 0 m 123 1117 l 247 1314 l 367 1314 l 225 1117 l 123 1117 z "},"Ľ":{"ha":744,"x_min":117,"x_max":735,"o":"m 117 0 l 117 1028 l 230 1028 l 230 99 l 735 99 l 735 0 l 117 0 m 470 792 q 482 941 479 862 q 485 1122 485 1021 l 568 1122 q 535 792 568 927 l 470 792 z "},"Ļ":{"ha":744,"x_min":117,"x_max":735,"o":"m 117 0 l 117 1028 l 230 1028 l 230 99 l 735 99 l 735 0 l 117 0 m 425 -113 q 481 -133 462 -113 q 500 -190 500 -152 q 489 -256 500 -219 q 460 -324 478 -292 l 391 -324 q 420 -226 415 -269 q 371 -210 388 -225 q 354 -169 354 -194 q 373 -128 354 -143 q 425 -113 391 -113 z "},"Ŀ":{"ha":744,"x_min":117,"x_max":735,"o":"m 117 0 l 117 1028 l 230 1028 l 230 99 l 735 99 l 735 0 l 117 0 m 539 491 q 482 509 502 491 q 462 560 462 528 q 482 613 462 594 q 539 631 502 631 q 597 613 576 631 q 617 560 617 594 q 597 509 617 528 q 539 491 576 491 z "},"Ḷ":{"ha":744,"x_min":117,"x_max":735,"o":"m 117 0 l 117 1028 l 230 1028 l 230 99 l 735 99 l 735 0 l 117 0 m 427 -243 q 370 -226 391 -243 q 350 -178 350 -209 q 370 -131 350 -148 q 427 -113 391 -113 q 484 -131 463 -113 q 504 -178 504 -148 q 484 -226 504 -209 q 427 -243 463 -243 z "},"ǈ":{"ha":1065,"x_min":117,"x_max":981,"o":"m 117 0 l 117 1028 l 230 1028 l 230 99 l 735 99 l 735 0 l 117 0 m 724 -272 q 820 -92 791 -182 q 849 118 849 -2 l 849 753 l 960 753 l 960 124 q 922 -113 960 -10 q 799 -322 885 -216 l 724 -272 m 903 920 q 846 939 866 920 q 826 990 826 957 q 846 1042 826 1024 q 903 1061 867 1061 q 960 1042 940 1061 q 981 990 981 1024 q 960 939 981 957 q 903 920 940 920 z "},"Ḻ":{"ha":744,"x_min":117,"x_max":735,"o":"m 117 0 l 117 1028 l 230 1028 l 230 99 l 735 99 l 735 0 l 117 0 m 215 -215 l 215 -140 l 640 -140 l 640 -215 l 215 -215 z "},"Ł":{"ha":744,"x_min":-12,"x_max":735,"o":"m 230 99 l 735 99 l 735 0 l 117 0 l 117 459 l 29 395 l -12 463 l 117 557 l 117 1028 l 230 1028 l 230 639 l 419 777 l 461 710 l 230 541 l 230 99 z "},"M":{"ha":1222,"x_min":120,"x_max":1102,"o":"m 968 1028 l 1102 1028 l 1102 0 l 996 0 l 996 860 l 662 142 l 560 142 l 226 852 l 226 0 l 120 0 l 120 1028 l 254 1028 l 613 256 l 968 1028 z "},"Ṃ":{"ha":1222,"x_min":120,"x_max":1102,"o":"m 968 1028 l 1102 1028 l 1102 0 l 996 0 l 996 860 l 662 142 l 560 142 l 226 852 l 226 0 l 120 0 l 120 1028 l 254 1028 l 613 256 l 968 1028 m 616 -243 q 559 -226 580 -243 q 539 -178 539 -209 q 559 -131 539 -148 q 616 -113 580 -113 q 673 -131 652 -113 q 693 -178 693 -148 q 673 -226 693 -209 q 616 -243 652 -243 z "},"N":{"ha":1020,"x_min":117,"x_max":903,"o":"m 796 1028 l 903 1028 l 903 0 l 787 0 l 224 856 l 224 0 l 117 0 l 117 1028 l 233 1028 l 796 172 l 796 1028 z "},"Ǌ":{"ha":1367,"x_min":117,"x_max":1250,"o":"m 796 1028 l 903 1028 l 903 0 l 787 0 l 224 856 l 224 0 l 117 0 l 117 1028 l 233 1028 l 796 172 l 796 1028 m 1014 -188 q 1109 -8 1081 -98 q 1138 202 1138 82 l 1138 1028 l 1250 1028 l 1250 188 q 1209 -36 1246 63 q 1088 -239 1172 -135 l 1014 -188 z "},"Ń":{"ha":1020,"x_min":117,"x_max":903,"o":"m 796 1028 l 903 1028 l 903 0 l 787 0 l 224 856 l 224 0 l 117 0 l 117 1028 l 233 1028 l 796 172 l 796 1028 m 459 1117 l 583 1314 l 703 1314 l 561 1117 l 459 1117 z "},"Ň":{"ha":1020,"x_min":117,"x_max":903,"o":"m 796 1028 l 903 1028 l 903 0 l 787 0 l 224 856 l 224 0 l 117 0 l 117 1028 l 233 1028 l 796 172 l 796 1028 m 635 1314 l 732 1314 l 562 1117 l 459 1117 l 289 1314 l 386 1314 l 510 1165 l 635 1314 z "},"Ņ":{"ha":1020,"x_min":117,"x_max":903,"o":"m 796 1028 l 903 1028 l 903 0 l 787 0 l 224 856 l 224 0 l 117 0 l 117 1028 l 233 1028 l 796 172 l 796 1028 m 508 -113 q 564 -133 545 -113 q 583 -190 583 -152 q 573 -256 583 -219 q 544 -324 562 -292 l 474 -324 q 503 -226 498 -269 q 455 -210 472 -225 q 438 -169 438 -194 q 456 -128 438 -143 q 508 -113 474 -113 z "},"Ṅ":{"ha":1020,"x_min":117,"x_max":903,"o":"m 796 1028 l 903 1028 l 903 0 l 787 0 l 224 856 l 224 0 l 117 0 l 117 1028 l 233 1028 l 796 172 l 796 1028 m 510 1152 q 454 1169 474 1152 q 433 1216 433 1185 q 454 1264 433 1247 q 510 1282 474 1282 q 567 1264 547 1282 q 588 1216 588 1247 q 567 1169 588 1185 q 510 1152 547 1152 z "},"Ṇ":{"ha":1020,"x_min":117,"x_max":903,"o":"m 796 1028 l 903 1028 l 903 0 l 787 0 l 224 856 l 224 0 l 117 0 l 117 1028 l 233 1028 l 796 172 l 796 1028 m 510 -243 q 454 -226 474 -243 q 433 -178 433 -209 q 454 -131 433 -148 q 510 -113 474 -113 q 567 -131 547 -113 q 588 -178 588 -148 q 567 -226 588 -209 q 510 -243 547 -243 z "},"Ŋ":{"ha":1020,"x_min":117,"x_max":903,"o":"m 903 1028 l 903 131 q 865 -111 903 -7 q 742 -322 828 -215 l 667 -272 q 746 -141 717 -206 q 787 -2 775 -76 l 224 855 l 224 0 l 117 0 l 117 1028 l 233 1028 l 796 174 l 796 1028 l 903 1028 z "},"ǋ":{"ha":1342,"x_min":117,"x_max":1257,"o":"m 796 1028 l 903 1028 l 903 0 l 787 0 l 224 856 l 224 0 l 117 0 l 117 1028 l 233 1028 l 796 172 l 796 1028 m 1001 -272 q 1096 -92 1067 -182 q 1125 118 1125 -2 l 1125 753 l 1236 753 l 1236 124 q 1199 -113 1236 -10 q 1075 -322 1161 -216 l 1001 -272 m 1180 920 q 1122 939 1142 920 q 1102 990 1102 957 q 1123 1042 1102 1024 q 1180 1061 1143 1061 q 1237 1042 1217 1061 q 1257 990 1257 1024 q 1237 939 1257 957 q 1180 920 1217 920 z "},"Ṉ":{"ha":1020,"x_min":117,"x_max":903,"o":"m 796 1028 l 903 1028 l 903 0 l 787 0 l 224 856 l 224 0 l 117 0 l 117 1028 l 233 1028 l 796 172 l 796 1028 m 298 -215 l 298 -140 l 723 -140 l 723 -215 l 298 -215 z "},"Ñ":{"ha":1020,"x_min":117,"x_max":903,"o":"m 796 1028 l 903 1028 l 903 0 l 787 0 l 224 856 l 224 0 l 117 0 l 117 1028 l 233 1028 l 796 172 l 796 1028 m 617 1158 q 564 1165 588 1158 q 500 1186 539 1172 q 447 1205 469 1199 q 401 1211 424 1211 q 337 1199 365 1211 q 283 1162 309 1188 l 283 1239 q 403 1284 326 1284 q 458 1277 433 1284 q 521 1256 484 1269 q 574 1237 552 1243 q 619 1231 597 1231 q 683 1242 656 1231 q 738 1280 711 1254 l 738 1203 q 687 1169 716 1181 q 617 1158 658 1158 z "},"O":{"ha":999,"x_min":73,"x_max":926,"o":"m 499 -13 q 186 116 299 -13 q 73 514 73 245 q 125 813 73 695 q 273 985 178 930 q 499 1041 369 1041 q 813 912 700 1041 q 926 514 926 783 q 873 216 926 333 q 726 42 821 98 q 499 -13 631 -13 m 499 84 q 728 184 648 84 q 809 510 809 285 q 728 842 809 741 q 499 944 648 944 q 270 843 351 944 q 190 517 190 743 q 270 185 190 287 q 499 84 351 84 z "},"Ó":{"ha":999,"x_min":73,"x_max":926,"o":"m 499 -13 q 186 116 299 -13 q 73 514 73 245 q 125 813 73 695 q 273 985 178 930 q 499 1041 369 1041 q 813 912 700 1041 q 926 514 926 783 q 873 216 926 333 q 726 42 821 98 q 499 -13 631 -13 m 499 84 q 728 184 648 84 q 809 510 809 285 q 728 842 809 741 q 499 944 648 944 q 270 843 351 944 q 190 517 190 743 q 270 185 190 287 q 499 84 351 84 m 448 1117 l 572 1314 l 692 1314 l 550 1117 l 448 1117 z "},"Ŏ":{"ha":999,"x_min":73,"x_max":926,"o":"m 499 -13 q 186 116 299 -13 q 73 514 73 245 q 125 813 73 695 q 273 985 178 930 q 499 1041 369 1041 q 813 912 700 1041 q 926 514 926 783 q 873 216 926 333 q 726 42 821 98 q 499 -13 631 -13 m 499 84 q 728 184 648 84 q 809 510 809 285 q 728 842 809 741 q 499 944 648 944 q 270 843 351 944 q 190 517 190 743 q 270 185 190 287 q 499 84 351 84 m 500 1123 q 342 1170 399 1123 q 278 1299 286 1217 l 353 1299 q 395 1216 361 1243 q 500 1189 430 1189 q 604 1216 570 1189 q 645 1299 638 1243 l 721 1299 q 657 1169 713 1216 q 500 1123 602 1123 z "},"Ô":{"ha":999,"x_min":73,"x_max":926,"o":"m 499 -13 q 186 116 299 -13 q 73 514 73 245 q 125 813 73 695 q 273 985 178 930 q 499 1041 369 1041 q 813 912 700 1041 q 926 514 926 783 q 873 216 926 333 q 726 42 821 98 q 499 -13 631 -13 m 499 84 q 728 184 648 84 q 809 510 809 285 q 728 842 809 741 q 499 944 648 944 q 270 843 351 944 q 190 517 190 743 q 270 185 190 287 q 499 84 351 84 m 721 1117 l 624 1117 l 499 1265 l 375 1117 l 278 1117 l 448 1314 l 551 1314 l 721 1117 z "},"Ố":{"ha":999,"x_min":73,"x_max":926,"o":"m 499 -13 q 186 116 299 -13 q 73 514 73 245 q 125 813 73 695 q 273 985 178 930 q 499 1041 369 1041 q 813 912 700 1041 q 926 514 926 783 q 873 216 926 333 q 726 42 821 98 q 499 -13 631 -13 m 499 84 q 728 184 648 84 q 809 510 809 285 q 728 842 809 741 q 499 944 648 944 q 270 843 351 944 q 190 517 190 743 q 270 185 190 287 q 499 84 351 84 m 765 1433 l 856 1433 l 730 1251 l 658 1251 l 765 1433 m 448 1306 l 551 1306 l 721 1117 l 624 1117 l 499 1260 l 375 1117 l 278 1117 l 448 1306 z "},"Ộ":{"ha":999,"x_min":73,"x_max":926,"o":"m 499 -13 q 186 116 299 -13 q 73 514 73 245 q 125 813 73 695 q 273 985 178 930 q 499 1041 369 1041 q 813 912 700 1041 q 926 514 926 783 q 873 216 926 333 q 726 42 821 98 q 499 -13 631 -13 m 499 84 q 728 184 648 84 q 809 510 809 285 q 728 842 809 741 q 499 944 648 944 q 270 843 351 944 q 190 517 190 743 q 270 185 190 287 q 499 84 351 84 m 499 -243 q 443 -226 463 -243 q 422 -178 422 -209 q 443 -131 422 -148 q 499 -113 463 -113 q 556 -131 535 -113 q 576 -178 576 -148 q 556 -226 576 -209 q 499 -243 535 -243 m 721 1117 l 624 1117 l 499 1265 l 375 1117 l 278 1117 l 448 1314 l 551 1314 l 721 1117 z "},"Ồ":{"ha":999,"x_min":73,"x_max":926,"o":"m 499 -13 q 186 116 299 -13 q 73 514 73 245 q 125 813 73 695 q 273 985 178 930 q 499 1041 369 1041 q 813 912 700 1041 q 926 514 926 783 q 873 216 926 333 q 726 42 821 98 q 499 -13 631 -13 m 499 84 q 728 184 648 84 q 809 510 809 285 q 728 842 809 741 q 499 944 648 944 q 270 843 351 944 q 190 517 190 743 q 270 185 190 287 q 499 84 351 84 m 747 1251 l 675 1251 l 549 1433 l 639 1433 l 747 1251 m 448 1306 l 551 1306 l 721 1117 l 624 1117 l 499 1260 l 375 1117 l 278 1117 l 448 1306 z "},"Ổ":{"ha":999,"x_min":73,"x_max":926,"o":"m 499 -13 q 186 116 299 -13 q 73 514 73 245 q 125 813 73 695 q 273 985 178 930 q 499 1041 369 1041 q 813 912 700 1041 q 926 514 926 783 q 873 216 926 333 q 726 42 821 98 q 499 -13 631 -13 m 499 84 q 728 184 648 84 q 809 510 809 285 q 728 842 809 741 q 499 944 648 944 q 270 843 351 944 q 190 517 190 743 q 270 185 190 287 q 499 84 351 84 m 699 1444 q 807 1424 772 1444 q 843 1367 843 1403 q 834 1336 843 1349 q 813 1315 825 1323 q 779 1297 800 1308 q 741 1276 753 1285 q 726 1251 728 1267 l 658 1251 q 669 1284 658 1271 q 693 1306 679 1298 q 728 1323 706 1313 q 763 1341 752 1333 q 774 1361 774 1349 q 755 1385 774 1377 q 692 1393 737 1393 q 557 1372 622 1393 l 557 1422 q 623 1439 585 1433 q 699 1444 660 1444 m 448 1306 l 551 1306 l 721 1117 l 624 1117 l 499 1260 l 375 1117 l 278 1117 l 448 1306 z "},"Ỗ":{"ha":999,"x_min":73,"x_max":926,"o":"m 499 -13 q 186 116 299 -13 q 73 514 73 245 q 125 813 73 695 q 273 985 178 930 q 499 1041 369 1041 q 813 912 700 1041 q 926 514 926 783 q 873 216 926 333 q 726 42 821 98 q 499 -13 631 -13 m 499 84 q 728 184 648 84 q 809 510 809 285 q 728 842 809 741 q 499 944 648 944 q 270 843 351 944 q 190 517 190 743 q 270 185 190 287 q 499 84 351 84 m 601 1397 q 663 1408 635 1397 q 721 1444 691 1419 l 721 1379 q 667 1347 697 1357 q 600 1337 637 1337 q 548 1344 573 1337 q 488 1364 522 1351 q 436 1381 454 1376 q 398 1386 417 1386 q 336 1375 364 1386 q 278 1338 308 1363 l 278 1403 q 332 1435 303 1425 q 399 1446 362 1446 q 451 1439 426 1446 q 511 1419 476 1432 q 563 1402 544 1407 q 601 1397 581 1397 m 448 1306 l 551 1306 l 721 1117 l 624 1117 l 499 1260 l 375 1117 l 278 1117 l 448 1306 z "},"Ȍ":{"ha":999,"x_min":73,"x_max":926,"o":"m 499 -13 q 186 116 299 -13 q 73 514 73 245 q 125 813 73 695 q 273 985 178 930 q 499 1041 369 1041 q 813 912 700 1041 q 926 514 926 783 q 873 216 926 333 q 726 42 821 98 q 499 -13 631 -13 m 499 84 q 728 184 648 84 q 809 510 809 285 q 728 842 809 741 q 499 944 648 944 q 270 843 351 944 q 190 517 190 743 q 270 185 190 287 q 499 84 351 84 m 339 1117 l 242 1314 l 337 1314 l 426 1117 l 339 1117 m 572 1117 l 476 1314 l 571 1314 l 660 1117 l 572 1117 z "},"Ö":{"ha":999,"x_min":73,"x_max":926,"o":"m 499 -13 q 186 116 299 -13 q 73 514 73 245 q 125 813 73 695 q 273 985 178 930 q 499 1041 369 1041 q 813 912 700 1041 q 926 514 926 783 q 873 216 926 333 q 726 42 821 98 q 499 -13 631 -13 m 499 84 q 728 184 648 84 q 809 510 809 285 q 728 842 809 741 q 499 944 648 944 q 270 843 351 944 q 190 517 190 743 q 270 185 190 287 q 499 84 351 84 m 337 1152 q 284 1169 303 1152 q 265 1216 265 1186 q 284 1264 265 1247 q 337 1282 303 1282 q 389 1264 370 1282 q 408 1216 408 1247 q 389 1169 408 1186 q 337 1152 370 1152 m 662 1152 q 610 1169 628 1152 q 591 1216 591 1186 q 610 1264 591 1247 q 662 1282 628 1282 q 714 1264 695 1282 q 733 1216 733 1247 q 715 1169 733 1186 q 662 1152 696 1152 z "},"Ȫ":{"ha":999,"x_min":73,"x_max":926,"o":"m 499 -13 q 186 116 299 -13 q 73 514 73 245 q 125 813 73 695 q 273 985 178 930 q 499 1041 369 1041 q 813 912 700 1041 q 926 514 926 783 q 873 216 926 333 q 726 42 821 98 q 499 -13 631 -13 m 499 84 q 728 184 648 84 q 809 510 809 285 q 728 842 809 741 q 499 944 648 944 q 270 843 351 944 q 190 517 190 743 q 270 185 190 287 q 499 84 351 84 m 337 1152 q 284 1169 303 1152 q 265 1216 265 1186 q 284 1264 265 1247 q 337 1282 303 1282 q 389 1264 370 1282 q 408 1216 408 1247 q 389 1169 408 1186 q 337 1152 370 1152 m 662 1152 q 610 1169 628 1152 q 591 1216 591 1186 q 610 1264 591 1247 q 662 1282 628 1282 q 714 1264 695 1282 q 733 1216 733 1247 q 715 1169 733 1186 q 662 1152 696 1152 m 287 1367 l 287 1443 l 712 1443 l 712 1367 l 287 1367 z "},"Ȱ":{"ha":999,"x_min":73,"x_max":926,"o":"m 499 -13 q 186 116 299 -13 q 73 514 73 245 q 125 813 73 695 q 273 985 178 930 q 499 1041 369 1041 q 813 912 700 1041 q 926 514 926 783 q 873 216 926 333 q 726 42 821 98 q 499 -13 631 -13 m 499 84 q 728 184 648 84 q 809 510 809 285 q 728 842 809 741 q 499 944 648 944 q 270 843 351 944 q 190 517 190 743 q 270 185 190 287 q 499 84 351 84 m 499 1152 q 443 1169 463 1152 q 422 1216 422 1185 q 443 1264 422 1247 q 499 1282 463 1282 q 556 1264 535 1282 q 576 1216 576 1247 q 556 1169 576 1185 q 499 1152 535 1152 m 287 1367 l 287 1443 l 712 1443 l 712 1367 l 287 1367 z "},"Ọ":{"ha":999,"x_min":73,"x_max":926,"o":"m 499 -13 q 186 116 299 -13 q 73 514 73 245 q 125 813 73 695 q 273 985 178 930 q 499 1041 369 1041 q 813 912 700 1041 q 926 514 926 783 q 873 216 926 333 q 726 42 821 98 q 499 -13 631 -13 m 499 84 q 728 184 648 84 q 809 510 809 285 q 728 842 809 741 q 499 944 648 944 q 270 843 351 944 q 190 517 190 743 q 270 185 190 287 q 499 84 351 84 m 499 -243 q 443 -226 463 -243 q 422 -178 422 -209 q 443 -131 422 -148 q 499 -113 463 -113 q 556 -131 535 -113 q 576 -178 576 -148 q 556 -226 576 -209 q 499 -243 535 -243 z "},"Ò":{"ha":999,"x_min":73,"x_max":926,"o":"m 499 -13 q 186 116 299 -13 q 73 514 73 245 q 125 813 73 695 q 273 985 178 930 q 499 1041 369 1041 q 813 912 700 1041 q 926 514 926 783 q 873 216 926 333 q 726 42 821 98 q 499 -13 631 -13 m 499 84 q 728 184 648 84 q 809 510 809 285 q 728 842 809 741 q 499 944 648 944 q 270 843 351 944 q 190 517 190 743 q 270 185 190 287 q 499 84 351 84 m 449 1117 l 306 1314 l 426 1314 l 550 1117 l 449 1117 z "},"Ỏ":{"ha":999,"x_min":73,"x_max":926,"o":"m 499 -13 q 186 116 299 -13 q 73 514 73 245 q 125 813 73 695 q 273 985 178 930 q 499 1041 369 1041 q 813 912 700 1041 q 926 514 926 783 q 873 216 926 333 q 726 42 821 98 q 499 -13 631 -13 m 499 84 q 728 184 648 84 q 809 510 809 285 q 728 842 809 741 q 499 944 648 944 q 270 843 351 944 q 190 517 190 743 q 270 185 190 287 q 499 84 351 84 m 465 1117 q 484 1161 466 1146 q 535 1192 503 1177 q 569 1210 558 1201 q 581 1231 581 1218 q 563 1256 581 1247 q 500 1264 544 1264 q 364 1242 430 1264 l 364 1297 q 429 1313 392 1307 q 506 1319 467 1319 q 614 1297 578 1319 q 650 1238 650 1276 q 641 1205 650 1218 q 620 1184 632 1192 q 586 1165 608 1176 q 548 1143 560 1153 q 533 1117 535 1133 l 465 1117 z "},"Ơ":{"ha":999,"x_min":73,"x_max":929,"o":"m 766 958 q 885 786 844 897 q 926 514 926 676 q 813 115 926 244 q 499 -13 701 -13 q 186 116 299 -13 q 73 514 73 245 q 125 813 73 695 q 273 985 178 930 q 499 1041 369 1041 q 606 1033 540 1041 q 644 1028 613 1032 q 710 1025 676 1025 q 844 1135 844 1025 q 841 1183 844 1160 q 829 1233 837 1206 l 913 1233 q 925 1184 922 1208 q 929 1131 929 1160 q 886 1011 929 1055 q 766 958 843 967 m 499 84 q 728 184 648 84 q 809 510 809 285 q 728 842 809 741 q 499 944 648 944 q 270 843 351 944 q 190 517 190 743 q 270 185 190 287 q 499 84 351 84 z "},"Ớ":{"ha":999,"x_min":73,"x_max":929,"o":"m 766 958 q 885 786 844 897 q 926 514 926 676 q 813 115 926 244 q 499 -13 701 -13 q 186 116 299 -13 q 73 514 73 245 q 125 813 73 695 q 273 985 178 930 q 499 1041 369 1041 q 606 1033 540 1041 q 644 1028 613 1032 q 710 1025 676 1025 q 844 1135 844 1025 q 841 1183 844 1160 q 829 1233 837 1206 l 913 1233 q 925 1184 922 1208 q 929 1131 929 1160 q 886 1011 929 1055 q 766 958 843 967 m 499 84 q 728 184 648 84 q 809 510 809 285 q 728 842 809 741 q 499 944 648 944 q 270 843 351 944 q 190 517 190 743 q 270 185 190 287 q 499 84 351 84 m 448 1117 l 572 1314 l 692 1314 l 550 1117 l 448 1117 z "},"Ợ":{"ha":999,"x_min":73,"x_max":929,"o":"m 766 958 q 885 786 844 897 q 926 514 926 676 q 813 115 926 244 q 499 -13 701 -13 q 186 116 299 -13 q 73 514 73 245 q 125 813 73 695 q 273 985 178 930 q 499 1041 369 1041 q 606 1033 540 1041 q 644 1028 613 1032 q 710 1025 676 1025 q 844 1135 844 1025 q 841 1183 844 1160 q 829 1233 837 1206 l 913 1233 q 925 1184 922 1208 q 929 1131 929 1160 q 886 1011 929 1055 q 766 958 843 967 m 499 84 q 728 184 648 84 q 809 510 809 285 q 728 842 809 741 q 499 944 648 944 q 270 843 351 944 q 190 517 190 743 q 270 185 190 287 q 499 84 351 84 m 499 -243 q 443 -226 463 -243 q 422 -178 422 -209 q 443 -131 422 -148 q 499 -113 463 -113 q 556 -131 535 -113 q 576 -178 576 -148 q 556 -226 576 -209 q 499 -243 535 -243 z "},"Ờ":{"ha":999,"x_min":73,"x_max":929,"o":"m 766 958 q 885 786 844 897 q 926 514 926 676 q 813 115 926 244 q 499 -13 701 -13 q 186 116 299 -13 q 73 514 73 245 q 125 813 73 695 q 273 985 178 930 q 499 1041 369 1041 q 606 1033 540 1041 q 644 1028 613 1032 q 710 1025 676 1025 q 844 1135 844 1025 q 841 1183 844 1160 q 829 1233 837 1206 l 913 1233 q 925 1184 922 1208 q 929 1131 929 1160 q 886 1011 929 1055 q 766 958 843 967 m 499 84 q 728 184 648 84 q 809 510 809 285 q 728 842 809 741 q 499 944 648 944 q 270 843 351 944 q 190 517 190 743 q 270 185 190 287 q 499 84 351 84 m 449 1117 l 306 1314 l 426 1314 l 550 1117 l 449 1117 z "},"Ở":{"ha":999,"x_min":73,"x_max":929,"o":"m 766 958 q 885 786 844 897 q 926 514 926 676 q 813 115 926 244 q 499 -13 701 -13 q 186 116 299 -13 q 73 514 73 245 q 125 813 73 695 q 273 985 178 930 q 499 1041 369 1041 q 606 1033 540 1041 q 644 1028 613 1032 q 710 1025 676 1025 q 844 1135 844 1025 q 841 1183 844 1160 q 829 1233 837 1206 l 913 1233 q 925 1184 922 1208 q 929 1131 929 1160 q 886 1011 929 1055 q 766 958 843 967 m 499 84 q 728 184 648 84 q 809 510 809 285 q 728 842 809 741 q 499 944 648 944 q 270 843 351 944 q 190 517 190 743 q 270 185 190 287 q 499 84 351 84 m 465 1117 q 484 1161 466 1146 q 535 1192 503 1177 q 569 1210 558 1201 q 581 1231 581 1218 q 563 1256 581 1247 q 500 1264 544 1264 q 364 1242 430 1264 l 364 1297 q 429 1313 392 1307 q 506 1319 467 1319 q 614 1297 578 1319 q 650 1238 650 1276 q 641 1205 650 1218 q 620 1184 632 1192 q 586 1165 608 1176 q 548 1143 560 1153 q 533 1117 535 1133 l 465 1117 z "},"Ỡ":{"ha":999,"x_min":73,"x_max":929,"o":"m 606 1158 q 550 1166 576 1158 q 489 1187 524 1173 q 437 1205 458 1199 q 393 1211 415 1211 q 330 1199 357 1211 q 276 1162 302 1188 l 276 1239 q 394 1284 319 1284 q 448 1277 423 1284 q 510 1256 474 1269 q 564 1236 544 1242 q 606 1231 584 1231 q 670 1242 642 1231 q 724 1280 697 1254 l 724 1203 q 606 1158 681 1158 m 766 958 q 885 786 844 897 q 926 514 926 676 q 813 115 926 244 q 499 -13 701 -13 q 186 116 299 -13 q 73 514 73 245 q 125 813 73 695 q 273 985 178 930 q 499 1041 369 1041 q 606 1033 540 1041 q 644 1028 613 1032 q 710 1025 676 1025 q 844 1135 844 1025 q 841 1183 844 1160 q 829 1233 837 1206 l 913 1233 q 925 1184 922 1208 q 929 1131 929 1160 q 886 1011 929 1055 q 766 958 843 967 m 499 84 q 728 184 648 84 q 809 510 809 285 q 728 842 809 741 q 499 944 648 944 q 270 843 351 944 q 190 517 190 743 q 270 185 190 287 q 499 84 351 84 z "},"Ő":{"ha":999,"x_min":73,"x_max":926,"o":"m 499 -13 q 186 116 299 -13 q 73 514 73 245 q 125 813 73 695 q 273 985 178 930 q 499 1041 369 1041 q 813 912 700 1041 q 926 514 926 783 q 873 216 926 333 q 726 42 821 98 q 499 -13 631 -13 m 499 84 q 728 184 648 84 q 809 510 809 285 q 728 842 809 741 q 499 944 648 944 q 270 843 351 944 q 190 517 190 743 q 270 185 190 287 q 499 84 351 84 m 339 1117 l 428 1314 l 522 1314 l 426 1117 l 339 1117 m 572 1117 l 662 1314 l 756 1314 l 660 1117 l 572 1117 z "},"Ȏ":{"ha":999,"x_min":73,"x_max":926,"o":"m 499 -13 q 186 116 299 -13 q 73 514 73 245 q 125 813 73 695 q 273 985 178 930 q 499 1041 369 1041 q 813 912 700 1041 q 926 514 926 783 q 873 216 926 333 q 726 42 821 98 q 499 -13 631 -13 m 499 84 q 728 184 648 84 q 809 510 809 285 q 728 842 809 741 q 499 944 648 944 q 270 843 351 944 q 190 517 190 743 q 270 185 190 287 q 499 84 351 84 m 278 1131 q 341 1261 286 1215 q 498 1308 397 1308 q 656 1261 600 1308 q 721 1131 713 1214 l 645 1131 q 602 1215 637 1188 q 498 1242 568 1242 q 394 1215 428 1242 q 353 1131 360 1188 l 278 1131 z "},"Ō":{"ha":999,"x_min":73,"x_max":926,"o":"m 499 -13 q 186 116 299 -13 q 73 514 73 245 q 125 813 73 695 q 273 985 178 930 q 499 1041 369 1041 q 813 912 700 1041 q 926 514 926 783 q 873 216 926 333 q 726 42 821 98 q 499 -13 631 -13 m 499 84 q 728 184 648 84 q 809 510 809 285 q 728 842 809 741 q 499 944 648 944 q 270 843 351 944 q 190 517 190 743 q 270 185 190 287 q 499 84 351 84 m 287 1178 l 287 1253 l 712 1253 l 712 1178 l 287 1178 z "},"Ṓ":{"ha":999,"x_min":73,"x_max":926,"o":"m 499 -13 q 186 116 299 -13 q 73 514 73 245 q 125 813 73 695 q 273 985 178 930 q 499 1041 369 1041 q 813 912 700 1041 q 926 514 926 783 q 873 216 926 333 q 726 42 821 98 q 499 -13 631 -13 m 499 84 q 728 184 648 84 q 809 510 809 285 q 728 842 809 741 q 499 944 648 944 q 270 843 351 944 q 190 517 190 743 q 270 185 190 287 q 499 84 351 84 m 444 1327 l 567 1488 l 697 1488 l 555 1327 l 444 1327 m 287 1178 l 287 1253 l 712 1253 l 712 1178 l 287 1178 z "},"Ṑ":{"ha":999,"x_min":73,"x_max":926,"o":"m 499 -13 q 186 116 299 -13 q 73 514 73 245 q 125 813 73 695 q 273 985 178 930 q 499 1041 369 1041 q 813 912 700 1041 q 926 514 926 783 q 873 216 926 333 q 726 42 821 98 q 499 -13 631 -13 m 499 84 q 728 184 648 84 q 809 510 809 285 q 728 842 809 741 q 499 944 648 944 q 270 843 351 944 q 190 517 190 743 q 270 185 190 287 q 499 84 351 84 m 444 1327 l 302 1488 l 431 1488 l 554 1327 l 444 1327 m 287 1178 l 287 1253 l 712 1253 l 712 1178 l 287 1178 z "},"Ǫ":{"ha":999,"x_min":73,"x_max":926,"o":"m 656 10 q 518 -65 559 -24 q 478 -155 478 -106 q 503 -213 478 -193 q 580 -233 529 -233 q 631 -227 605 -233 q 692 -208 657 -222 l 692 -263 q 571 -289 632 -289 q 449 -256 491 -289 q 406 -161 406 -222 q 428 -81 406 -117 q 498 -13 449 -44 q 185 117 297 -12 q 73 514 73 246 q 125 813 73 695 q 273 985 178 930 q 499 1041 369 1041 q 813 913 700 1041 q 926 514 926 784 q 853 176 926 299 q 656 10 781 54 m 190 517 q 270 185 190 287 q 499 84 351 84 q 728 184 648 84 q 809 510 809 285 q 728 842 809 741 q 499 944 648 944 q 270 843 351 944 q 190 517 190 743 z "},"Ø":{"ha":999,"x_min":73,"x_max":926,"o":"m 826 895 q 926 514 926 761 q 873 216 926 333 q 726 42 821 98 q 499 -13 631 -13 q 221 80 326 -13 l 147 -19 l 90 23 l 172 133 q 73 514 73 267 q 125 813 73 695 q 273 985 178 930 q 499 1041 369 1041 q 777 948 673 1041 l 851 1047 l 908 1005 l 826 895 m 190 517 q 243 229 190 333 l 713 861 q 499 944 637 944 q 270 843 351 944 q 190 517 190 743 m 499 84 q 728 184 648 84 q 809 510 809 285 q 755 799 809 694 l 285 167 q 499 84 361 84 z "},"Ǿ":{"ha":999,"x_min":73,"x_max":926,"o":"m 826 895 q 926 514 926 761 q 873 216 926 333 q 726 42 821 98 q 499 -13 631 -13 q 221 80 326 -13 l 147 -19 l 90 23 l 172 133 q 73 514 73 267 q 125 813 73 695 q 273 985 178 930 q 499 1041 369 1041 q 777 948 673 1041 l 851 1047 l 908 1005 l 826 895 m 190 517 q 243 229 190 333 l 713 861 q 499 944 637 944 q 270 843 351 944 q 190 517 190 743 m 499 84 q 728 184 648 84 q 809 510 809 285 q 755 799 809 694 l 285 167 q 499 84 361 84 m 446 1117 l 569 1314 l 690 1314 l 548 1117 l 446 1117 z "},"Õ":{"ha":999,"x_min":73,"x_max":926,"o":"m 499 -13 q 186 116 299 -13 q 73 514 73 245 q 125 813 73 695 q 273 985 178 930 q 499 1041 369 1041 q 813 912 700 1041 q 926 514 926 783 q 873 216 926 333 q 726 42 821 98 q 499 -13 631 -13 m 499 84 q 728 184 648 84 q 809 510 809 285 q 728 842 809 741 q 499 944 648 944 q 270 843 351 944 q 190 517 190 743 q 270 185 190 287 q 499 84 351 84 m 606 1158 q 552 1165 577 1158 q 489 1186 528 1172 q 435 1205 458 1199 q 390 1211 413 1211 q 326 1199 353 1211 q 272 1162 298 1188 l 272 1239 q 392 1284 315 1284 q 447 1277 422 1284 q 510 1256 473 1269 q 563 1237 541 1243 q 608 1231 585 1231 q 672 1242 644 1231 q 727 1280 700 1254 l 727 1203 q 676 1169 705 1181 q 606 1158 647 1158 z "},"Ṍ":{"ha":999,"x_min":73,"x_max":926,"o":"m 499 -13 q 186 116 299 -13 q 73 514 73 245 q 125 813 73 695 q 273 985 178 930 q 499 1041 369 1041 q 813 912 700 1041 q 926 514 926 783 q 873 216 926 333 q 726 42 821 98 q 499 -13 631 -13 m 499 84 q 728 184 648 84 q 809 510 809 285 q 728 842 809 741 q 499 944 648 944 q 270 843 351 944 q 190 517 190 743 q 270 185 190 287 q 499 84 351 84 m 444 1327 l 567 1488 l 697 1488 l 555 1327 l 444 1327 m 606 1158 q 552 1165 577 1158 q 489 1186 528 1172 q 435 1205 458 1199 q 390 1211 413 1211 q 326 1199 353 1211 q 272 1162 298 1188 l 272 1239 q 392 1284 315 1284 q 447 1277 422 1284 q 510 1256 473 1269 q 563 1237 541 1243 q 608 1231 585 1231 q 672 1242 644 1231 q 727 1280 700 1254 l 727 1203 q 676 1169 705 1181 q 606 1158 647 1158 z "},"Ṏ":{"ha":999,"x_min":73,"x_max":926,"o":"m 499 -13 q 186 116 299 -13 q 73 514 73 245 q 125 813 73 695 q 273 985 178 930 q 499 1041 369 1041 q 813 912 700 1041 q 926 514 926 783 q 873 216 926 333 q 726 42 821 98 q 499 -13 631 -13 m 499 84 q 728 184 648 84 q 809 510 809 285 q 728 842 809 741 q 499 944 648 944 q 270 843 351 944 q 190 517 190 743 q 270 185 190 287 q 499 84 351 84 m 606 1158 q 552 1165 577 1158 q 489 1186 528 1172 q 435 1205 458 1199 q 390 1211 413 1211 q 326 1199 353 1211 q 272 1162 298 1188 l 272 1239 q 392 1284 315 1284 q 447 1277 422 1284 q 510 1256 473 1269 q 563 1237 541 1243 q 608 1231 585 1231 q 672 1242 644 1231 q 727 1280 700 1254 l 727 1203 q 676 1169 705 1181 q 606 1158 647 1158 m 337 1342 q 284 1359 303 1342 q 265 1406 265 1376 q 284 1454 265 1436 q 337 1472 303 1472 q 389 1454 370 1472 q 408 1406 408 1436 q 389 1359 408 1376 q 337 1342 370 1342 m 662 1342 q 610 1359 628 1342 q 591 1406 591 1376 q 610 1454 591 1436 q 662 1472 628 1472 q 714 1454 695 1472 q 733 1406 733 1436 q 715 1359 733 1376 q 662 1342 696 1342 z "},"Ȭ":{"ha":999,"x_min":73,"x_max":926,"o":"m 499 -13 q 186 116 299 -13 q 73 514 73 245 q 125 813 73 695 q 273 985 178 930 q 499 1041 369 1041 q 813 912 700 1041 q 926 514 926 783 q 873 216 926 333 q 726 42 821 98 q 499 -13 631 -13 m 499 84 q 728 184 648 84 q 809 510 809 285 q 728 842 809 741 q 499 944 648 944 q 270 843 351 944 q 190 517 190 743 q 270 185 190 287 q 499 84 351 84 m 606 1158 q 552 1165 577 1158 q 489 1186 528 1172 q 435 1205 458 1199 q 390 1211 413 1211 q 326 1199 353 1211 q 272 1162 298 1188 l 272 1239 q 392 1284 315 1284 q 447 1277 422 1284 q 510 1256 473 1269 q 563 1237 541 1243 q 608 1231 585 1231 q 672 1242 644 1231 q 727 1280 700 1254 l 727 1203 q 676 1169 705 1181 q 606 1158 647 1158 m 287 1367 l 287 1443 l 712 1443 l 712 1367 l 287 1367 z "},"Œ":{"ha":1394,"x_min":73,"x_max":1344,"o":"m 1344 96 l 1344 0 l 808 0 q 713 -3 770 0 q 595 -7 617 -7 q 203 120 334 -7 q 73 514 73 247 q 203 907 73 778 q 587 1037 334 1037 q 657 1035 619 1037 q 703 1032 694 1033 q 801 1028 773 1028 l 1337 1028 l 1337 932 l 835 932 l 835 575 l 1269 575 l 1269 480 l 835 480 l 835 96 l 1344 96 m 724 932 q 573 940 656 940 q 284 838 379 940 q 190 514 190 735 q 286 190 190 292 q 578 89 383 89 q 724 95 665 89 l 724 932 z "},"P":{"ha":856,"x_min":117,"x_max":794,"o":"m 117 1013 q 381 1039 258 1039 q 690 953 587 1039 q 794 688 794 868 q 688 426 794 515 q 365 337 583 337 q 230 343 301 337 l 230 0 l 117 0 l 117 1013 m 367 428 q 607 491 532 428 q 682 686 682 553 q 610 884 682 822 q 389 947 538 947 q 230 934 303 947 l 230 437 q 367 428 297 428 z "},"Þ":{"ha":863,"x_min":117,"x_max":794,"o":"m 117 1028 l 230 1028 l 230 867 q 383 878 306 878 q 691 793 588 878 q 794 528 794 708 q 689 266 794 354 q 366 177 583 177 q 230 183 302 177 l 230 0 l 117 0 l 117 1028 m 367 269 q 607 331 532 269 q 682 526 682 394 q 610 724 682 662 q 389 787 538 787 q 230 774 303 787 l 230 277 q 367 269 289 269 z "},"Q":{"ha":999,"x_min":73,"x_max":926,"o":"m 926 514 q 832 142 926 274 q 556 -3 738 10 q 909 -66 705 -47 l 891 -160 q 398 -42 575 -121 q 147 169 221 37 q 73 513 73 301 q 186 911 73 782 q 499 1041 300 1041 q 813 913 700 1041 q 926 514 926 784 m 190 517 q 270 185 190 286 q 499 84 350 84 q 728 184 648 84 q 809 510 809 285 q 728 842 809 741 q 499 944 648 944 q 270 843 351 944 q 190 517 190 743 z "},"R":{"ha":908,"x_min":117,"x_max":872,"o":"m 746 0 l 426 426 q 372 424 392 424 q 228 430 302 424 l 228 0 l 117 0 l 117 1011 q 392 1039 260 1039 q 694 965 596 1039 q 793 734 793 890 q 730 542 794 615 q 540 440 665 468 l 872 0 l 746 0 m 228 522 q 301 516 271 517 q 372 515 331 515 q 611 567 536 515 q 686 733 686 620 q 656 857 686 810 q 563 926 626 904 q 399 948 500 948 q 310 944 349 948 q 228 933 272 941 l 228 522 z "},"Ŕ":{"ha":908,"x_min":117,"x_max":872,"o":"m 746 0 l 426 426 q 372 424 392 424 q 228 430 302 424 l 228 0 l 117 0 l 117 1011 q 392 1039 260 1039 q 694 965 596 1039 q 793 734 793 890 q 730 542 794 615 q 540 440 665 468 l 872 0 l 746 0 m 228 522 q 301 516 271 517 q 372 515 331 515 q 611 567 536 515 q 686 733 686 620 q 656 857 686 810 q 563 926 626 904 q 399 948 500 948 q 310 944 349 948 q 228 933 272 941 l 228 522 m 386 1117 l 510 1314 l 630 1314 l 488 1117 l 386 1117 z "},"Ř":{"ha":908,"x_min":117,"x_max":872,"o":"m 746 0 l 426 426 q 372 424 392 424 q 228 430 302 424 l 228 0 l 117 0 l 117 1011 q 392 1039 260 1039 q 694 965 596 1039 q 793 734 793 890 q 730 542 794 615 q 540 440 665 468 l 872 0 l 746 0 m 228 522 q 301 516 271 517 q 372 515 331 515 q 611 567 536 515 q 686 733 686 620 q 656 857 686 810 q 563 926 626 904 q 399 948 500 948 q 310 944 349 948 q 228 933 272 941 l 228 522 m 562 1314 l 659 1314 l 489 1117 l 386 1117 l 216 1314 l 313 1314 l 438 1165 l 562 1314 z "},"Ŗ":{"ha":908,"x_min":117,"x_max":872,"o":"m 746 0 l 426 426 q 372 424 392 424 q 228 430 302 424 l 228 0 l 117 0 l 117 1011 q 392 1039 260 1039 q 694 965 596 1039 q 793 734 793 890 q 730 542 794 615 q 540 440 665 468 l 872 0 l 746 0 m 228 522 q 301 516 271 517 q 372 515 331 515 q 611 567 536 515 q 686 733 686 620 q 656 857 686 810 q 563 926 626 904 q 399 948 500 948 q 310 944 349 948 q 228 933 272 941 l 228 522 m 472 -113 q 528 -133 509 -113 q 547 -190 547 -152 q 536 -256 547 -219 q 508 -324 526 -292 l 438 -324 q 467 -226 462 -269 q 418 -210 435 -225 q 401 -169 401 -194 q 420 -128 401 -143 q 472 -113 438 -113 z "},"Ȑ":{"ha":908,"x_min":117,"x_max":872,"o":"m 746 0 l 426 426 q 372 424 392 424 q 228 430 302 424 l 228 0 l 117 0 l 117 1011 q 392 1039 260 1039 q 694 965 596 1039 q 793 734 793 890 q 730 542 794 615 q 540 440 665 468 l 872 0 l 746 0 m 228 522 q 301 516 271 517 q 372 515 331 515 q 611 567 536 515 q 686 733 686 620 q 656 857 686 810 q 563 926 626 904 q 399 948 500 948 q 310 944 349 948 q 228 933 272 941 l 228 522 m 277 1117 l 181 1314 l 275 1314 l 365 1117 l 277 1117 m 510 1117 l 415 1314 l 509 1314 l 598 1117 l 510 1117 z "},"Ṛ":{"ha":908,"x_min":117,"x_max":872,"o":"m 746 0 l 426 426 q 372 424 392 424 q 228 430 302 424 l 228 0 l 117 0 l 117 1011 q 392 1039 260 1039 q 694 965 596 1039 q 793 734 793 890 q 730 542 794 615 q 540 440 665 468 l 872 0 l 746 0 m 228 522 q 301 516 271 517 q 372 515 331 515 q 611 567 536 515 q 686 733 686 620 q 656 857 686 810 q 563 926 626 904 q 399 948 500 948 q 310 944 349 948 q 228 933 272 941 l 228 522 m 474 -243 q 418 -226 438 -243 q 397 -178 397 -209 q 418 -131 397 -148 q 474 -113 438 -113 q 531 -131 510 -113 q 551 -178 551 -148 q 531 -226 551 -209 q 474 -243 510 -243 z "},"Ȓ":{"ha":908,"x_min":117,"x_max":872,"o":"m 746 0 l 426 426 q 372 424 392 424 q 228 430 302 424 l 228 0 l 117 0 l 117 1011 q 392 1039 260 1039 q 694 965 596 1039 q 793 734 793 890 q 730 542 794 615 q 540 440 665 468 l 872 0 l 746 0 m 228 522 q 301 516 271 517 q 372 515 331 515 q 611 567 536 515 q 686 733 686 620 q 656 857 686 810 q 563 926 626 904 q 399 948 500 948 q 310 944 349 948 q 228 933 272 941 l 228 522 m 216 1131 q 280 1261 224 1215 q 436 1308 335 1308 q 594 1261 538 1308 q 659 1131 651 1214 l 583 1131 q 541 1215 575 1188 q 436 1242 506 1242 q 332 1215 366 1242 q 291 1131 299 1188 l 216 1131 z "},"Ṟ":{"ha":908,"x_min":117,"x_max":872,"o":"m 746 0 l 426 426 q 372 424 392 424 q 228 430 302 424 l 228 0 l 117 0 l 117 1011 q 392 1039 260 1039 q 694 965 596 1039 q 793 734 793 890 q 730 542 794 615 q 540 440 665 468 l 872 0 l 746 0 m 228 522 q 301 516 271 517 q 372 515 331 515 q 611 567 536 515 q 686 733 686 620 q 656 857 686 810 q 563 926 626 904 q 399 948 500 948 q 310 944 349 948 q 228 933 272 941 l 228 522 m 262 -215 l 262 -140 l 687 -140 l 687 -215 l 262 -215 z "},"S":{"ha":738,"x_min":51,"x_max":687,"o":"m 321 -13 q 192 -2 258 -13 q 67 28 126 8 l 67 126 q 195 94 130 104 q 322 83 261 83 q 573 272 573 83 q 552 359 573 324 q 488 418 532 394 q 368 461 444 442 l 313 476 q 116 577 181 510 q 51 756 51 645 q 93 909 51 844 q 216 1007 134 973 q 417 1041 297 1041 q 535 1033 477 1041 q 642 1010 594 1025 l 642 913 q 421 944 538 944 q 228 898 291 944 q 165 763 165 851 q 184 677 165 712 q 243 618 202 642 q 355 576 284 594 l 410 562 q 620 458 553 526 q 687 278 687 390 q 644 121 687 186 q 519 21 601 56 q 321 -13 437 -13 z "},"Ś":{"ha":738,"x_min":51,"x_max":687,"o":"m 321 -13 q 192 -2 258 -13 q 67 28 126 8 l 67 126 q 195 94 130 104 q 322 83 261 83 q 573 272 573 83 q 552 359 573 324 q 488 418 532 394 q 368 461 444 442 l 313 476 q 116 577 181 510 q 51 756 51 645 q 93 909 51 844 q 216 1007 134 973 q 417 1041 297 1041 q 535 1033 477 1041 q 642 1010 594 1025 l 642 913 q 421 944 538 944 q 228 898 291 944 q 165 763 165 851 q 184 677 165 712 q 243 618 202 642 q 355 576 284 594 l 410 562 q 620 458 553 526 q 687 278 687 390 q 644 121 687 186 q 519 21 601 56 q 321 -13 437 -13 m 324 1117 l 447 1314 l 567 1314 l 426 1117 l 324 1117 z "},"Ṥ":{"ha":738,"x_min":51,"x_max":687,"o":"m 321 -13 q 192 -2 258 -13 q 67 28 126 8 l 67 126 q 195 94 130 104 q 322 83 261 83 q 573 272 573 83 q 552 359 573 324 q 488 418 532 394 q 368 461 444 442 l 313 476 q 116 577 181 510 q 51 756 51 645 q 93 909 51 844 q 216 1007 134 973 q 417 1041 297 1041 q 535 1033 477 1041 q 642 1010 594 1025 l 642 913 q 421 944 538 944 q 228 898 291 944 q 165 763 165 851 q 184 677 165 712 q 243 618 202 642 q 355 576 284 594 l 410 562 q 620 458 553 526 q 687 278 687 390 q 644 121 687 186 q 519 21 601 56 q 321 -13 437 -13 m 300 1286 q 250 1301 268 1286 q 232 1344 232 1317 q 250 1387 232 1371 q 300 1403 268 1403 q 350 1387 332 1403 q 368 1344 368 1371 q 350 1301 368 1317 q 300 1286 332 1286 m 324 1117 l 447 1314 l 567 1314 l 426 1117 l 324 1117 z "},"Š":{"ha":738,"x_min":51,"x_max":687,"o":"m 321 -13 q 192 -2 258 -13 q 67 28 126 8 l 67 126 q 195 94 130 104 q 322 83 261 83 q 573 272 573 83 q 552 359 573 324 q 488 418 532 394 q 368 461 444 442 l 313 476 q 116 577 181 510 q 51 756 51 645 q 93 909 51 844 q 216 1007 134 973 q 417 1041 297 1041 q 535 1033 477 1041 q 642 1010 594 1025 l 642 913 q 421 944 538 944 q 228 898 291 944 q 165 763 165 851 q 184 677 165 712 q 243 618 202 642 q 355 576 284 594 l 410 562 q 620 458 553 526 q 687 278 687 390 q 644 121 687 186 q 519 21 601 56 q 321 -13 437 -13 m 499 1314 l 597 1314 l 426 1117 l 324 1117 l 153 1314 l 251 1314 l 375 1165 l 499 1314 z "},"Ṧ":{"ha":738,"x_min":51,"x_max":687,"o":"m 321 -13 q 192 -2 258 -13 q 67 28 126 8 l 67 126 q 195 94 130 104 q 322 83 261 83 q 573 272 573 83 q 552 359 573 324 q 488 418 532 394 q 368 461 444 442 l 313 476 q 116 577 181 510 q 51 756 51 645 q 93 909 51 844 q 216 1007 134 973 q 417 1041 297 1041 q 535 1033 477 1041 q 642 1010 594 1025 l 642 913 q 421 944 538 944 q 228 898 291 944 q 165 763 165 851 q 184 677 165 712 q 243 618 202 642 q 355 576 284 594 l 410 562 q 620 458 553 526 q 687 278 687 390 q 644 121 687 186 q 519 21 601 56 q 321 -13 437 -13 m 375 1321 q 325 1336 343 1321 q 307 1378 307 1351 q 325 1422 307 1406 q 375 1438 343 1438 q 425 1422 407 1438 q 443 1378 443 1406 q 425 1336 443 1351 q 375 1321 407 1321 m 499 1314 l 597 1314 l 426 1117 l 324 1117 l 153 1314 l 251 1314 l 375 1165 l 499 1314 z "},"Ş":{"ha":738,"x_min":51,"x_max":687,"o":"m 687 278 q 613 83 687 157 q 402 -8 539 8 l 402 -71 q 493 -103 461 -76 q 526 -178 526 -131 q 486 -260 526 -232 q 372 -289 446 -289 q 302 -282 338 -289 q 238 -263 267 -276 l 238 -207 q 368 -234 303 -234 q 458 -176 458 -234 q 367 -117 458 -117 l 338 -117 l 338 -13 l 321 -13 q 192 -2 258 -13 q 67 28 126 8 l 67 126 q 195 94 130 104 q 322 83 261 83 q 573 272 573 83 q 552 359 573 324 q 488 418 532 394 q 368 461 444 442 l 313 476 q 116 577 181 510 q 51 756 51 645 q 93 909 51 844 q 216 1007 134 973 q 417 1041 297 1041 q 535 1033 477 1041 q 642 1010 594 1025 l 642 913 q 421 944 538 944 q 228 898 291 944 q 165 763 165 851 q 184 677 165 712 q 243 618 202 642 q 355 576 284 594 l 410 562 q 620 458 553 526 q 687 278 687 390 z "},"Ŝ":{"ha":738,"x_min":51,"x_max":687,"o":"m 321 -13 q 192 -2 258 -13 q 67 28 126 8 l 67 126 q 195 94 130 104 q 322 83 261 83 q 573 272 573 83 q 552 359 573 324 q 488 418 532 394 q 368 461 444 442 l 313 476 q 116 577 181 510 q 51 756 51 645 q 93 909 51 844 q 216 1007 134 973 q 417 1041 297 1041 q 535 1033 477 1041 q 642 1010 594 1025 l 642 913 q 421 944 538 944 q 228 898 291 944 q 165 763 165 851 q 184 677 165 712 q 243 618 202 642 q 355 576 284 594 l 410 562 q 620 458 553 526 q 687 278 687 390 q 644 121 687 186 q 519 21 601 56 q 321 -13 437 -13 m 597 1117 l 499 1117 l 375 1265 l 251 1117 l 153 1117 l 324 1314 l 426 1314 l 597 1117 z "},"Ș":{"ha":738,"x_min":51,"x_max":687,"o":"m 321 -13 q 192 -2 258 -13 q 67 28 126 8 l 67 126 q 195 94 130 104 q 322 83 261 83 q 573 272 573 83 q 552 359 573 324 q 488 418 532 394 q 368 461 444 442 l 313 476 q 116 577 181 510 q 51 756 51 645 q 93 909 51 844 q 216 1007 134 973 q 417 1041 297 1041 q 535 1033 477 1041 q 642 1010 594 1025 l 642 913 q 421 944 538 944 q 228 898 291 944 q 165 763 165 851 q 184 677 165 712 q 243 618 202 642 q 355 576 284 594 l 410 562 q 620 458 553 526 q 687 278 687 390 q 644 121 687 186 q 519 21 601 56 q 321 -13 437 -13 m 373 -113 q 429 -133 410 -113 q 448 -190 448 -152 q 437 -256 448 -219 q 408 -324 426 -292 l 339 -324 q 368 -226 363 -269 q 319 -210 336 -225 q 302 -169 302 -194 q 320 -128 302 -143 q 373 -113 339 -113 z "},"Ṡ":{"ha":738,"x_min":51,"x_max":687,"o":"m 321 -13 q 192 -2 258 -13 q 67 28 126 8 l 67 126 q 195 94 130 104 q 322 83 261 83 q 573 272 573 83 q 552 359 573 324 q 488 418 532 394 q 368 461 444 442 l 313 476 q 116 577 181 510 q 51 756 51 645 q 93 909 51 844 q 216 1007 134 973 q 417 1041 297 1041 q 535 1033 477 1041 q 642 1010 594 1025 l 642 913 q 421 944 538 944 q 228 898 291 944 q 165 763 165 851 q 184 677 165 712 q 243 618 202 642 q 355 576 284 594 l 410 562 q 620 458 553 526 q 687 278 687 390 q 644 121 687 186 q 519 21 601 56 q 321 -13 437 -13 m 375 1152 q 318 1169 339 1152 q 298 1216 298 1185 q 318 1264 298 1247 q 375 1282 339 1282 q 432 1264 411 1282 q 452 1216 452 1247 q 432 1169 452 1185 q 375 1152 411 1152 z "},"Ṣ":{"ha":738,"x_min":51,"x_max":687,"o":"m 321 -13 q 192 -2 258 -13 q 67 28 126 8 l 67 126 q 195 94 130 104 q 322 83 261 83 q 573 272 573 83 q 552 359 573 324 q 488 418 532 394 q 368 461 444 442 l 313 476 q 116 577 181 510 q 51 756 51 645 q 93 909 51 844 q 216 1007 134 973 q 417 1041 297 1041 q 535 1033 477 1041 q 642 1010 594 1025 l 642 913 q 421 944 538 944 q 228 898 291 944 q 165 763 165 851 q 184 677 165 712 q 243 618 202 642 q 355 576 284 594 l 410 562 q 620 458 553 526 q 687 278 687 390 q 644 121 687 186 q 519 21 601 56 q 321 -13 437 -13 m 375 -243 q 318 -226 339 -243 q 298 -178 298 -209 q 318 -131 298 -148 q 375 -113 339 -113 q 432 -131 411 -113 q 452 -178 452 -148 q 432 -226 452 -209 q 375 -243 411 -243 z "},"Ṩ":{"ha":738,"x_min":51,"x_max":687,"o":"m 321 -13 q 192 -2 258 -13 q 67 28 126 8 l 67 126 q 195 94 130 104 q 322 83 261 83 q 573 272 573 83 q 552 359 573 324 q 488 418 532 394 q 368 461 444 442 l 313 476 q 116 577 181 510 q 51 756 51 645 q 93 909 51 844 q 216 1007 134 973 q 417 1041 297 1041 q 535 1033 477 1041 q 642 1010 594 1025 l 642 913 q 421 944 538 944 q 228 898 291 944 q 165 763 165 851 q 184 677 165 712 q 243 618 202 642 q 355 576 284 594 l 410 562 q 620 458 553 526 q 687 278 687 390 q 644 121 687 186 q 519 21 601 56 q 321 -13 437 -13 m 375 -243 q 318 -226 339 -243 q 298 -178 298 -209 q 318 -131 298 -148 q 375 -113 339 -113 q 432 -131 411 -113 q 452 -178 452 -148 q 432 -226 452 -209 q 375 -243 411 -243 m 375 1152 q 318 1169 339 1152 q 298 1216 298 1185 q 318 1264 298 1247 q 375 1282 339 1282 q 432 1264 411 1282 q 452 1216 452 1247 q 432 1169 452 1185 q 375 1152 411 1152 z "},"ẞ":{"ha":1177,"x_min":117,"x_max":1126,"o":"m 853 562 q 1060 458 994 526 q 1126 278 1126 390 q 1083 121 1126 186 q 959 21 1041 56 q 763 -13 878 -13 q 638 -3 703 -13 q 515 28 572 8 l 515 125 q 641 94 576 104 q 763 83 706 83 q 1013 272 1013 83 q 992 359 1013 324 q 929 418 972 394 q 812 461 886 442 l 757 476 q 563 577 626 510 q 499 756 499 645 q 562 938 499 869 q 489 945 530 945 q 292 878 355 945 q 230 667 230 810 l 230 0 l 117 0 l 117 651 q 208 945 117 849 q 489 1041 299 1041 q 669 1010 594 1041 q 863 1041 751 1041 q 977 1033 919 1041 q 1081 1010 1034 1025 l 1081 913 q 866 944 981 944 q 674 898 737 944 q 612 763 612 851 q 630 677 612 712 q 688 618 648 642 q 798 576 728 594 l 853 562 z "},"Ə":{"ha":994,"x_min":66,"x_max":922,"o":"m 400 1041 q 789 914 657 1041 q 922 510 922 786 q 809 115 922 243 q 498 -13 697 -13 q 180 114 294 -13 q 66 506 66 241 l 66 557 l 807 557 q 751 785 800 699 q 614 908 703 870 q 392 945 525 945 q 256 937 327 945 q 123 912 185 928 l 123 1009 q 400 1041 253 1041 m 499 81 q 722 171 642 81 q 808 467 801 260 l 183 467 q 226 242 188 327 q 332 119 264 157 q 499 81 400 81 z "},"T":{"ha":816,"x_min":10,"x_max":807,"o":"m 351 0 l 351 929 l 10 929 l 10 1028 l 807 1028 l 807 929 l 465 929 l 465 0 l 351 0 z "},"Ŧ":{"ha":816,"x_min":10,"x_max":807,"o":"m 807 929 l 465 929 l 465 577 l 690 577 l 690 498 l 465 498 l 465 0 l 351 0 l 351 498 l 127 498 l 127 577 l 351 577 l 351 929 l 10 929 l 10 1028 l 807 1028 l 807 929 z "},"Ť":{"ha":816,"x_min":10,"x_max":807,"o":"m 351 0 l 351 929 l 10 929 l 10 1028 l 807 1028 l 807 929 l 465 929 l 465 0 l 351 0 m 533 1314 l 630 1314 l 460 1117 l 357 1117 l 187 1314 l 284 1314 l 408 1165 l 533 1314 z "},"Ţ":{"ha":816,"x_min":10,"x_max":807,"o":"m 435 0 l 435 -71 q 527 -103 494 -76 q 559 -178 559 -131 q 519 -260 559 -232 q 406 -289 479 -289 q 336 -282 371 -289 q 272 -263 301 -276 l 272 -207 q 401 -234 337 -234 q 492 -176 492 -234 q 400 -117 492 -117 l 372 -117 l 372 0 l 351 0 l 351 929 l 10 929 l 10 1028 l 807 1028 l 807 929 l 465 929 l 465 0 l 435 0 z "},"Ț":{"ha":816,"x_min":10,"x_max":807,"o":"m 351 0 l 351 929 l 10 929 l 10 1028 l 807 1028 l 807 929 l 465 929 l 465 0 l 351 0 m 406 -113 q 462 -133 443 -113 q 481 -190 481 -152 q 470 -256 481 -219 q 442 -324 460 -292 l 372 -324 q 401 -226 396 -269 q 352 -210 369 -225 q 335 -169 335 -194 q 354 -128 335 -143 q 406 -113 372 -113 z "},"Ṭ":{"ha":816,"x_min":10,"x_max":807,"o":"m 351 0 l 351 929 l 10 929 l 10 1028 l 807 1028 l 807 929 l 465 929 l 465 0 l 351 0 m 408 -243 q 352 -226 372 -243 q 331 -178 331 -209 q 352 -131 331 -148 q 408 -113 372 -113 q 465 -131 444 -113 q 485 -178 485 -148 q 465 -226 485 -209 q 408 -243 444 -243 z "},"Ṯ":{"ha":816,"x_min":10,"x_max":807,"o":"m 351 0 l 351 929 l 10 929 l 10 1028 l 807 1028 l 807 929 l 465 929 l 465 0 l 351 0 m 196 -215 l 196 -140 l 621 -140 l 621 -215 l 196 -215 z "},"U":{"ha":984,"x_min":113,"x_max":872,"o":"m 493 -13 q 278 30 362 -13 q 153 161 194 73 q 113 389 113 250 l 113 1028 l 225 1028 l 225 376 q 290 154 225 224 q 493 84 354 84 q 697 154 632 84 q 761 376 761 224 l 761 1028 l 872 1028 l 872 389 q 831 161 872 250 q 708 30 791 73 q 493 -13 624 -13 z "},"Ú":{"ha":984,"x_min":113,"x_max":872,"o":"m 493 -13 q 278 30 362 -13 q 153 161 194 73 q 113 389 113 250 l 113 1028 l 225 1028 l 225 376 q 290 154 225 224 q 493 84 354 84 q 697 154 632 84 q 761 376 761 224 l 761 1028 l 872 1028 l 872 389 q 831 161 872 250 q 708 30 791 73 q 493 -13 624 -13 m 442 1117 l 565 1314 l 685 1314 l 544 1117 l 442 1117 z "},"Ŭ":{"ha":984,"x_min":113,"x_max":872,"o":"m 493 -13 q 278 30 362 -13 q 153 161 194 73 q 113 389 113 250 l 113 1028 l 225 1028 l 225 376 q 290 154 225 224 q 493 84 354 84 q 697 154 632 84 q 761 376 761 224 l 761 1028 l 872 1028 l 872 389 q 831 161 872 250 q 708 30 791 73 q 493 -13 624 -13 m 494 1123 q 336 1170 392 1123 q 272 1299 280 1217 l 347 1299 q 389 1216 355 1243 q 494 1189 424 1189 q 598 1216 564 1189 q 639 1299 632 1243 l 715 1299 q 651 1169 706 1216 q 494 1123 596 1123 z "},"Û":{"ha":984,"x_min":113,"x_max":872,"o":"m 493 -13 q 278 30 362 -13 q 153 161 194 73 q 113 389 113 250 l 113 1028 l 225 1028 l 225 376 q 290 154 225 224 q 493 84 354 84 q 697 154 632 84 q 761 376 761 224 l 761 1028 l 872 1028 l 872 389 q 831 161 872 250 q 708 30 791 73 q 493 -13 624 -13 m 715 1117 l 617 1117 l 493 1265 l 369 1117 l 272 1117 l 442 1314 l 544 1314 l 715 1117 z "},"Ȕ":{"ha":984,"x_min":113,"x_max":872,"o":"m 493 -13 q 278 30 362 -13 q 153 161 194 73 q 113 389 113 250 l 113 1028 l 225 1028 l 225 376 q 290 154 225 224 q 493 84 354 84 q 697 154 632 84 q 761 376 761 224 l 761 1028 l 872 1028 l 872 389 q 831 161 872 250 q 708 30 791 73 q 493 -13 624 -13 m 333 1117 l 236 1314 l 331 1314 l 420 1117 l 333 1117 m 566 1117 l 470 1314 l 565 1314 l 653 1117 l 566 1117 z "},"Ü":{"ha":984,"x_min":113,"x_max":872,"o":"m 493 -13 q 278 30 362 -13 q 153 161 194 73 q 113 389 113 250 l 113 1028 l 225 1028 l 225 376 q 290 154 225 224 q 493 84 354 84 q 697 154 632 84 q 761 376 761 224 l 761 1028 l 872 1028 l 872 389 q 831 161 872 250 q 708 30 791 73 q 493 -13 624 -13 m 331 1152 q 278 1169 297 1152 q 259 1216 259 1186 q 278 1264 259 1247 q 331 1282 297 1282 q 383 1264 364 1282 q 401 1216 401 1247 q 383 1169 401 1186 q 331 1152 364 1152 m 656 1152 q 603 1169 622 1152 q 585 1216 585 1186 q 603 1264 585 1247 q 656 1282 622 1282 q 708 1264 689 1282 q 727 1216 727 1247 q 708 1169 727 1186 q 656 1152 690 1152 z "},"Ụ":{"ha":984,"x_min":113,"x_max":872,"o":"m 493 -13 q 278 30 362 -13 q 153 161 194 73 q 113 389 113 250 l 113 1028 l 225 1028 l 225 376 q 290 154 225 224 q 493 84 354 84 q 697 154 632 84 q 761 376 761 224 l 761 1028 l 872 1028 l 872 389 q 831 161 872 250 q 708 30 791 73 q 493 -13 624 -13 m 493 -243 q 436 -226 457 -243 q 416 -178 416 -209 q 436 -131 416 -148 q 493 -113 457 -113 q 550 -131 529 -113 q 570 -178 570 -148 q 550 -226 570 -209 q 493 -243 529 -243 z "},"Ù":{"ha":984,"x_min":113,"x_max":872,"o":"m 493 -13 q 278 30 362 -13 q 153 161 194 73 q 113 389 113 250 l 113 1028 l 225 1028 l 225 376 q 290 154 225 224 q 493 84 354 84 q 697 154 632 84 q 761 376 761 224 l 761 1028 l 872 1028 l 872 389 q 831 161 872 250 q 708 30 791 73 q 493 -13 624 -13 m 442 1117 l 300 1314 l 420 1314 l 544 1117 l 442 1117 z "},"Ủ":{"ha":984,"x_min":113,"x_max":872,"o":"m 493 -13 q 278 30 362 -13 q 153 161 194 73 q 113 389 113 250 l 113 1028 l 225 1028 l 225 376 q 290 154 225 224 q 493 84 354 84 q 697 154 632 84 q 761 376 761 224 l 761 1028 l 872 1028 l 872 389 q 831 161 872 250 q 708 30 791 73 q 493 -13 624 -13 m 458 1117 q 478 1161 460 1146 q 529 1192 497 1177 q 563 1210 552 1201 q 574 1231 574 1218 q 556 1256 574 1247 q 494 1264 538 1264 q 358 1242 424 1264 l 358 1297 q 423 1313 385 1307 q 500 1319 460 1319 q 608 1297 572 1319 q 644 1238 644 1276 q 635 1205 644 1218 q 614 1184 626 1192 q 580 1165 601 1176 q 542 1143 554 1153 q 527 1117 529 1133 l 458 1117 z "},"Ư":{"ha":985,"x_min":113,"x_max":1022,"o":"m 493 -13 q 278 30 362 -13 q 153 161 194 73 q 113 389 113 250 l 113 1028 l 225 1028 l 225 376 q 290 154 225 224 q 493 84 354 84 q 697 154 632 84 q 761 376 761 224 l 761 1028 l 803 1028 q 903 1053 869 1028 q 938 1135 938 1079 q 934 1183 938 1160 q 922 1233 930 1206 l 1006 1233 q 1019 1185 1015 1208 q 1022 1131 1022 1161 q 982 1017 1022 1059 q 872 967 942 975 l 872 389 q 831 161 872 250 q 708 30 791 73 q 493 -13 624 -13 z "},"Ứ":{"ha":985,"x_min":113,"x_max":1022,"o":"m 493 -13 q 278 30 362 -13 q 153 161 194 73 q 113 389 113 250 l 113 1028 l 225 1028 l 225 376 q 290 154 225 224 q 493 84 354 84 q 697 154 632 84 q 761 376 761 224 l 761 1028 l 803 1028 q 903 1053 869 1028 q 938 1135 938 1079 q 934 1183 938 1160 q 922 1233 930 1206 l 1006 1233 q 1019 1185 1015 1208 q 1022 1131 1022 1161 q 982 1017 1022 1059 q 872 967 942 975 l 872 389 q 831 161 872 250 q 708 30 791 73 q 493 -13 624 -13 m 441 1117 l 565 1314 l 685 1314 l 543 1117 l 441 1117 z "},"Ự":{"ha":985,"x_min":113,"x_max":1022,"o":"m 493 -13 q 278 30 362 -13 q 153 161 194 73 q 113 389 113 250 l 113 1028 l 225 1028 l 225 376 q 290 154 225 224 q 493 84 354 84 q 697 154 632 84 q 761 376 761 224 l 761 1028 l 803 1028 q 903 1053 869 1028 q 938 1135 938 1079 q 934 1183 938 1160 q 922 1233 930 1206 l 1006 1233 q 1019 1185 1015 1208 q 1022 1131 1022 1161 q 982 1017 1022 1059 q 872 967 942 975 l 872 389 q 831 161 872 250 q 708 30 791 73 q 493 -13 624 -13 m 492 -243 q 436 -226 456 -243 q 415 -178 415 -209 q 436 -131 415 -148 q 492 -113 456 -113 q 549 -131 528 -113 q 569 -178 569 -148 q 549 -226 569 -209 q 492 -243 528 -243 z "},"Ừ":{"ha":985,"x_min":113,"x_max":1022,"o":"m 493 -13 q 278 30 362 -13 q 153 161 194 73 q 113 389 113 250 l 113 1028 l 225 1028 l 225 376 q 290 154 225 224 q 493 84 354 84 q 697 154 632 84 q 761 376 761 224 l 761 1028 l 803 1028 q 903 1053 869 1028 q 938 1135 938 1079 q 934 1183 938 1160 q 922 1233 930 1206 l 1006 1233 q 1019 1185 1015 1208 q 1022 1131 1022 1161 q 982 1017 1022 1059 q 872 967 942 975 l 872 389 q 831 161 872 250 q 708 30 791 73 q 493 -13 624 -13 m 442 1117 l 299 1314 l 419 1314 l 543 1117 l 442 1117 z "},"Ử":{"ha":985,"x_min":113,"x_max":1022,"o":"m 493 -13 q 278 30 362 -13 q 153 161 194 73 q 113 389 113 250 l 113 1028 l 225 1028 l 225 376 q 290 154 225 224 q 493 84 354 84 q 697 154 632 84 q 761 376 761 224 l 761 1028 l 803 1028 q 903 1053 869 1028 q 938 1135 938 1079 q 934 1183 938 1160 q 922 1233 930 1206 l 1006 1233 q 1019 1185 1015 1208 q 1022 1131 1022 1161 q 982 1017 1022 1059 q 872 967 942 975 l 872 389 q 831 161 872 250 q 708 30 791 73 q 493 -13 624 -13 m 458 1117 q 477 1161 459 1146 q 528 1192 496 1177 q 563 1210 551 1201 q 574 1231 574 1218 q 556 1256 574 1247 q 493 1264 538 1264 q 357 1242 423 1264 l 357 1297 q 422 1313 385 1307 q 499 1319 460 1319 q 607 1297 572 1319 q 643 1238 643 1276 q 634 1205 643 1218 q 613 1184 625 1192 q 579 1165 601 1176 q 541 1143 553 1153 q 526 1117 528 1133 l 458 1117 z "},"Ữ":{"ha":985,"x_min":113,"x_max":1022,"o":"m 493 -13 q 278 30 362 -13 q 153 161 194 73 q 113 389 113 250 l 113 1028 l 225 1028 l 225 376 q 290 154 225 224 q 493 84 354 84 q 697 154 632 84 q 761 376 761 224 l 761 1028 l 803 1028 q 903 1053 869 1028 q 938 1135 938 1079 q 934 1183 938 1160 q 922 1233 930 1206 l 1006 1233 q 1019 1185 1015 1208 q 1022 1131 1022 1161 q 982 1017 1022 1059 q 872 967 942 975 l 872 389 q 831 161 872 250 q 708 30 791 73 q 493 -13 624 -13 m 599 1158 q 545 1165 570 1158 q 482 1186 521 1172 q 428 1205 451 1199 q 383 1211 406 1211 q 319 1199 347 1211 q 265 1162 291 1188 l 265 1239 q 385 1284 308 1284 q 440 1277 415 1284 q 503 1256 466 1269 q 556 1237 534 1243 q 601 1231 578 1231 q 665 1242 638 1231 q 720 1280 693 1254 l 720 1203 q 669 1169 698 1181 q 599 1158 640 1158 z "},"Ű":{"ha":984,"x_min":113,"x_max":872,"o":"m 493 -13 q 278 30 362 -13 q 153 161 194 73 q 113 389 113 250 l 113 1028 l 225 1028 l 225 376 q 290 154 225 224 q 493 84 354 84 q 697 154 632 84 q 761 376 761 224 l 761 1028 l 872 1028 l 872 389 q 831 161 872 250 q 708 30 791 73 q 493 -13 624 -13 m 333 1117 l 422 1314 l 516 1314 l 420 1117 l 333 1117 m 566 1117 l 656 1314 l 750 1314 l 653 1117 l 566 1117 z "},"Ȗ":{"ha":984,"x_min":113,"x_max":872,"o":"m 493 -13 q 278 30 362 -13 q 153 161 194 73 q 113 389 113 250 l 113 1028 l 225 1028 l 225 376 q 290 154 225 224 q 493 84 354 84 q 697 154 632 84 q 761 376 761 224 l 761 1028 l 872 1028 l 872 389 q 831 161 872 250 q 708 30 791 73 q 493 -13 624 -13 m 272 1131 q 335 1261 280 1215 q 492 1308 390 1308 q 650 1261 594 1308 q 715 1131 706 1214 l 639 1131 q 596 1215 631 1188 q 492 1242 562 1242 q 388 1215 422 1242 q 347 1131 354 1188 l 272 1131 z "},"Ū":{"ha":984,"x_min":113,"x_max":872,"o":"m 493 -13 q 278 30 362 -13 q 153 161 194 73 q 113 389 113 250 l 113 1028 l 225 1028 l 225 376 q 290 154 225 224 q 493 84 354 84 q 697 154 632 84 q 761 376 761 224 l 761 1028 l 872 1028 l 872 389 q 831 161 872 250 q 708 30 791 73 q 493 -13 624 -13 m 281 1178 l 281 1253 l 706 1253 l 706 1178 l 281 1178 z "},"Ṻ":{"ha":984,"x_min":113,"x_max":872,"o":"m 493 -13 q 278 30 362 -13 q 153 161 194 73 q 113 389 113 250 l 113 1028 l 225 1028 l 225 376 q 290 154 225 224 q 493 84 354 84 q 697 154 632 84 q 761 376 761 224 l 761 1028 l 872 1028 l 872 389 q 831 161 872 250 q 708 30 791 73 q 493 -13 624 -13 m 281 1178 l 281 1253 l 706 1253 l 706 1178 l 281 1178 m 331 1342 q 278 1359 297 1342 q 259 1406 259 1376 q 278 1454 259 1436 q 331 1472 297 1472 q 383 1454 364 1472 q 401 1406 401 1436 q 383 1359 401 1376 q 331 1342 364 1342 m 656 1342 q 603 1359 622 1342 q 585 1406 585 1376 q 603 1454 585 1436 q 656 1472 622 1472 q 708 1454 689 1472 q 727 1406 727 1436 q 708 1359 727 1376 q 656 1342 690 1342 z "},"Ų":{"ha":984,"x_min":113,"x_max":872,"o":"m 872 1028 l 872 389 q 818 136 872 231 q 647 6 764 41 q 506 -64 547 -24 q 464 -152 464 -104 q 490 -212 464 -192 q 566 -232 515 -232 q 617 -226 591 -232 q 677 -206 643 -220 l 677 -262 q 556 -287 618 -287 q 434 -254 476 -287 q 393 -158 393 -221 q 485 -13 393 -69 q 274 32 356 -12 q 152 163 192 75 q 113 389 113 251 l 113 1028 l 225 1028 l 225 376 q 290 154 225 224 q 493 84 354 84 q 697 154 632 84 q 761 376 761 224 l 761 1028 l 872 1028 z "},"Ů":{"ha":984,"x_min":113,"x_max":872,"o":"m 493 -13 q 278 30 362 -13 q 153 161 194 73 q 113 389 113 250 l 113 1028 l 225 1028 l 225 376 q 290 154 225 224 q 493 84 354 84 q 697 154 632 84 q 761 376 761 224 l 761 1028 l 872 1028 l 872 389 q 831 161 872 250 q 708 30 791 73 q 493 -13 624 -13 m 493 1111 q 423 1128 454 1111 q 375 1177 392 1146 q 357 1246 357 1208 q 375 1315 357 1284 q 423 1363 392 1345 q 493 1380 454 1380 q 563 1363 532 1380 q 611 1315 594 1345 q 628 1246 628 1284 q 611 1177 628 1208 q 563 1128 594 1146 q 493 1111 532 1111 m 493 1163 q 551 1185 529 1163 q 574 1246 574 1208 q 551 1306 574 1283 q 493 1328 529 1328 q 434 1306 457 1328 q 412 1246 412 1283 q 434 1185 412 1208 q 493 1163 457 1163 z "},"Ũ":{"ha":984,"x_min":113,"x_max":872,"o":"m 493 -13 q 278 30 362 -13 q 153 161 194 73 q 113 389 113 250 l 113 1028 l 225 1028 l 225 376 q 290 154 225 224 q 493 84 354 84 q 697 154 632 84 q 761 376 761 224 l 761 1028 l 872 1028 l 872 389 q 831 161 872 250 q 708 30 791 73 q 493 -13 624 -13 m 600 1158 q 546 1165 571 1158 q 483 1186 522 1172 q 429 1205 451 1199 q 384 1211 407 1211 q 319 1199 347 1211 q 265 1162 292 1188 l 265 1239 q 385 1284 309 1284 q 441 1277 415 1284 q 503 1256 467 1269 q 557 1237 535 1243 q 601 1231 579 1231 q 666 1242 638 1231 q 721 1280 694 1254 l 721 1203 q 669 1169 699 1181 q 600 1158 640 1158 z "},"Ṹ":{"ha":984,"x_min":113,"x_max":872,"o":"m 493 -13 q 278 30 362 -13 q 153 161 194 73 q 113 389 113 250 l 113 1028 l 225 1028 l 225 376 q 290 154 225 224 q 493 84 354 84 q 697 154 632 84 q 761 376 761 224 l 761 1028 l 872 1028 l 872 389 q 831 161 872 250 q 708 30 791 73 q 493 -13 624 -13 m 438 1327 l 561 1488 l 690 1488 l 549 1327 l 438 1327 m 600 1158 q 546 1165 571 1158 q 483 1186 522 1172 q 429 1205 451 1199 q 384 1211 407 1211 q 319 1199 347 1211 q 265 1162 292 1188 l 265 1239 q 385 1284 309 1284 q 441 1277 415 1284 q 503 1256 467 1269 q 557 1237 535 1243 q 601 1231 579 1231 q 666 1242 638 1231 q 721 1280 694 1254 l 721 1203 q 669 1169 699 1181 q 600 1158 640 1158 z "},"V":{"ha":912,"x_min":8,"x_max":904,"o":"m 792 1028 l 904 1028 l 538 0 l 374 0 l 8 1028 l 127 1028 l 459 87 l 792 1028 z "},"W":{"ha":1468,"x_min":38,"x_max":1429,"o":"m 1321 1028 l 1429 1028 l 1140 0 l 992 0 l 735 905 l 475 0 l 328 0 l 38 1028 l 153 1028 l 408 103 l 670 1028 l 803 1028 l 1063 101 l 1321 1028 z "},"Ẃ":{"ha":1468,"x_min":38,"x_max":1429,"o":"m 1321 1028 l 1429 1028 l 1140 0 l 992 0 l 735 905 l 475 0 l 328 0 l 38 1028 l 153 1028 l 408 103 l 670 1028 l 803 1028 l 1063 101 l 1321 1028 m 683 1117 l 807 1314 l 927 1314 l 785 1117 l 683 1117 z "},"Ŵ":{"ha":1468,"x_min":38,"x_max":1429,"o":"m 1321 1028 l 1429 1028 l 1140 0 l 992 0 l 735 905 l 475 0 l 328 0 l 38 1028 l 153 1028 l 408 103 l 670 1028 l 803 1028 l 1063 101 l 1321 1028 m 956 1117 l 859 1117 l 735 1265 l 610 1117 l 513 1117 l 683 1314 l 786 1314 l 956 1117 z "},"Ẅ":{"ha":1468,"x_min":38,"x_max":1429,"o":"m 1321 1028 l 1429 1028 l 1140 0 l 992 0 l 735 905 l 475 0 l 328 0 l 38 1028 l 153 1028 l 408 103 l 670 1028 l 803 1028 l 1063 101 l 1321 1028 m 572 1152 q 519 1169 538 1152 q 501 1216 501 1186 q 520 1264 501 1247 q 572 1282 539 1282 q 624 1264 606 1282 q 643 1216 643 1247 q 624 1169 643 1186 q 572 1152 606 1152 m 897 1152 q 845 1169 864 1152 q 826 1216 826 1186 q 845 1264 826 1247 q 897 1282 864 1282 q 950 1264 931 1282 q 969 1216 969 1247 q 950 1169 969 1186 q 897 1152 931 1152 z "},"Ẁ":{"ha":1468,"x_min":38,"x_max":1429,"o":"m 1321 1028 l 1429 1028 l 1140 0 l 992 0 l 735 905 l 475 0 l 328 0 l 38 1028 l 153 1028 l 408 103 l 670 1028 l 803 1028 l 1063 101 l 1321 1028 m 684 1117 l 542 1314 l 662 1314 l 785 1117 l 684 1117 z "},"X":{"ha":888,"x_min":8,"x_max":879,"o":"m 510 525 l 879 0 l 750 0 l 443 438 l 135 0 l 8 0 l 377 524 l 21 1028 l 150 1028 l 444 611 l 739 1028 l 865 1028 l 510 525 z "},"Y":{"ha":816,"x_min":-22,"x_max":831,"o":"m 831 1028 l 465 457 l 465 0 l 352 0 l 352 457 l -22 1028 l 103 1028 l 410 556 l 715 1028 l 831 1028 z "},"Ý":{"ha":816,"x_min":-22,"x_max":831,"o":"m 831 1028 l 465 457 l 465 0 l 352 0 l 352 457 l -22 1028 l 103 1028 l 410 556 l 715 1028 l 831 1028 m 357 1117 l 481 1314 l 601 1314 l 459 1117 l 357 1117 z "},"Ŷ":{"ha":816,"x_min":-22,"x_max":831,"o":"m 831 1028 l 465 457 l 465 0 l 352 0 l 352 457 l -22 1028 l 103 1028 l 410 556 l 715 1028 l 831 1028 m 630 1117 l 533 1117 l 408 1265 l 284 1117 l 187 1117 l 357 1314 l 460 1314 l 630 1117 z "},"Ÿ":{"ha":816,"x_min":-22,"x_max":831,"o":"m 831 1028 l 465 457 l 465 0 l 352 0 l 352 457 l -22 1028 l 103 1028 l 410 556 l 715 1028 l 831 1028 m 246 1152 q 193 1169 212 1152 q 174 1216 174 1186 q 193 1264 174 1247 q 246 1282 213 1282 q 298 1264 279 1282 q 317 1216 317 1247 q 298 1169 317 1186 q 246 1152 279 1152 m 571 1152 q 519 1169 538 1152 q 500 1216 500 1186 q 519 1264 500 1247 q 571 1282 538 1282 q 623 1264 604 1282 q 642 1216 642 1247 q 624 1169 642 1186 q 571 1152 605 1152 z "},"Ẏ":{"ha":816,"x_min":-22,"x_max":831,"o":"m 831 1028 l 465 457 l 465 0 l 352 0 l 352 457 l -22 1028 l 103 1028 l 410 556 l 715 1028 l 831 1028 m 408 1152 q 352 1169 372 1152 q 331 1216 331 1185 q 352 1264 331 1247 q 408 1282 372 1282 q 465 1264 444 1282 q 485 1216 485 1247 q 465 1169 485 1185 q 408 1152 444 1152 z "},"Ỵ":{"ha":816,"x_min":-22,"x_max":831,"o":"m 831 1028 l 465 457 l 465 0 l 352 0 l 352 457 l -22 1028 l 103 1028 l 410 556 l 715 1028 l 831 1028 m 408 -243 q 352 -226 372 -243 q 331 -178 331 -209 q 352 -131 331 -148 q 408 -113 372 -113 q 465 -131 444 -113 q 485 -178 485 -148 q 465 -226 485 -209 q 408 -243 444 -243 z "},"Ỳ":{"ha":816,"x_min":-22,"x_max":831,"o":"m 831 1028 l 465 457 l 465 0 l 352 0 l 352 457 l -22 1028 l 103 1028 l 410 556 l 715 1028 l 831 1028 m 358 1117 l 215 1314 l 335 1314 l 459 1117 l 358 1117 z "},"Ỷ":{"ha":816,"x_min":-22,"x_max":831,"o":"m 831 1028 l 465 457 l 465 0 l 352 0 l 352 457 l -22 1028 l 103 1028 l 410 556 l 715 1028 l 831 1028 m 374 1117 q 393 1161 375 1146 q 444 1192 412 1177 q 478 1210 467 1201 q 490 1231 490 1218 q 472 1256 490 1247 q 409 1264 453 1264 q 273 1242 339 1264 l 273 1297 q 338 1313 301 1307 q 415 1319 376 1319 q 523 1297 488 1319 q 559 1238 559 1276 q 550 1205 559 1218 q 529 1184 541 1192 q 495 1165 517 1176 q 457 1143 469 1153 q 442 1117 444 1133 l 374 1117 z "},"Ȳ":{"ha":816,"x_min":-22,"x_max":831,"o":"m 831 1028 l 465 457 l 465 0 l 352 0 l 352 457 l -22 1028 l 103 1028 l 410 556 l 715 1028 l 831 1028 m 196 1178 l 196 1253 l 621 1253 l 621 1178 l 196 1178 z "},"Ỹ":{"ha":816,"x_min":-22,"x_max":831,"o":"m 831 1028 l 465 457 l 465 0 l 352 0 l 352 457 l -22 1028 l 103 1028 l 410 556 l 715 1028 l 831 1028 m 515 1158 q 461 1165 486 1158 q 398 1186 437 1172 q 344 1205 367 1199 q 299 1211 322 1211 q 235 1199 263 1211 q 181 1162 207 1188 l 181 1239 q 301 1284 224 1284 q 356 1277 331 1284 q 419 1256 382 1269 q 472 1237 450 1243 q 517 1231 494 1231 q 581 1242 553 1231 q 636 1280 609 1254 l 636 1203 q 585 1169 614 1181 q 515 1158 556 1158 z "},"Z":{"ha":801,"x_min":42,"x_max":758,"o":"m 191 97 l 758 97 l 758 0 l 42 0 l 42 63 l 601 931 l 51 931 l 51 1028 l 750 1028 l 750 965 l 191 97 z "},"Ź":{"ha":801,"x_min":42,"x_max":758,"o":"m 191 97 l 758 97 l 758 0 l 42 0 l 42 63 l 601 931 l 51 931 l 51 1028 l 750 1028 l 750 965 l 191 97 m 349 1117 l 473 1314 l 593 1314 l 451 1117 l 349 1117 z "},"Ž":{"ha":801,"x_min":42,"x_max":758,"o":"m 191 97 l 758 97 l 758 0 l 42 0 l 42 63 l 601 931 l 51 931 l 51 1028 l 750 1028 l 750 965 l 191 97 m 525 1314 l 622 1314 l 452 1117 l 349 1117 l 179 1314 l 276 1314 l 401 1165 l 525 1314 z "},"Ż":{"ha":801,"x_min":42,"x_max":758,"o":"m 191 97 l 758 97 l 758 0 l 42 0 l 42 63 l 601 931 l 51 931 l 51 1028 l 750 1028 l 750 965 l 191 97 m 401 1152 q 344 1169 365 1152 q 324 1216 324 1185 q 344 1264 324 1247 q 401 1282 365 1282 q 457 1264 437 1282 q 478 1216 478 1247 q 457 1169 478 1185 q 401 1152 437 1152 z "},"Ẓ":{"ha":801,"x_min":42,"x_max":758,"o":"m 191 97 l 758 97 l 758 0 l 42 0 l 42 63 l 601 931 l 51 931 l 51 1028 l 750 1028 l 750 965 l 191 97 m 400 -243 q 343 -226 364 -243 q 323 -178 323 -209 q 343 -131 323 -148 q 400 -113 364 -113 q 457 -131 436 -113 q 477 -178 477 -148 q 457 -226 477 -209 q 400 -243 436 -243 z "},"a":{"ha":715,"x_min":64,"x_max":618,"o":"m 329 765 q 491 740 428 765 q 586 654 554 714 q 618 494 618 594 l 618 0 l 525 0 l 517 84 l 509 84 q 416 13 473 38 q 292 -12 358 -12 q 170 12 222 -12 q 91 83 119 37 q 64 193 64 130 q 129 348 64 293 q 337 416 194 402 l 509 435 l 509 499 q 488 605 509 567 q 425 659 467 643 q 315 674 383 674 q 215 666 268 674 q 111 640 162 658 l 111 732 q 217 757 158 748 q 329 765 276 765 m 319 74 q 422 96 373 74 q 509 165 472 118 l 509 360 l 344 342 q 216 299 256 333 q 176 203 176 265 q 213 107 176 140 q 319 74 249 74 z "},"á":{"ha":715,"x_min":64,"x_max":618,"o":"m 329 765 q 491 740 428 765 q 586 654 554 714 q 618 494 618 594 l 618 0 l 525 0 l 517 84 l 509 84 q 416 13 473 38 q 292 -12 358 -12 q 170 12 222 -12 q 91 83 119 37 q 64 193 64 130 q 129 348 64 293 q 337 416 194 402 l 509 435 l 509 499 q 488 605 509 567 q 425 659 467 643 q 315 674 383 674 q 215 666 268 674 q 111 640 162 658 l 111 732 q 217 757 158 748 q 329 765 276 765 m 319 74 q 422 96 373 74 q 509 165 472 118 l 509 360 l 344 342 q 216 299 256 333 q 176 203 176 265 q 213 107 176 140 q 319 74 249 74 m 303 870 l 453 1122 l 574 1122 l 406 870 l 303 870 z "},"ă":{"ha":715,"x_min":64,"x_max":618,"o":"m 329 765 q 491 740 428 765 q 586 654 554 714 q 618 494 618 594 l 618 0 l 525 0 l 517 84 l 509 84 q 416 13 473 38 q 292 -12 358 -12 q 170 12 222 -12 q 91 83 119 37 q 64 193 64 130 q 129 348 64 293 q 337 416 194 402 l 509 435 l 509 499 q 488 605 509 567 q 425 659 467 643 q 315 674 383 674 q 215 666 268 674 q 111 640 162 658 l 111 732 q 217 757 158 748 q 329 765 276 765 m 319 74 q 422 96 373 74 q 509 165 472 118 l 509 360 l 344 342 q 216 299 256 333 q 176 203 176 265 q 213 107 176 140 q 319 74 249 74 m 356 878 q 206 937 260 878 q 147 1104 151 996 l 222 1104 q 260 984 227 1024 q 356 944 292 944 q 451 984 419 944 q 488 1104 483 1024 l 563 1104 q 505 936 558 995 q 356 878 451 878 z "},"ắ":{"ha":715,"x_min":64,"x_max":618,"o":"m 329 765 q 491 740 428 765 q 586 654 554 714 q 618 494 618 594 l 618 0 l 525 0 l 517 84 l 509 84 q 416 13 473 38 q 292 -12 358 -12 q 170 12 222 -12 q 91 83 119 37 q 64 193 64 130 q 129 348 64 293 q 337 416 194 402 l 509 435 l 509 499 q 488 605 509 567 q 425 659 467 643 q 315 674 383 674 q 215 666 268 674 q 111 640 162 658 l 111 732 q 217 757 158 748 q 329 765 276 765 m 319 74 q 422 96 373 74 q 509 165 472 118 l 509 360 l 344 342 q 216 299 256 333 q 176 203 176 265 q 213 107 176 140 q 319 74 249 74 m 312 1109 l 435 1297 l 540 1297 l 397 1109 l 312 1109 m 356 878 q 205 936 259 878 q 144 1096 150 993 l 219 1096 q 258 982 225 1020 q 356 943 292 943 q 453 982 420 943 q 491 1096 485 1020 l 566 1096 q 506 935 560 992 q 356 878 452 878 z "},"ặ":{"ha":715,"x_min":64,"x_max":618,"o":"m 329 765 q 491 740 428 765 q 586 654 554 714 q 618 494 618 594 l 618 0 l 525 0 l 517 84 l 509 84 q 416 13 473 38 q 292 -12 358 -12 q 170 12 222 -12 q 91 83 119 37 q 64 193 64 130 q 129 348 64 293 q 337 416 194 402 l 509 435 l 509 499 q 488 605 509 567 q 425 659 467 643 q 315 674 383 674 q 215 666 268 674 q 111 640 162 658 l 111 732 q 217 757 158 748 q 329 765 276 765 m 319 74 q 422 96 373 74 q 509 165 472 118 l 509 360 l 344 342 q 216 299 256 333 q 176 203 176 265 q 213 107 176 140 q 319 74 249 74 m 362 -250 q 310 -232 329 -250 q 290 -182 290 -213 q 310 -132 290 -151 q 362 -113 329 -113 q 414 -132 394 -113 q 433 -182 433 -151 q 414 -232 433 -213 q 362 -250 394 -250 m 356 878 q 206 937 260 878 q 147 1104 151 996 l 222 1104 q 260 984 227 1024 q 356 944 292 944 q 451 984 419 944 q 488 1104 483 1024 l 563 1104 q 505 936 558 995 q 356 878 451 878 z "},"ằ":{"ha":715,"x_min":64,"x_max":618,"o":"m 329 765 q 491 740 428 765 q 586 654 554 714 q 618 494 618 594 l 618 0 l 525 0 l 517 84 l 509 84 q 416 13 473 38 q 292 -12 358 -12 q 170 12 222 -12 q 91 83 119 37 q 64 193 64 130 q 129 348 64 293 q 337 416 194 402 l 509 435 l 509 499 q 488 605 509 567 q 425 659 467 643 q 315 674 383 674 q 215 666 268 674 q 111 640 162 658 l 111 732 q 217 757 158 748 q 329 765 276 765 m 319 74 q 422 96 373 74 q 509 165 472 118 l 509 360 l 344 342 q 216 299 256 333 q 176 203 176 265 q 213 107 176 140 q 319 74 249 74 m 313 1109 l 170 1297 l 274 1297 l 398 1109 l 313 1109 m 356 878 q 205 936 259 878 q 144 1096 150 993 l 219 1096 q 258 982 225 1020 q 356 943 292 943 q 453 982 420 943 q 491 1096 485 1020 l 566 1096 q 506 935 560 992 q 356 878 452 878 z "},"ẳ":{"ha":715,"x_min":64,"x_max":618,"o":"m 329 765 q 491 740 428 765 q 586 654 554 714 q 618 494 618 594 l 618 0 l 525 0 l 517 84 l 509 84 q 416 13 473 38 q 292 -12 358 -12 q 170 12 222 -12 q 91 83 119 37 q 64 193 64 130 q 129 348 64 293 q 337 416 194 402 l 509 435 l 509 499 q 488 605 509 567 q 425 659 467 643 q 315 674 383 674 q 215 666 268 674 q 111 640 162 658 l 111 732 q 217 757 158 748 q 329 765 276 765 m 319 74 q 422 96 373 74 q 509 165 472 118 l 509 360 l 344 342 q 216 299 256 333 q 176 203 176 265 q 213 107 176 140 q 319 74 249 74 m 320 1109 q 331 1142 321 1128 q 355 1163 342 1156 q 390 1181 368 1171 q 425 1199 414 1191 q 436 1219 436 1206 q 418 1243 436 1235 q 356 1251 399 1251 q 219 1229 288 1251 l 219 1280 q 285 1296 248 1290 q 362 1302 323 1302 q 470 1281 434 1302 q 506 1224 506 1260 q 497 1193 506 1206 q 475 1173 488 1180 q 441 1155 463 1165 q 404 1134 417 1144 q 389 1109 391 1125 l 320 1109 m 356 878 q 205 936 259 878 q 144 1096 150 993 l 219 1096 q 258 982 225 1020 q 356 943 292 943 q 453 982 420 943 q 491 1096 485 1020 l 566 1096 q 506 935 560 992 q 356 878 452 878 z "},"ẵ":{"ha":715,"x_min":64,"x_max":618,"o":"m 329 765 q 491 740 428 765 q 586 654 554 714 q 618 494 618 594 l 618 0 l 525 0 l 517 84 l 509 84 q 416 13 473 38 q 292 -12 358 -12 q 170 12 222 -12 q 91 83 119 37 q 64 193 64 130 q 129 348 64 293 q 337 416 194 402 l 509 435 l 509 499 q 488 605 509 567 q 425 659 467 643 q 315 674 383 674 q 215 666 268 674 q 111 640 162 658 l 111 732 q 217 757 158 748 q 329 765 276 765 m 319 74 q 422 96 373 74 q 509 165 472 118 l 509 360 l 344 342 q 216 299 256 333 q 176 203 176 265 q 213 107 176 140 q 319 74 249 74 m 458 1149 q 405 1156 430 1149 q 344 1176 379 1163 q 291 1194 311 1189 q 250 1200 271 1200 q 188 1189 215 1200 q 133 1153 160 1177 l 133 1224 q 251 1267 178 1267 q 305 1260 280 1267 q 365 1240 331 1253 q 419 1222 399 1227 q 460 1216 439 1216 q 522 1227 494 1216 q 576 1263 550 1239 l 576 1192 q 458 1149 532 1149 m 356 878 q 205 936 259 878 q 144 1096 150 993 l 219 1096 q 258 982 225 1020 q 356 943 292 943 q 453 982 420 943 q 491 1096 485 1020 l 566 1096 q 506 935 560 992 q 356 878 452 878 z "},"â":{"ha":715,"x_min":64,"x_max":618,"o":"m 329 765 q 491 740 428 765 q 586 654 554 714 q 618 494 618 594 l 618 0 l 525 0 l 517 84 l 509 84 q 416 13 473 38 q 292 -12 358 -12 q 170 12 222 -12 q 91 83 119 37 q 64 193 64 130 q 129 348 64 293 q 337 416 194 402 l 509 435 l 509 499 q 488 605 509 567 q 425 659 467 643 q 315 674 383 674 q 215 666 268 674 q 111 640 162 658 l 111 732 q 217 757 158 748 q 329 765 276 765 m 319 74 q 422 96 373 74 q 509 165 472 118 l 509 360 l 344 342 q 216 299 256 333 q 176 203 176 265 q 213 107 176 140 q 319 74 249 74 m 560 870 l 471 870 l 355 1065 l 239 870 l 149 870 l 305 1122 l 405 1122 l 560 870 z "},"ấ":{"ha":715,"x_min":64,"x_max":729,"o":"m 329 765 q 491 740 428 765 q 586 654 554 714 q 618 494 618 594 l 618 0 l 525 0 l 517 84 l 509 84 q 416 13 473 38 q 292 -12 358 -12 q 170 12 222 -12 q 91 83 119 37 q 64 193 64 130 q 129 348 64 293 q 337 416 194 402 l 509 435 l 509 499 q 488 605 509 567 q 425 659 467 643 q 315 674 383 674 q 215 666 268 674 q 111 640 162 658 l 111 732 q 217 757 158 748 q 329 765 276 765 m 319 74 q 422 96 373 74 q 509 165 472 118 l 509 360 l 344 342 q 216 299 256 333 q 176 203 176 265 q 213 107 176 140 q 319 74 249 74 m 625 1297 l 729 1297 l 587 1109 l 501 1109 l 625 1297 m 305 1122 l 405 1122 l 560 870 l 471 870 l 355 1065 l 239 870 l 149 870 l 305 1122 z "},"ậ":{"ha":715,"x_min":64,"x_max":618,"o":"m 329 765 q 491 740 428 765 q 586 654 554 714 q 618 494 618 594 l 618 0 l 525 0 l 517 84 l 509 84 q 416 13 473 38 q 292 -12 358 -12 q 170 12 222 -12 q 91 83 119 37 q 64 193 64 130 q 129 348 64 293 q 337 416 194 402 l 509 435 l 509 499 q 488 605 509 567 q 425 659 467 643 q 315 674 383 674 q 215 666 268 674 q 111 640 162 658 l 111 732 q 217 757 158 748 q 329 765 276 765 m 319 74 q 422 96 373 74 q 509 165 472 118 l 509 360 l 344 342 q 216 299 256 333 q 176 203 176 265 q 213 107 176 140 q 319 74 249 74 m 362 -250 q 310 -232 329 -250 q 290 -182 290 -213 q 310 -132 290 -151 q 362 -113 329 -113 q 414 -132 394 -113 q 433 -182 433 -151 q 414 -232 433 -213 q 362 -250 394 -250 m 560 870 l 471 870 l 355 1065 l 239 870 l 149 870 l 305 1122 l 405 1122 l 560 870 z "},"ầ":{"ha":715,"x_min":64,"x_max":618,"o":"m 329 765 q 491 740 428 765 q 586 654 554 714 q 618 494 618 594 l 618 0 l 525 0 l 517 84 l 509 84 q 416 13 473 38 q 292 -12 358 -12 q 170 12 222 -12 q 91 83 119 37 q 64 193 64 130 q 129 348 64 293 q 337 416 194 402 l 509 435 l 509 499 q 488 605 509 567 q 425 659 467 643 q 315 674 383 674 q 215 666 268 674 q 111 640 162 658 l 111 732 q 217 757 158 748 q 329 765 276 765 m 319 74 q 422 96 373 74 q 509 165 472 118 l 509 360 l 344 342 q 216 299 256 333 q 176 203 176 265 q 213 107 176 140 q 319 74 249 74 m 601 1109 l 516 1109 l 374 1297 l 477 1297 l 601 1109 m 305 1122 l 405 1122 l 560 870 l 471 870 l 355 1065 l 239 870 l 149 870 l 305 1122 z "},"ẩ":{"ha":715,"x_min":64,"x_max":678,"o":"m 329 765 q 491 740 428 765 q 586 654 554 714 q 618 494 618 594 l 618 0 l 525 0 l 517 84 l 509 84 q 416 13 473 38 q 292 -12 358 -12 q 170 12 222 -12 q 91 83 119 37 q 64 193 64 130 q 129 348 64 293 q 337 416 194 402 l 509 435 l 509 499 q 488 605 509 567 q 425 659 467 643 q 315 674 383 674 q 215 666 268 674 q 111 640 162 658 l 111 732 q 217 757 158 748 q 329 765 276 765 m 319 74 q 422 96 373 74 q 509 165 472 118 l 509 360 l 344 342 q 216 299 256 333 q 176 203 176 265 q 213 107 176 140 q 319 74 249 74 m 538 1302 q 644 1282 609 1302 q 678 1225 678 1261 q 663 1185 678 1199 q 617 1158 647 1172 q 579 1136 592 1146 q 564 1109 566 1126 l 498 1109 q 509 1143 499 1129 q 532 1164 519 1156 q 567 1182 545 1172 q 600 1199 590 1191 q 611 1219 611 1206 q 593 1243 611 1235 q 532 1251 576 1251 q 399 1230 464 1251 l 399 1280 q 463 1296 426 1290 q 538 1302 500 1302 m 305 1122 l 405 1122 l 560 870 l 471 870 l 355 1065 l 239 870 l 149 870 l 305 1122 z "},"ẫ":{"ha":715,"x_min":64,"x_max":618,"o":"m 329 765 q 491 740 428 765 q 586 654 554 714 q 618 494 618 594 l 618 0 l 525 0 l 517 84 l 509 84 q 416 13 473 38 q 292 -12 358 -12 q 170 12 222 -12 q 91 83 119 37 q 64 193 64 130 q 129 348 64 293 q 337 416 194 402 l 509 435 l 509 499 q 488 605 509 567 q 425 659 467 643 q 315 674 383 674 q 215 666 268 674 q 111 640 162 658 l 111 732 q 217 757 158 748 q 329 765 276 765 m 319 74 q 422 96 373 74 q 509 165 472 118 l 509 360 l 344 342 q 216 299 256 333 q 176 203 176 265 q 213 107 176 140 q 319 74 249 74 m 458 1216 q 520 1227 493 1216 q 574 1263 548 1239 l 574 1192 q 457 1149 531 1149 q 405 1156 429 1149 q 344 1176 380 1163 q 291 1194 310 1189 q 251 1200 272 1200 q 189 1189 217 1200 q 135 1153 162 1177 l 135 1224 q 253 1267 178 1267 q 305 1260 281 1267 q 365 1240 330 1253 q 418 1222 399 1227 q 458 1216 438 1216 m 303 1108 l 406 1108 l 565 870 l 473 870 l 355 1057 l 236 870 l 144 870 l 303 1108 z "},"ȁ":{"ha":715,"x_min":64,"x_max":618,"o":"m 329 765 q 491 740 428 765 q 586 654 554 714 q 618 494 618 594 l 618 0 l 525 0 l 517 84 l 509 84 q 416 13 473 38 q 292 -12 358 -12 q 170 12 222 -12 q 91 83 119 37 q 64 193 64 130 q 129 348 64 293 q 337 416 194 402 l 509 435 l 509 499 q 488 605 509 567 q 425 659 467 643 q 315 674 383 674 q 215 666 268 674 q 111 640 162 658 l 111 732 q 217 757 158 748 q 329 765 276 765 m 319 74 q 422 96 373 74 q 509 165 472 118 l 509 360 l 344 342 q 216 299 256 333 q 176 203 176 265 q 213 107 176 140 q 319 74 249 74 m 194 870 l 90 1122 l 185 1122 l 282 870 l 194 870 m 428 870 l 324 1122 l 419 1122 l 515 870 l 428 870 z "},"ä":{"ha":715,"x_min":64,"x_max":618,"o":"m 329 765 q 491 740 428 765 q 586 654 554 714 q 618 494 618 594 l 618 0 l 525 0 l 517 84 l 509 84 q 416 13 473 38 q 292 -12 358 -12 q 170 12 222 -12 q 91 83 119 37 q 64 193 64 130 q 129 348 64 293 q 337 416 194 402 l 509 435 l 509 499 q 488 605 509 567 q 425 659 467 643 q 315 674 383 674 q 215 666 268 674 q 111 640 162 658 l 111 732 q 217 757 158 748 q 329 765 276 765 m 319 74 q 422 96 373 74 q 509 165 472 118 l 509 360 l 344 342 q 216 299 256 333 q 176 203 176 265 q 213 107 176 140 q 319 74 249 74 m 204 918 q 152 936 171 918 q 133 987 133 955 q 152 1038 133 1019 q 204 1056 171 1056 q 256 1038 237 1056 q 275 987 275 1019 q 256 936 275 955 q 204 918 237 918 m 506 918 q 454 936 473 918 q 435 987 435 955 q 454 1038 435 1019 q 506 1056 473 1056 q 558 1038 539 1056 q 577 987 577 1019 q 558 936 577 955 q 506 918 539 918 z "},"ạ":{"ha":715,"x_min":64,"x_max":618,"o":"m 329 765 q 491 740 428 765 q 586 654 554 714 q 618 494 618 594 l 618 0 l 525 0 l 517 84 l 509 84 q 416 13 473 38 q 292 -12 358 -12 q 170 12 222 -12 q 91 83 119 37 q 64 193 64 130 q 129 348 64 293 q 337 416 194 402 l 509 435 l 509 499 q 488 605 509 567 q 425 659 467 643 q 315 674 383 674 q 215 666 268 674 q 111 640 162 658 l 111 732 q 217 757 158 748 q 329 765 276 765 m 319 74 q 422 96 373 74 q 509 165 472 118 l 509 360 l 344 342 q 216 299 256 333 q 176 203 176 265 q 213 107 176 140 q 319 74 249 74 m 362 -250 q 310 -232 329 -250 q 290 -182 290 -213 q 310 -132 290 -151 q 362 -113 329 -113 q 414 -132 394 -113 q 433 -182 433 -151 q 414 -232 433 -213 q 362 -250 394 -250 z "},"à":{"ha":715,"x_min":64,"x_max":618,"o":"m 329 765 q 491 740 428 765 q 586 654 554 714 q 618 494 618 594 l 618 0 l 525 0 l 517 84 l 509 84 q 416 13 473 38 q 292 -12 358 -12 q 170 12 222 -12 q 91 83 119 37 q 64 193 64 130 q 129 348 64 293 q 337 416 194 402 l 509 435 l 509 499 q 488 605 509 567 q 425 659 467 643 q 315 674 383 674 q 215 666 268 674 q 111 640 162 658 l 111 732 q 217 757 158 748 q 329 765 276 765 m 319 74 q 422 96 373 74 q 509 165 472 118 l 509 360 l 344 342 q 216 299 256 333 q 176 203 176 265 q 213 107 176 140 q 319 74 249 74 m 303 870 l 136 1122 l 256 1122 l 406 870 l 303 870 z "},"ả":{"ha":715,"x_min":64,"x_max":618,"o":"m 329 765 q 491 740 428 765 q 586 654 554 714 q 618 494 618 594 l 618 0 l 525 0 l 517 84 l 509 84 q 416 13 473 38 q 292 -12 358 -12 q 170 12 222 -12 q 91 83 119 37 q 64 193 64 130 q 129 348 64 293 q 337 416 194 402 l 509 435 l 509 499 q 488 605 509 567 q 425 659 467 643 q 315 674 383 674 q 215 666 268 674 q 111 640 162 658 l 111 732 q 217 757 158 748 q 329 765 276 765 m 319 74 q 422 96 373 74 q 509 165 472 118 l 509 360 l 344 342 q 216 299 256 333 q 176 203 176 265 q 213 107 176 140 q 319 74 249 74 m 321 870 q 331 916 322 897 q 354 947 341 935 q 388 974 367 959 q 419 1001 409 990 q 430 1028 430 1012 q 410 1063 430 1051 q 349 1074 391 1074 q 239 1058 290 1074 l 239 1113 q 293 1126 262 1121 q 353 1131 324 1131 q 499 1033 499 1131 q 491 995 499 1011 q 472 969 483 979 q 442 944 460 958 q 403 910 416 926 q 389 870 390 895 l 321 870 z "},"ȃ":{"ha":715,"x_min":64,"x_max":618,"o":"m 329 765 q 491 740 428 765 q 586 654 554 714 q 618 494 618 594 l 618 0 l 525 0 l 517 84 l 509 84 q 416 13 473 38 q 292 -12 358 -12 q 170 12 222 -12 q 91 83 119 37 q 64 193 64 130 q 129 348 64 293 q 337 416 194 402 l 509 435 l 509 499 q 488 605 509 567 q 425 659 467 643 q 315 674 383 674 q 215 666 268 674 q 111 640 162 658 l 111 732 q 217 757 158 748 q 329 765 276 765 m 319 74 q 422 96 373 74 q 509 165 472 118 l 509 360 l 344 342 q 216 299 256 333 q 176 203 176 265 q 213 107 176 140 q 319 74 249 74 m 147 890 q 205 1058 151 999 q 353 1116 258 1116 q 504 1057 449 1116 q 563 890 558 998 l 488 890 q 450 1009 483 969 q 353 1049 417 1049 q 258 1010 290 1049 q 222 890 226 970 l 147 890 z "},"ā":{"ha":715,"x_min":64,"x_max":618,"o":"m 329 765 q 491 740 428 765 q 586 654 554 714 q 618 494 618 594 l 618 0 l 525 0 l 517 84 l 509 84 q 416 13 473 38 q 292 -12 358 -12 q 170 12 222 -12 q 91 83 119 37 q 64 193 64 130 q 129 348 64 293 q 337 416 194 402 l 509 435 l 509 499 q 488 605 509 567 q 425 659 467 643 q 315 674 383 674 q 215 666 268 674 q 111 640 162 658 l 111 732 q 217 757 158 748 q 329 765 276 765 m 319 74 q 422 96 373 74 q 509 165 472 118 l 509 360 l 344 342 q 216 299 256 333 q 176 203 176 265 q 213 107 176 140 q 319 74 249 74 m 140 950 l 140 1025 l 570 1025 l 570 950 l 140 950 z "},"ą":{"ha":715,"x_min":64,"x_max":675,"o":"m 575 -233 q 675 -206 624 -233 l 675 -262 q 623 -282 651 -274 q 565 -289 594 -289 q 455 -255 494 -289 q 416 -161 416 -221 q 442 -72 416 -112 q 524 6 467 -31 l 517 84 l 509 84 q 416 13 473 38 q 292 -12 358 -12 q 170 12 222 -12 q 91 83 119 37 q 64 193 64 130 q 129 348 64 293 q 337 416 194 402 l 509 435 l 509 499 q 488 605 509 567 q 425 659 467 643 q 315 674 383 674 q 215 666 268 674 q 111 640 162 658 l 111 732 q 217 757 158 748 q 329 765 276 765 q 491 740 428 765 q 586 654 554 714 q 618 494 618 594 l 618 0 q 517 -74 547 -37 q 487 -155 487 -111 q 510 -212 487 -192 q 575 -233 533 -233 m 319 74 q 422 96 373 74 q 509 165 472 118 l 509 360 l 344 342 q 216 299 256 333 q 176 203 176 265 q 213 107 176 140 q 319 74 249 74 z "},"å":{"ha":715,"x_min":64,"x_max":618,"o":"m 329 765 q 491 740 428 765 q 586 654 554 714 q 618 494 618 594 l 618 0 l 525 0 l 517 84 l 509 84 q 416 13 473 38 q 292 -12 358 -12 q 170 12 222 -12 q 91 83 119 37 q 64 193 64 130 q 129 348 64 293 q 337 416 194 402 l 509 435 l 509 499 q 488 605 509 567 q 425 659 467 643 q 315 674 383 674 q 215 666 268 674 q 111 640 162 658 l 111 732 q 217 757 158 748 q 329 765 276 765 m 319 74 q 422 96 373 74 q 509 165 472 118 l 509 360 l 344 342 q 216 299 256 333 q 176 203 176 265 q 213 107 176 140 q 319 74 249 74 m 355 867 q 285 884 316 867 q 236 932 254 901 q 219 1001 219 963 q 236 1070 219 1039 q 285 1118 254 1101 q 355 1135 316 1135 q 425 1118 394 1135 q 473 1070 456 1101 q 490 1001 490 1039 q 473 932 490 963 q 425 884 456 901 q 355 867 394 867 m 355 918 q 413 941 391 918 q 435 1001 435 963 q 413 1061 435 1039 q 355 1083 391 1083 q 296 1061 319 1083 q 274 1001 274 1039 q 296 941 274 963 q 355 918 319 918 z "},"ǻ":{"ha":715,"x_min":64,"x_max":618,"o":"m 329 765 q 491 740 428 765 q 586 654 554 714 q 618 494 618 594 l 618 0 l 525 0 l 517 84 l 509 84 q 416 13 473 38 q 292 -12 358 -12 q 170 12 222 -12 q 91 83 119 37 q 64 193 64 130 q 129 348 64 293 q 337 416 194 402 l 509 435 l 509 499 q 488 605 509 567 q 425 659 467 643 q 315 674 383 674 q 215 666 268 674 q 111 640 162 658 l 111 732 q 217 757 158 748 q 329 765 276 765 m 319 74 q 422 96 373 74 q 509 165 472 118 l 509 360 l 344 342 q 216 299 256 333 q 176 203 176 265 q 213 107 176 140 q 319 74 249 74 m 463 1085 q 490 1001 490 1050 q 473 932 490 963 q 425 884 456 901 q 355 867 394 867 q 285 884 316 867 q 236 932 254 901 q 219 1001 219 963 q 236 1070 219 1039 q 285 1118 254 1101 q 355 1135 316 1135 q 411 1124 386 1135 l 502 1236 l 596 1236 l 463 1085 m 355 918 q 413 941 391 918 q 435 1001 435 963 q 413 1061 435 1039 q 355 1083 391 1083 q 296 1061 319 1083 q 274 1001 274 1039 q 296 941 274 963 q 355 918 319 918 z "},"ã":{"ha":715,"x_min":64,"x_max":618,"o":"m 329 765 q 491 740 428 765 q 586 654 554 714 q 618 494 618 594 l 618 0 l 525 0 l 517 84 l 509 84 q 416 13 473 38 q 292 -12 358 -12 q 170 12 222 -12 q 91 83 119 37 q 64 193 64 130 q 129 348 64 293 q 337 416 194 402 l 509 435 l 509 499 q 488 605 509 567 q 425 659 467 643 q 315 674 383 674 q 215 666 268 674 q 111 640 162 658 l 111 732 q 217 757 158 748 q 329 765 276 765 m 319 74 q 422 96 373 74 q 509 165 472 118 l 509 360 l 344 342 q 216 299 256 333 q 176 203 176 265 q 213 107 176 140 q 319 74 249 74 m 454 934 q 405 941 428 934 q 344 965 381 949 q 295 984 315 978 q 254 991 274 991 q 193 978 220 991 q 140 938 166 966 l 140 1019 q 256 1065 183 1065 q 305 1058 282 1065 q 366 1035 328 1051 q 415 1015 394 1022 q 456 1008 435 1008 q 516 1021 489 1008 q 570 1061 544 1034 l 570 981 q 454 934 526 934 z "},"æ":{"ha":1149,"x_min":64,"x_max":1095,"o":"m 1095 340 l 618 340 q 649 187 621 244 q 732 104 678 130 q 872 78 787 78 q 1058 108 954 78 l 1058 17 q 859 -13 956 -13 q 681 19 754 -13 q 567 120 608 52 q 442 18 508 49 q 300 -12 376 -12 q 174 12 227 -12 q 92 83 120 36 q 64 193 64 129 q 134 356 64 297 q 354 416 204 416 l 510 416 l 510 500 q 488 605 510 567 q 424 659 467 643 q 315 674 382 674 q 215 666 268 674 q 112 640 163 658 l 112 732 q 216 757 160 748 q 326 765 272 765 q 488 735 426 765 q 579 640 551 706 q 674 734 615 703 q 810 765 732 765 q 1021 669 947 765 q 1095 376 1095 572 l 1095 340 m 806 685 q 668 622 716 685 q 618 416 621 559 l 988 416 q 939 623 985 560 q 806 685 893 685 m 322 74 q 436 102 382 74 q 533 194 491 130 q 510 342 513 262 l 360 342 q 176 203 176 342 q 213 107 176 140 q 322 74 250 74 z "},"ǽ":{"ha":1149,"x_min":64,"x_max":1095,"o":"m 1095 340 l 618 340 q 649 187 621 244 q 732 104 678 130 q 872 78 787 78 q 1058 108 954 78 l 1058 17 q 859 -13 956 -13 q 681 19 754 -13 q 567 120 608 52 q 442 18 508 49 q 300 -12 376 -12 q 174 12 227 -12 q 92 83 120 36 q 64 193 64 129 q 134 356 64 297 q 354 416 204 416 l 510 416 l 510 500 q 488 605 510 567 q 424 659 467 643 q 315 674 382 674 q 215 666 268 674 q 112 640 163 658 l 112 732 q 216 757 160 748 q 326 765 272 765 q 488 735 426 765 q 579 640 551 706 q 674 734 615 703 q 810 765 732 765 q 1021 669 947 765 q 1095 376 1095 572 l 1095 340 m 806 685 q 668 622 716 685 q 618 416 621 559 l 988 416 q 939 623 985 560 q 806 685 893 685 m 322 74 q 436 102 382 74 q 533 194 491 130 q 510 342 513 262 l 360 342 q 176 203 176 342 q 213 107 176 140 q 322 74 250 74 m 514 870 l 664 1122 l 784 1122 l 617 870 l 514 870 z "},"b":{"ha":784,"x_min":105,"x_max":719,"o":"m 338 -13 q 217 -5 278 -13 q 105 21 157 4 l 105 1122 l 216 1122 l 216 676 l 223 676 q 312 741 258 717 q 431 765 365 765 q 578 727 514 765 q 681 606 643 690 q 719 391 719 522 q 338 -13 719 -13 m 346 78 q 541 150 476 78 q 606 381 606 222 q 551 604 606 539 q 398 669 496 669 q 296 647 344 669 q 216 582 248 625 l 216 95 q 346 78 273 78 z "},"c":{"ha":608,"x_min":65,"x_max":581,"o":"m 399 -13 q 150 81 235 -13 q 65 376 65 176 q 157 671 65 577 q 426 765 248 765 q 581 746 510 765 l 581 651 q 439 670 507 670 q 293 642 350 670 q 209 549 237 613 q 181 379 181 485 q 207 206 181 272 q 284 111 233 140 q 415 81 335 81 q 581 113 488 81 l 581 18 q 399 -13 493 -13 z "},"ć":{"ha":608,"x_min":65,"x_max":581,"o":"m 399 -13 q 150 81 235 -13 q 65 376 65 176 q 157 671 65 577 q 426 765 248 765 q 581 746 510 765 l 581 651 q 439 670 507 670 q 293 642 350 670 q 209 549 237 613 q 181 379 181 485 q 207 206 181 272 q 284 111 233 140 q 415 81 335 81 q 581 113 488 81 l 581 18 q 399 -13 493 -13 m 305 870 l 455 1122 l 575 1122 l 408 870 l 305 870 z "},"č":{"ha":608,"x_min":65,"x_max":581,"o":"m 399 -13 q 150 81 235 -13 q 65 376 65 176 q 157 671 65 577 q 426 765 248 765 q 581 746 510 765 l 581 651 q 439 670 507 670 q 293 642 350 670 q 209 549 237 613 q 181 379 181 485 q 207 206 181 272 q 284 111 233 140 q 415 81 335 81 q 581 113 488 81 l 581 18 q 399 -13 493 -13 m 474 1122 l 564 1122 l 406 870 l 306 870 l 149 1122 l 238 1122 l 356 927 l 474 1122 z "},"ç":{"ha":608,"x_min":65,"x_max":581,"o":"m 439 670 q 293 642 350 670 q 209 549 237 613 q 181 379 181 485 q 207 206 181 272 q 284 111 233 140 q 415 81 335 81 q 581 113 488 81 l 581 18 q 399 -13 493 -13 l 394 -13 l 394 -72 q 475 -106 447 -78 q 502 -180 502 -134 q 465 -260 502 -231 q 360 -289 428 -289 q 297 -282 328 -289 q 242 -265 265 -276 l 242 -208 q 358 -234 294 -234 q 416 -220 397 -234 q 435 -176 435 -206 q 356 -117 435 -117 l 331 -117 l 331 -9 q 133 103 200 9 q 65 376 65 198 q 157 671 65 577 q 426 765 248 765 q 581 746 510 765 l 581 651 q 439 670 507 670 z "},"ḉ":{"ha":608,"x_min":65,"x_max":581,"o":"m 575 1122 l 408 870 l 305 870 l 455 1122 l 575 1122 m 439 670 q 293 642 350 670 q 209 549 237 613 q 181 379 181 485 q 207 206 181 272 q 284 111 233 140 q 415 81 335 81 q 581 113 488 81 l 581 18 q 399 -13 493 -13 l 394 -13 l 394 -72 q 475 -106 447 -78 q 502 -180 502 -134 q 465 -260 502 -231 q 360 -289 428 -289 q 297 -282 328 -289 q 242 -265 265 -276 l 242 -208 q 358 -234 294 -234 q 416 -220 397 -234 q 435 -176 435 -206 q 356 -117 435 -117 l 331 -117 l 331 -9 q 133 103 200 9 q 65 376 65 198 q 157 671 65 577 q 426 765 248 765 q 581 746 510 765 l 581 651 q 439 670 507 670 z "},"ĉ":{"ha":608,"x_min":65,"x_max":581,"o":"m 399 -13 q 150 81 235 -13 q 65 376 65 176 q 157 671 65 577 q 426 765 248 765 q 581 746 510 765 l 581 651 q 439 670 507 670 q 293 642 350 670 q 209 549 237 613 q 181 379 181 485 q 207 206 181 272 q 284 111 233 140 q 415 81 335 81 q 581 113 488 81 l 581 18 q 399 -13 493 -13 m 561 870 l 472 870 l 356 1065 l 240 870 l 151 870 l 306 1122 l 406 1122 l 561 870 z "},"ċ":{"ha":608,"x_min":65,"x_max":581,"o":"m 399 -13 q 150 81 235 -13 q 65 376 65 176 q 157 671 65 577 q 426 765 248 765 q 581 746 510 765 l 581 651 q 439 670 507 670 q 293 642 350 670 q 209 549 237 613 q 181 379 181 485 q 207 206 181 272 q 284 111 233 140 q 415 81 335 81 q 581 113 488 81 l 581 18 q 399 -13 493 -13 m 356 917 q 299 935 319 917 q 278 987 278 953 q 299 1039 278 1020 q 356 1058 319 1058 q 413 1039 393 1058 q 433 987 433 1020 q 413 935 433 953 q 356 917 393 917 z "},"d":{"ha":784,"x_min":65,"x_max":679,"o":"m 362 -13 q 209 25 276 -13 q 104 147 142 63 q 65 361 65 231 q 161 664 65 563 q 446 765 258 765 q 568 755 500 765 l 568 1122 l 679 1122 l 679 0 l 584 0 l 576 82 l 569 82 q 481 13 534 38 q 362 -13 427 -13 m 388 83 q 488 106 440 83 q 568 176 536 129 l 568 661 q 508 670 542 667 q 444 674 475 674 q 244 602 310 674 q 178 372 178 531 q 233 148 178 214 q 388 83 288 83 z "},"ð":{"ha":772,"x_min":65,"x_max":706,"o":"m 541 918 q 662 669 618 803 q 706 405 706 535 q 622 89 706 192 q 387 -14 538 -14 q 150 82 234 -14 q 65 376 65 177 q 148 668 65 573 q 378 763 231 763 q 536 715 472 763 q 435 900 498 812 l 142 850 l 129 919 l 385 963 q 213 1122 310 1049 l 351 1122 q 494 982 429 1064 l 676 1013 l 689 943 l 541 918 m 387 77 q 539 148 485 77 q 592 374 592 218 q 540 606 592 537 q 385 674 487 674 q 231 606 284 674 q 178 377 178 538 q 232 146 178 215 q 387 77 285 77 z "},"ď":{"ha":784,"x_min":65,"x_max":840,"o":"m 362 -13 q 209 25 276 -13 q 104 147 142 63 q 65 361 65 231 q 161 664 65 563 q 446 765 258 765 q 568 755 500 765 l 568 1122 l 679 1122 l 679 0 l 584 0 l 576 82 l 569 82 q 481 13 534 38 q 362 -13 427 -13 m 388 83 q 488 106 440 83 q 568 176 536 129 l 568 661 q 508 670 542 667 q 444 674 475 674 q 244 602 310 674 q 178 372 178 531 q 233 148 178 214 q 388 83 288 83 m 742 819 q 757 1122 757 942 l 840 1122 q 831 966 840 1046 q 806 819 822 887 l 742 819 z "},"đ":{"ha":784,"x_min":65,"x_max":778,"o":"m 778 902 l 679 902 l 679 0 l 584 0 l 576 82 l 569 82 q 481 13 534 38 q 362 -13 427 -13 q 209 25 276 -13 q 104 147 142 63 q 65 361 65 231 q 161 664 65 563 q 446 765 258 765 q 568 755 500 765 l 568 902 l 323 902 l 323 980 l 568 980 l 568 1122 l 679 1122 l 679 980 l 778 980 l 778 902 m 568 661 q 508 670 542 667 q 444 674 475 674 q 244 602 310 674 q 178 372 178 531 q 233 148 178 214 q 388 83 288 83 q 488 106 440 83 q 568 176 536 129 l 568 661 z "},"ḍ":{"ha":784,"x_min":65,"x_max":679,"o":"m 362 -13 q 209 25 276 -13 q 104 147 142 63 q 65 361 65 231 q 161 664 65 563 q 446 765 258 765 q 568 755 500 765 l 568 1122 l 679 1122 l 679 0 l 584 0 l 576 82 l 569 82 q 481 13 534 38 q 362 -13 427 -13 m 388 83 q 488 106 440 83 q 568 176 536 129 l 568 661 q 508 670 542 667 q 444 674 475 674 q 244 602 310 674 q 178 372 178 531 q 233 148 178 214 q 388 83 288 83 m 393 -250 q 341 -232 360 -250 q 322 -182 322 -213 q 341 -132 322 -151 q 393 -113 360 -113 q 445 -132 426 -113 q 464 -182 464 -151 q 445 -232 464 -213 q 393 -250 426 -250 z "},"ḏ":{"ha":784,"x_min":65,"x_max":679,"o":"m 362 -13 q 209 25 276 -13 q 104 147 142 63 q 65 361 65 231 q 161 664 65 563 q 446 765 258 765 q 568 755 500 765 l 568 1122 l 679 1122 l 679 0 l 584 0 l 576 82 l 569 82 q 481 13 534 38 q 362 -13 427 -13 m 388 83 q 488 106 440 83 q 568 176 536 129 l 568 661 q 508 670 542 667 q 444 674 475 674 q 244 602 310 674 q 178 372 178 531 q 233 148 178 214 q 388 83 288 83 m 194 -219 l 194 -144 l 591 -144 l 591 -219 l 194 -219 z "},"ǳ":{"ha":1422,"x_min":65,"x_max":1384,"o":"m 362 -13 q 209 25 276 -13 q 104 147 142 63 q 65 361 65 231 q 161 664 65 563 q 446 765 258 765 q 568 755 500 765 l 568 1122 l 679 1122 l 679 0 l 584 0 l 576 82 l 569 82 q 481 13 534 38 q 362 -13 427 -13 m 388 83 q 488 106 440 83 q 568 176 536 129 l 568 661 q 508 670 542 667 q 444 674 475 674 q 244 602 310 674 q 178 372 178 531 q 233 148 178 214 q 388 83 288 83 m 967 92 l 1384 92 l 1384 0 l 827 0 l 827 69 l 1236 662 l 835 662 l 835 753 l 1376 753 l 1376 685 l 967 92 z "},"ǆ":{"ha":1422,"x_min":65,"x_max":1384,"o":"m 362 -13 q 209 25 276 -13 q 104 147 142 63 q 65 361 65 231 q 161 664 65 563 q 446 765 258 765 q 568 755 500 765 l 568 1122 l 679 1122 l 679 0 l 584 0 l 576 82 l 569 82 q 481 13 534 38 q 362 -13 427 -13 m 388 83 q 488 106 440 83 q 568 176 536 129 l 568 661 q 508 670 542 667 q 444 674 475 674 q 244 602 310 674 q 178 372 178 531 q 233 148 178 214 q 388 83 288 83 m 967 92 l 1384 92 l 1384 0 l 827 0 l 827 69 l 1236 662 l 835 662 l 835 753 l 1376 753 l 1376 685 l 967 92 m 1224 1122 l 1313 1122 l 1156 870 l 1056 870 l 898 1122 l 988 1122 l 1106 927 l 1224 1122 z "},"e":{"ha":715,"x_min":65,"x_max":660,"o":"m 660 340 l 178 340 q 209 187 181 244 q 294 103 238 129 q 435 78 349 78 q 623 108 517 78 l 623 17 q 422 -13 520 -13 q 154 80 242 -13 q 65 377 65 173 q 145 668 65 571 q 370 765 226 765 q 586 668 511 765 q 660 374 660 572 l 660 340 m 369 684 q 229 622 278 684 q 178 416 181 559 l 553 416 q 505 622 551 560 q 369 684 458 684 z "},"é":{"ha":715,"x_min":65,"x_max":660,"o":"m 660 340 l 178 340 q 209 187 181 244 q 294 103 238 129 q 435 78 349 78 q 623 108 517 78 l 623 17 q 422 -13 520 -13 q 154 80 242 -13 q 65 377 65 173 q 145 668 65 571 q 370 765 226 765 q 586 668 511 765 q 660 374 660 572 l 660 340 m 369 684 q 229 622 278 684 q 178 416 181 559 l 553 416 q 505 622 551 560 q 369 684 458 684 m 317 870 l 467 1122 l 588 1122 l 420 870 l 317 870 z "},"ĕ":{"ha":715,"x_min":65,"x_max":660,"o":"m 660 340 l 178 340 q 209 187 181 244 q 294 103 238 129 q 435 78 349 78 q 623 108 517 78 l 623 17 q 422 -13 520 -13 q 154 80 242 -13 q 65 377 65 173 q 145 668 65 571 q 370 765 226 765 q 586 668 511 765 q 660 374 660 572 l 660 340 m 369 684 q 229 622 278 684 q 178 416 181 559 l 553 416 q 505 622 551 560 q 369 684 458 684 m 369 878 q 220 937 274 878 q 160 1104 165 996 l 235 1104 q 274 984 241 1024 q 369 944 306 944 q 465 984 433 944 q 502 1104 497 1024 l 576 1104 q 518 936 572 995 q 369 878 465 878 z "},"ě":{"ha":715,"x_min":65,"x_max":660,"o":"m 660 340 l 178 340 q 209 187 181 244 q 294 103 238 129 q 435 78 349 78 q 623 108 517 78 l 623 17 q 422 -13 520 -13 q 154 80 242 -13 q 65 377 65 173 q 145 668 65 571 q 370 765 226 765 q 586 668 511 765 q 660 374 660 572 l 660 340 m 369 684 q 229 622 278 684 q 178 416 181 559 l 553 416 q 505 622 551 560 q 369 684 458 684 m 487 1122 l 576 1122 l 419 870 l 319 870 l 161 1122 l 251 1122 l 369 927 l 487 1122 z "},"ḝ":{"ha":715,"x_min":65,"x_max":660,"o":"m 369 878 q 220 937 274 878 q 160 1104 165 996 l 235 1104 q 274 984 241 1024 q 369 944 306 944 q 465 984 433 944 q 502 1104 497 1024 l 576 1104 q 518 936 572 995 q 369 878 465 878 m 660 340 l 178 340 q 209 187 181 244 q 294 103 238 129 q 435 78 349 78 q 623 108 517 78 l 623 17 q 422 -13 520 -13 l 404 -13 l 404 -72 q 484 -106 457 -78 q 512 -180 512 -134 q 475 -260 512 -231 q 369 -289 438 -289 q 307 -282 338 -289 q 252 -265 275 -276 l 252 -208 q 367 -234 304 -234 q 426 -220 407 -234 q 445 -176 445 -206 q 366 -117 445 -117 l 340 -117 l 340 -8 q 134 104 202 11 q 65 377 65 197 q 145 668 65 571 q 370 765 226 765 q 586 668 511 765 q 660 374 660 572 l 660 340 m 369 684 q 229 622 278 684 q 178 416 181 559 l 553 416 q 505 622 551 560 q 369 684 458 684 z "},"ê":{"ha":715,"x_min":65,"x_max":660,"o":"m 660 340 l 178 340 q 209 187 181 244 q 294 103 238 129 q 435 78 349 78 q 623 108 517 78 l 623 17 q 422 -13 520 -13 q 154 80 242 -13 q 65 377 65 173 q 145 668 65 571 q 370 765 226 765 q 586 668 511 765 q 660 374 660 572 l 660 340 m 369 684 q 229 622 278 684 q 178 416 181 559 l 553 416 q 505 622 551 560 q 369 684 458 684 m 574 870 l 485 870 l 369 1065 l 253 870 l 163 870 l 319 1122 l 419 1122 l 574 870 z "},"ế":{"ha":715,"x_min":65,"x_max":743,"o":"m 660 340 l 178 340 q 209 187 181 244 q 294 103 238 129 q 435 78 349 78 q 623 108 517 78 l 623 17 q 422 -13 520 -13 q 154 80 242 -13 q 65 377 65 173 q 145 668 65 571 q 370 765 226 765 q 586 668 511 765 q 660 374 660 572 l 660 340 m 369 684 q 229 622 278 684 q 178 416 181 559 l 553 416 q 505 622 551 560 q 369 684 458 684 m 639 1297 l 743 1297 l 601 1109 l 515 1109 l 639 1297 m 319 1122 l 419 1122 l 574 870 l 485 870 l 369 1065 l 253 870 l 163 870 l 319 1122 z "},"ệ":{"ha":715,"x_min":65,"x_max":660,"o":"m 660 340 l 178 340 q 209 187 181 244 q 294 103 238 129 q 435 78 349 78 q 623 108 517 78 l 623 17 q 422 -13 520 -13 q 154 80 242 -13 q 65 377 65 173 q 145 668 65 571 q 370 765 226 765 q 586 668 511 765 q 660 374 660 572 l 660 340 m 369 684 q 229 622 278 684 q 178 416 181 559 l 553 416 q 505 622 551 560 q 369 684 458 684 m 369 -250 q 317 -232 336 -250 q 297 -182 297 -213 q 317 -132 297 -151 q 369 -113 336 -113 q 420 -132 401 -113 q 440 -182 440 -151 q 420 -232 440 -213 q 369 -250 401 -250 m 574 870 l 485 870 l 369 1065 l 253 870 l 163 870 l 319 1122 l 419 1122 l 574 870 z "},"ề":{"ha":715,"x_min":65,"x_max":660,"o":"m 660 340 l 178 340 q 209 187 181 244 q 294 103 238 129 q 435 78 349 78 q 623 108 517 78 l 623 17 q 422 -13 520 -13 q 154 80 242 -13 q 65 377 65 173 q 145 668 65 571 q 370 765 226 765 q 586 668 511 765 q 660 374 660 572 l 660 340 m 369 684 q 229 622 278 684 q 178 416 181 559 l 553 416 q 505 622 551 560 q 369 684 458 684 m 615 1109 l 530 1109 l 388 1297 l 491 1297 l 615 1109 m 319 1122 l 419 1122 l 574 870 l 485 870 l 369 1065 l 253 870 l 163 870 l 319 1122 z "},"ể":{"ha":715,"x_min":65,"x_max":692,"o":"m 660 340 l 178 340 q 209 187 181 244 q 294 103 238 129 q 435 78 349 78 q 623 108 517 78 l 623 17 q 422 -13 520 -13 q 154 80 242 -13 q 65 377 65 173 q 145 668 65 571 q 370 765 226 765 q 586 668 511 765 q 660 374 660 572 l 660 340 m 369 684 q 229 622 278 684 q 178 416 181 559 l 553 416 q 505 622 551 560 q 369 684 458 684 m 552 1302 q 658 1282 623 1302 q 692 1225 692 1261 q 677 1185 692 1199 q 631 1158 661 1172 q 593 1136 606 1146 q 578 1109 580 1126 l 512 1109 q 523 1143 513 1129 q 546 1164 533 1156 q 581 1182 559 1172 q 614 1199 603 1191 q 625 1219 625 1206 q 607 1243 625 1235 q 546 1251 590 1251 q 413 1230 478 1251 l 413 1280 q 477 1296 440 1290 q 552 1302 514 1302 m 319 1122 l 419 1122 l 574 870 l 485 870 l 369 1065 l 253 870 l 163 870 l 319 1122 z "},"ễ":{"ha":715,"x_min":65,"x_max":660,"o":"m 660 340 l 178 340 q 209 187 181 244 q 294 103 238 129 q 435 78 349 78 q 623 108 517 78 l 623 17 q 422 -13 520 -13 q 154 80 242 -13 q 65 377 65 173 q 145 668 65 571 q 370 765 226 765 q 586 668 511 765 q 660 374 660 572 l 660 340 m 369 684 q 229 622 278 684 q 178 416 181 559 l 553 416 q 505 622 551 560 q 369 684 458 684 m 472 1216 q 534 1227 507 1216 q 588 1263 562 1239 l 588 1192 q 471 1149 545 1149 q 418 1156 443 1149 q 358 1176 394 1163 q 305 1194 324 1189 q 265 1200 286 1200 q 203 1189 231 1200 q 149 1153 176 1177 l 149 1224 q 267 1267 192 1267 q 319 1260 294 1267 q 379 1240 344 1253 q 432 1222 413 1227 q 472 1216 451 1216 m 317 1108 l 420 1108 l 578 870 l 487 870 l 369 1057 l 250 870 l 158 870 l 317 1108 z "},"ȅ":{"ha":715,"x_min":65,"x_max":660,"o":"m 660 340 l 178 340 q 209 187 181 244 q 294 103 238 129 q 435 78 349 78 q 623 108 517 78 l 623 17 q 422 -13 520 -13 q 154 80 242 -13 q 65 377 65 173 q 145 668 65 571 q 370 765 226 765 q 586 668 511 765 q 660 374 660 572 l 660 340 m 369 684 q 229 622 278 684 q 178 416 181 559 l 553 416 q 505 622 551 560 q 369 684 458 684 m 208 870 l 103 1122 l 199 1122 l 296 870 l 208 870 m 442 870 l 338 1122 l 433 1122 l 529 870 l 442 870 z "},"ë":{"ha":715,"x_min":65,"x_max":660,"o":"m 660 340 l 178 340 q 209 187 181 244 q 294 103 238 129 q 435 78 349 78 q 623 108 517 78 l 623 17 q 422 -13 520 -13 q 154 80 242 -13 q 65 377 65 173 q 145 668 65 571 q 370 765 226 765 q 586 668 511 765 q 660 374 660 572 l 660 340 m 369 684 q 229 622 278 684 q 178 416 181 559 l 553 416 q 505 622 551 560 q 369 684 458 684 m 218 918 q 166 936 185 918 q 147 987 147 955 q 166 1038 147 1019 q 218 1056 185 1056 q 270 1038 251 1056 q 289 987 289 1019 q 270 936 289 955 q 218 918 251 918 m 519 918 q 468 936 487 918 q 449 987 449 955 q 468 1038 449 1019 q 519 1056 487 1056 q 572 1038 553 1056 q 591 987 591 1019 q 572 936 591 955 q 519 918 553 918 z "},"ė":{"ha":715,"x_min":65,"x_max":660,"o":"m 660 340 l 178 340 q 209 187 181 244 q 294 103 238 129 q 435 78 349 78 q 623 108 517 78 l 623 17 q 422 -13 520 -13 q 154 80 242 -13 q 65 377 65 173 q 145 668 65 571 q 370 765 226 765 q 586 668 511 765 q 660 374 660 572 l 660 340 m 369 684 q 229 622 278 684 q 178 416 181 559 l 553 416 q 505 622 551 560 q 369 684 458 684 m 369 917 q 311 935 331 917 q 291 987 291 953 q 311 1039 291 1020 q 369 1058 332 1058 q 426 1039 406 1058 q 446 987 446 1020 q 426 935 446 953 q 369 917 406 917 z "},"ẹ":{"ha":715,"x_min":65,"x_max":660,"o":"m 660 340 l 178 340 q 209 187 181 244 q 294 103 238 129 q 435 78 349 78 q 623 108 517 78 l 623 17 q 422 -13 520 -13 q 154 80 242 -13 q 65 377 65 173 q 145 668 65 571 q 370 765 226 765 q 586 668 511 765 q 660 374 660 572 l 660 340 m 369 684 q 229 622 278 684 q 178 416 181 559 l 553 416 q 505 622 551 560 q 369 684 458 684 m 369 -250 q 317 -232 336 -250 q 297 -182 297 -213 q 317 -132 297 -151 q 369 -113 336 -113 q 420 -132 401 -113 q 440 -182 440 -151 q 420 -232 440 -213 q 369 -250 401 -250 z "},"è":{"ha":715,"x_min":65,"x_max":660,"o":"m 660 340 l 178 340 q 209 187 181 244 q 294 103 238 129 q 435 78 349 78 q 623 108 517 78 l 623 17 q 422 -13 520 -13 q 154 80 242 -13 q 65 377 65 173 q 145 668 65 571 q 370 765 226 765 q 586 668 511 765 q 660 374 660 572 l 660 340 m 369 684 q 229 622 278 684 q 178 416 181 559 l 553 416 q 505 622 551 560 q 369 684 458 684 m 317 870 l 150 1122 l 270 1122 l 420 870 l 317 870 z "},"ẻ":{"ha":715,"x_min":65,"x_max":660,"o":"m 660 340 l 178 340 q 209 187 181 244 q 294 103 238 129 q 435 78 349 78 q 623 108 517 78 l 623 17 q 422 -13 520 -13 q 154 80 242 -13 q 65 377 65 173 q 145 668 65 571 q 370 765 226 765 q 586 668 511 765 q 660 374 660 572 l 660 340 m 369 684 q 229 622 278 684 q 178 416 181 559 l 553 416 q 505 622 551 560 q 369 684 458 684 m 335 870 q 345 916 335 897 q 368 947 355 935 q 401 974 381 959 q 433 1001 423 990 q 444 1028 444 1012 q 424 1063 444 1051 q 363 1074 405 1074 q 253 1058 304 1074 l 253 1113 q 307 1126 276 1121 q 367 1131 338 1131 q 513 1033 513 1131 q 505 995 513 1011 q 485 969 497 979 q 456 944 474 958 q 417 910 430 926 q 403 870 404 895 l 335 870 z "},"ȇ":{"ha":715,"x_min":65,"x_max":660,"o":"m 660 340 l 178 340 q 209 187 181 244 q 294 103 238 129 q 435 78 349 78 q 623 108 517 78 l 623 17 q 422 -13 520 -13 q 154 80 242 -13 q 65 377 65 173 q 145 668 65 571 q 370 765 226 765 q 586 668 511 765 q 660 374 660 572 l 660 340 m 369 684 q 229 622 278 684 q 178 416 181 559 l 553 416 q 505 622 551 560 q 369 684 458 684 m 160 890 q 218 1058 165 999 q 367 1116 272 1116 q 518 1057 463 1116 q 576 890 572 998 l 502 890 q 464 1009 497 969 q 367 1049 431 1049 q 272 1010 304 1049 q 235 890 240 970 l 160 890 z "},"ē":{"ha":715,"x_min":65,"x_max":660,"o":"m 660 340 l 178 340 q 209 187 181 244 q 294 103 238 129 q 435 78 349 78 q 623 108 517 78 l 623 17 q 422 -13 520 -13 q 154 80 242 -13 q 65 377 65 173 q 145 668 65 571 q 370 765 226 765 q 586 668 511 765 q 660 374 660 572 l 660 340 m 369 684 q 229 622 278 684 q 178 416 181 559 l 553 416 q 505 622 551 560 q 369 684 458 684 m 153 950 l 153 1025 l 584 1025 l 584 950 l 153 950 z "},"ḗ":{"ha":715,"x_min":65,"x_max":660,"o":"m 660 340 l 178 340 q 209 187 181 244 q 294 103 238 129 q 435 78 349 78 q 623 108 517 78 l 623 17 q 422 -13 520 -13 q 154 80 242 -13 q 65 377 65 173 q 145 668 65 571 q 370 765 226 765 q 586 668 511 765 q 660 374 660 572 l 660 340 m 369 684 q 229 622 278 684 q 178 416 181 559 l 553 416 q 505 622 551 560 q 369 684 458 684 m 153 950 l 153 1025 l 584 1025 l 584 950 l 153 950 m 317 1124 l 441 1321 l 561 1321 l 419 1124 l 317 1124 z "},"ḕ":{"ha":715,"x_min":65,"x_max":660,"o":"m 660 340 l 178 340 q 209 187 181 244 q 294 103 238 129 q 435 78 349 78 q 623 108 517 78 l 623 17 q 422 -13 520 -13 q 154 80 242 -13 q 65 377 65 173 q 145 668 65 571 q 370 765 226 765 q 586 668 511 765 q 660 374 660 572 l 660 340 m 369 684 q 229 622 278 684 q 178 416 181 559 l 553 416 q 505 622 551 560 q 369 684 458 684 m 153 950 l 153 1025 l 584 1025 l 584 950 l 153 950 m 318 1124 l 176 1321 l 296 1321 l 419 1124 l 318 1124 z "},"ę":{"ha":715,"x_min":65,"x_max":660,"o":"m 660 340 l 178 340 q 209 187 181 244 q 294 103 238 129 q 435 78 349 78 q 623 108 517 78 l 623 17 q 476 -61 518 -17 q 435 -154 435 -105 q 458 -212 435 -192 q 523 -233 481 -233 q 623 -206 572 -233 l 623 -262 q 571 -282 599 -274 q 513 -289 542 -289 q 403 -255 442 -289 q 364 -161 364 -221 q 451 -12 364 -70 q 422 -13 441 -13 q 154 80 242 -13 q 65 377 65 173 q 145 668 65 571 q 370 765 226 765 q 586 668 511 765 q 660 374 660 572 l 660 340 m 369 683 q 230 620 278 683 q 178 415 181 558 l 553 415 q 505 620 551 558 q 369 683 458 683 z "},"ẽ":{"ha":715,"x_min":65,"x_max":660,"o":"m 660 340 l 178 340 q 209 187 181 244 q 294 103 238 129 q 435 78 349 78 q 623 108 517 78 l 623 17 q 422 -13 520 -13 q 154 80 242 -13 q 65 377 65 173 q 145 668 65 571 q 370 765 226 765 q 586 668 511 765 q 660 374 660 572 l 660 340 m 369 684 q 229 622 278 684 q 178 416 181 559 l 553 416 q 505 622 551 560 q 369 684 458 684 m 468 934 q 418 941 442 934 q 358 965 395 949 q 309 984 329 978 q 268 991 288 991 q 207 978 234 991 q 153 938 180 966 l 153 1019 q 269 1065 197 1065 q 319 1058 296 1065 q 380 1035 342 1051 q 429 1015 408 1022 q 469 1008 449 1008 q 530 1021 503 1008 q 584 1061 558 1034 l 584 981 q 468 934 540 934 z "},"ə":{"ha":715,"x_min":55,"x_max":650,"o":"m 293 767 q 561 674 473 767 q 650 376 650 581 q 570 85 650 183 q 345 -12 490 -12 q 130 85 204 -12 q 55 379 55 182 l 55 414 l 538 414 q 506 567 535 509 q 422 650 477 624 q 280 676 366 676 q 92 645 198 676 l 92 736 q 293 767 195 767 m 347 69 q 486 132 438 69 q 538 338 535 194 l 162 338 q 211 132 165 194 q 347 69 257 69 z "},"f":{"ha":498,"x_min":13,"x_max":531,"o":"m 440 1042 q 307 1002 349 1042 q 265 872 265 963 l 265 753 l 502 753 l 502 662 l 265 662 l 265 0 l 155 0 l 155 662 l 13 662 l 13 753 l 155 753 l 155 866 q 224 1068 155 999 q 429 1136 294 1136 q 531 1128 481 1136 l 531 1034 q 440 1042 485 1042 z "},"g":{"ha":784,"x_min":65,"x_max":679,"o":"m 335 -319 q 222 -311 281 -319 q 113 -285 163 -302 l 113 -192 q 329 -228 226 -228 q 465 -205 413 -228 q 542 -131 517 -182 q 568 7 568 -79 l 568 80 l 561 80 q 472 14 526 38 q 353 -10 419 -10 q 206 28 271 -10 q 103 149 142 66 q 65 362 65 232 q 161 664 65 563 q 447 765 258 765 q 567 756 506 765 q 679 731 628 747 l 679 24 q 641 -174 679 -98 q 527 -284 603 -249 q 335 -319 451 -319 m 386 85 q 488 107 439 85 q 568 172 536 129 l 568 659 q 438 674 506 674 q 243 602 308 674 q 178 372 178 530 q 233 150 178 215 q 386 85 288 85 z "},"ǵ":{"ha":784,"x_min":65,"x_max":679,"o":"m 335 -319 q 222 -311 281 -319 q 113 -285 163 -302 l 113 -192 q 329 -228 226 -228 q 465 -205 413 -228 q 542 -131 517 -182 q 568 7 568 -79 l 568 80 l 561 80 q 472 14 526 38 q 353 -10 419 -10 q 206 28 271 -10 q 103 149 142 66 q 65 362 65 232 q 161 664 65 563 q 447 765 258 765 q 567 756 506 765 q 679 731 628 747 l 679 24 q 641 -174 679 -98 q 527 -284 603 -249 q 335 -319 451 -319 m 386 85 q 488 107 439 85 q 568 172 536 129 l 568 659 q 438 674 506 674 q 243 602 308 674 q 178 372 178 530 q 233 150 178 215 q 386 85 288 85 m 354 870 l 504 1122 l 624 1122 l 457 870 l 354 870 z "},"ğ":{"ha":784,"x_min":65,"x_max":679,"o":"m 335 -319 q 222 -311 281 -319 q 113 -285 163 -302 l 113 -192 q 329 -228 226 -228 q 465 -205 413 -228 q 542 -131 517 -182 q 568 7 568 -79 l 568 80 l 561 80 q 472 14 526 38 q 353 -10 419 -10 q 206 28 271 -10 q 103 149 142 66 q 65 362 65 232 q 161 664 65 563 q 447 765 258 765 q 567 756 506 765 q 679 731 628 747 l 679 24 q 641 -174 679 -98 q 527 -284 603 -249 q 335 -319 451 -319 m 386 85 q 488 107 439 85 q 568 172 536 129 l 568 659 q 438 674 506 674 q 243 602 308 674 q 178 372 178 530 q 233 150 178 215 q 386 85 288 85 m 406 878 q 257 937 311 878 q 197 1104 202 996 l 272 1104 q 310 984 278 1024 q 406 944 343 944 q 502 984 469 944 q 539 1104 534 1024 l 613 1104 q 555 936 609 995 q 406 878 501 878 z "},"ǧ":{"ha":784,"x_min":65,"x_max":679,"o":"m 335 -319 q 222 -311 281 -319 q 113 -285 163 -302 l 113 -192 q 329 -228 226 -228 q 465 -205 413 -228 q 542 -131 517 -182 q 568 7 568 -79 l 568 80 l 561 80 q 472 14 526 38 q 353 -10 419 -10 q 206 28 271 -10 q 103 149 142 66 q 65 362 65 232 q 161 664 65 563 q 447 765 258 765 q 567 756 506 765 q 679 731 628 747 l 679 24 q 641 -174 679 -98 q 527 -284 603 -249 q 335 -319 451 -319 m 386 85 q 488 107 439 85 q 568 172 536 129 l 568 659 q 438 674 506 674 q 243 602 308 674 q 178 372 178 530 q 233 150 178 215 q 386 85 288 85 m 524 1122 l 613 1122 l 456 870 l 356 870 l 198 1122 l 288 1122 l 406 927 l 524 1122 z "},"ĝ":{"ha":784,"x_min":65,"x_max":679,"o":"m 335 -319 q 222 -311 281 -319 q 113 -285 163 -302 l 113 -192 q 329 -228 226 -228 q 465 -205 413 -228 q 542 -131 517 -182 q 568 7 568 -79 l 568 80 l 561 80 q 472 14 526 38 q 353 -10 419 -10 q 206 28 271 -10 q 103 149 142 66 q 65 362 65 232 q 161 664 65 563 q 447 765 258 765 q 567 756 506 765 q 679 731 628 747 l 679 24 q 641 -174 679 -98 q 527 -284 603 -249 q 335 -319 451 -319 m 386 85 q 488 107 439 85 q 568 172 536 129 l 568 659 q 438 674 506 674 q 243 602 308 674 q 178 372 178 530 q 233 150 178 215 q 386 85 288 85 m 610 870 l 522 870 l 406 1065 l 290 870 l 200 870 l 356 1122 l 456 1122 l 610 870 z "},"ģ":{"ha":784,"x_min":65,"x_max":679,"o":"m 335 -319 q 222 -311 281 -319 q 113 -285 163 -302 l 113 -192 q 329 -228 226 -228 q 465 -205 413 -228 q 542 -131 517 -182 q 568 7 568 -79 l 568 80 l 561 80 q 472 14 526 38 q 353 -10 419 -10 q 206 28 271 -10 q 103 149 142 66 q 65 362 65 232 q 161 664 65 563 q 447 765 258 765 q 567 756 506 765 q 679 731 628 747 l 679 24 q 641 -174 679 -98 q 527 -284 603 -249 q 335 -319 451 -319 m 386 85 q 488 107 439 85 q 568 172 536 129 l 568 659 q 438 674 506 674 q 243 602 308 674 q 178 372 178 530 q 233 150 178 215 q 386 85 288 85 m 413 1031 q 461 1014 444 1029 q 478 974 478 999 q 460 933 478 948 q 408 917 442 917 q 352 937 371 917 q 333 994 333 956 q 343 1060 333 1024 q 372 1128 354 1097 l 442 1128 q 413 1031 418 1076 z "},"ġ":{"ha":784,"x_min":65,"x_max":679,"o":"m 335 -319 q 222 -311 281 -319 q 113 -285 163 -302 l 113 -192 q 329 -228 226 -228 q 465 -205 413 -228 q 542 -131 517 -182 q 568 7 568 -79 l 568 80 l 561 80 q 472 14 526 38 q 353 -10 419 -10 q 206 28 271 -10 q 103 149 142 66 q 65 362 65 232 q 161 664 65 563 q 447 765 258 765 q 567 756 506 765 q 679 731 628 747 l 679 24 q 641 -174 679 -98 q 527 -284 603 -249 q 335 -319 451 -319 m 386 85 q 488 107 439 85 q 568 172 536 129 l 568 659 q 438 674 506 674 q 243 602 308 674 q 178 372 178 530 q 233 150 178 215 q 386 85 288 85 m 406 917 q 348 935 368 917 q 328 987 328 953 q 348 1039 328 1020 q 406 1058 369 1058 q 463 1039 442 1058 q 483 987 483 1020 q 463 935 483 953 q 406 917 442 917 z "},"ḡ":{"ha":784,"x_min":65,"x_max":679,"o":"m 335 -319 q 222 -311 281 -319 q 113 -285 163 -302 l 113 -192 q 329 -228 226 -228 q 465 -205 413 -228 q 542 -131 517 -182 q 568 7 568 -79 l 568 80 l 561 80 q 472 14 526 38 q 353 -10 419 -10 q 206 28 271 -10 q 103 149 142 66 q 65 362 65 232 q 161 664 65 563 q 447 765 258 765 q 567 756 506 765 q 679 731 628 747 l 679 24 q 641 -174 679 -98 q 527 -284 603 -249 q 335 -319 451 -319 m 386 85 q 488 107 439 85 q 568 172 536 129 l 568 659 q 438 674 506 674 q 243 602 308 674 q 178 372 178 530 q 233 150 178 215 q 386 85 288 85 m 190 950 l 190 1025 l 621 1025 l 621 950 l 190 950 z "},"h":{"ha":790,"x_min":105,"x_max":692,"o":"m 105 1122 l 216 1122 l 216 669 l 223 669 q 327 741 268 717 q 455 765 386 765 q 629 702 565 765 q 692 499 692 638 l 692 0 l 581 0 l 581 494 q 541 625 581 586 q 424 665 500 665 q 310 640 366 665 q 216 565 254 616 l 216 0 l 105 0 l 105 1122 z "},"ħ":{"ha":790,"x_min":6,"x_max":692,"o":"m 455 765 q 629 702 565 765 q 692 499 692 638 l 692 0 l 581 0 l 581 494 q 541 625 581 586 q 424 665 500 665 q 310 640 366 665 q 216 565 254 616 l 216 0 l 105 0 l 105 901 l 6 901 l 6 979 l 105 979 l 105 1122 l 216 1122 l 216 979 l 461 979 l 461 901 l 216 901 l 216 669 l 223 669 q 327 741 268 717 q 455 765 386 765 z "},"ḫ":{"ha":790,"x_min":105,"x_max":692,"o":"m 105 1122 l 216 1122 l 216 669 l 223 669 q 327 741 268 717 q 455 765 386 765 q 629 702 565 765 q 692 499 692 638 l 692 0 l 581 0 l 581 494 q 541 625 581 586 q 424 665 500 665 q 310 640 366 665 q 216 565 254 616 l 216 0 l 105 0 l 105 1122 m 400 -292 q 248 -243 303 -292 q 191 -108 193 -193 l 266 -108 q 400 -226 272 -226 q 533 -108 527 -226 l 607 -108 q 551 -243 606 -194 q 400 -292 497 -292 z "},"ĥ":{"ha":790,"x_min":105,"x_max":692,"o":"m 105 1122 l 216 1122 l 216 669 l 223 669 q 327 741 268 717 q 455 765 386 765 q 629 702 565 765 q 692 499 692 638 l 692 0 l 581 0 l 581 494 q 541 625 581 586 q 424 665 500 665 q 310 640 366 665 q 216 565 254 616 l 216 0 l 105 0 l 105 1122 m 621 1183 l 524 1183 l 399 1332 l 275 1183 l 178 1183 l 348 1381 l 451 1381 l 621 1183 z "},"ḥ":{"ha":790,"x_min":105,"x_max":692,"o":"m 105 1122 l 216 1122 l 216 669 l 223 669 q 327 741 268 717 q 455 765 386 765 q 629 702 565 765 q 692 499 692 638 l 692 0 l 581 0 l 581 494 q 541 625 581 586 q 424 665 500 665 q 310 640 366 665 q 216 565 254 616 l 216 0 l 105 0 l 105 1122 m 399 -250 q 347 -232 367 -250 q 328 -182 328 -213 q 347 -132 328 -151 q 399 -113 367 -113 q 451 -132 432 -113 q 470 -182 470 -151 q 451 -232 470 -213 q 399 -250 432 -250 z "},"i":{"ha":322,"x_min":83,"x_max":238,"o":"m 105 0 l 105 753 l 216 753 l 216 0 l 105 0 m 160 917 q 103 935 123 917 q 83 987 83 953 q 103 1039 83 1020 q 160 1058 124 1058 q 217 1039 197 1058 q 238 987 238 1020 q 217 935 238 953 q 160 917 197 917 z "},"ı":{"ha":322,"x_min":105,"x_max":216,"o":"m 105 0 l 105 753 l 216 753 l 216 0 l 105 0 z "},"í":{"ha":322,"x_min":105,"x_max":379,"o":"m 105 0 l 105 753 l 216 753 l 216 0 l 105 0 m 109 870 l 259 1122 l 379 1122 l 212 870 l 109 870 z "},"ĭ":{"ha":322,"x_min":-48,"x_max":368,"o":"m 105 0 l 105 753 l 216 753 l 216 0 l 105 0 m 161 878 q 11 937 66 878 q -48 1104 -43 996 l 27 1104 q 65 984 33 1024 q 161 944 98 944 q 257 984 224 944 q 294 1104 289 1024 l 368 1104 q 310 936 364 995 q 161 878 256 878 z "},"î":{"ha":322,"x_min":-45,"x_max":365,"o":"m 105 0 l 105 753 l 216 753 l 216 0 l 105 0 m 365 870 l 276 870 l 160 1065 l 44 870 l -45 870 l 110 1122 l 210 1122 l 365 870 z "},"ȉ":{"ha":322,"x_min":-105,"x_max":321,"o":"m 105 0 l 105 753 l 216 753 l 216 0 l 105 0 m 0 870 l -105 1122 l -9 1122 l 88 870 l 0 870 m 233 870 l 129 1122 l 224 1122 l 321 870 l 233 870 z "},"ï":{"ha":322,"x_min":-62,"x_max":383,"o":"m 105 0 l 105 753 l 216 753 l 216 0 l 105 0 m 10 918 q -43 936 -24 918 q -62 987 -62 955 q -43 1038 -62 1019 q 10 1056 -24 1056 q 61 1038 42 1056 q 81 987 81 1019 q 61 936 81 955 q 10 918 42 918 m 311 918 q 259 936 278 918 q 240 987 240 955 q 259 1038 240 1019 q 311 1056 278 1056 q 364 1038 344 1056 q 383 987 383 1019 q 364 936 383 955 q 311 918 344 918 z "},"ḯ":{"ha":322,"x_min":-62,"x_max":383,"o":"m 105 0 l 105 753 l 216 753 l 216 0 l 105 0 m 10 918 q -43 936 -24 918 q -62 987 -62 955 q -43 1038 -62 1019 q 10 1056 -24 1056 q 61 1038 42 1056 q 81 987 81 1019 q 61 936 81 955 q 10 918 42 918 m 311 918 q 259 936 278 918 q 240 987 240 955 q 259 1038 240 1019 q 311 1056 278 1056 q 364 1038 344 1056 q 383 987 383 1019 q 364 936 383 955 q 311 918 344 918 m 133 1185 l 257 1383 l 377 1383 l 235 1185 l 133 1185 z "},"ị":{"ha":322,"x_min":83,"x_max":238,"o":"m 105 0 l 105 753 l 216 753 l 216 0 l 105 0 m 160 917 q 103 935 123 917 q 83 987 83 953 q 103 1039 83 1020 q 160 1058 124 1058 q 217 1039 197 1058 q 238 987 238 1020 q 217 935 238 953 q 160 917 197 917 m 160 -250 q 108 -232 128 -250 q 89 -182 89 -213 q 108 -132 89 -151 q 160 -113 128 -113 q 212 -132 193 -113 q 231 -182 231 -151 q 212 -232 231 -213 q 160 -250 193 -250 z "},"ì":{"ha":322,"x_min":-58,"x_max":216,"o":"m 105 0 l 105 753 l 216 753 l 216 0 l 105 0 m 109 870 l -58 1122 l 62 1122 l 212 870 l 109 870 z "},"ỉ":{"ha":322,"x_min":44,"x_max":304,"o":"m 105 0 l 105 753 l 216 753 l 216 0 l 105 0 m 126 870 q 137 916 127 897 q 159 947 147 935 q 193 974 172 959 q 225 1001 215 990 q 235 1028 235 1012 q 216 1063 235 1051 q 154 1074 197 1074 q 44 1058 96 1074 l 44 1113 q 98 1126 67 1121 q 158 1131 129 1131 q 304 1033 304 1131 q 296 995 304 1011 q 277 969 288 979 q 247 944 266 958 q 209 910 222 926 q 194 870 196 895 l 126 870 z "},"ȋ":{"ha":322,"x_min":-48,"x_max":368,"o":"m 105 0 l 105 753 l 216 753 l 216 0 l 105 0 m -48 890 q 10 1058 -43 999 q 159 1116 63 1116 q 309 1057 255 1116 q 368 890 364 998 l 294 890 q 255 1009 288 969 q 159 1049 222 1049 q 64 1010 96 1049 q 27 890 32 970 l -48 890 z "},"ī":{"ha":322,"x_min":-55,"x_max":376,"o":"m 105 0 l 105 753 l 216 753 l 216 0 l 105 0 m -55 950 l -55 1025 l 376 1025 l 376 950 l -55 950 z "},"į":{"ha":322,"x_min":14,"x_max":273,"o":"m 160 917 q 103 935 123 917 q 83 987 83 953 q 103 1039 83 1020 q 160 1058 124 1058 q 217 1039 197 1058 q 238 987 238 1020 q 217 935 238 953 q 160 917 197 917 m 173 -233 q 273 -206 222 -233 l 273 -262 q 221 -282 249 -274 q 163 -289 192 -289 q 53 -255 92 -289 q 14 -161 14 -221 q 38 -75 14 -114 q 114 0 62 -35 l 105 0 l 105 753 l 216 753 l 216 0 q 115 -74 145 -37 q 85 -155 85 -111 q 108 -212 85 -192 q 173 -233 131 -233 z "},"ĩ":{"ha":322,"x_min":-55,"x_max":376,"o":"m 105 0 l 105 753 l 216 753 l 216 0 l 105 0 m 260 934 q 210 941 233 934 q 149 965 187 949 q 100 984 121 978 q 60 991 80 991 q -1 978 26 991 q -55 938 -28 966 l -55 1019 q 61 1065 -12 1065 q 111 1058 88 1065 q 172 1035 134 1051 q 220 1015 200 1022 q 261 1008 241 1008 q 322 1021 294 1008 q 376 1061 349 1034 l 376 981 q 260 934 331 934 z "},"j":{"ha":322,"x_min":-19,"x_max":237,"o":"m -19 -272 q 76 -92 47 -182 q 105 118 105 -2 l 105 753 l 216 753 l 216 124 q 178 -113 216 -10 q 55 -322 141 -216 l -19 -272 m 160 920 q 102 939 122 920 q 82 990 82 957 q 102 1042 82 1024 q 160 1061 123 1061 q 217 1042 197 1061 q 237 990 237 1024 q 217 939 237 957 q 160 920 197 920 z "},"ȷ":{"ha":322,"x_min":-19,"x_max":216,"o":"m -19 -272 q 76 -92 47 -182 q 105 118 105 -2 l 105 753 l 216 753 l 216 124 q 178 -113 216 -10 q 55 -322 141 -216 l -19 -272 z "},"ĵ":{"ha":322,"x_min":-46,"x_max":365,"o":"m -19 -272 q 76 -92 47 -182 q 105 118 105 -2 l 105 753 l 216 753 l 216 124 q 178 -113 216 -10 q 55 -322 141 -216 l -19 -272 m 365 874 l 276 874 l 160 1068 l 44 874 l -46 874 l 110 1126 l 210 1126 l 365 874 z "},"k":{"ha":721,"x_min":105,"x_max":735,"o":"m 610 0 l 344 340 l 216 340 l 216 0 l 105 0 l 105 1122 l 216 1122 l 216 433 l 343 433 l 589 753 l 713 753 l 435 388 l 735 0 l 610 0 z "},"ķ":{"ha":721,"x_min":105,"x_max":735,"o":"m 610 0 l 344 340 l 216 340 l 216 0 l 105 0 l 105 1122 l 216 1122 l 216 433 l 343 433 l 589 753 l 713 753 l 435 388 l 735 0 l 610 0 m 385 -113 q 441 -133 422 -113 q 460 -190 460 -152 q 449 -256 460 -219 q 420 -324 438 -292 l 351 -324 q 380 -226 374 -269 q 331 -210 348 -225 q 314 -169 314 -194 q 332 -128 314 -143 q 385 -113 351 -113 z "},"ĸ":{"ha":721,"x_min":105,"x_max":735,"o":"m 610 0 l 344 340 l 216 340 l 216 0 l 105 0 l 105 753 l 216 753 l 216 433 l 343 433 l 589 753 l 713 753 l 435 388 l 735 0 l 610 0 z "},"l":{"ha":321,"x_min":105,"x_max":216,"o":"m 105 0 l 105 1122 l 216 1122 l 216 0 l 105 0 z "},"ĺ":{"ha":321,"x_min":105,"x_max":353,"o":"m 105 0 l 105 1122 l 216 1122 l 216 0 l 105 0 m 109 1183 l 233 1381 l 353 1381 l 211 1183 l 109 1183 z "},"ľ":{"ha":321,"x_min":105,"x_max":377,"o":"m 105 0 l 105 1122 l 216 1122 l 216 0 l 105 0 m 279 819 q 294 1122 294 942 l 377 1122 q 368 966 377 1046 q 343 819 360 887 l 279 819 z "},"ļ":{"ha":321,"x_min":88,"x_max":233,"o":"m 105 0 l 105 1122 l 216 1122 l 216 0 l 105 0 m 158 -113 q 214 -133 195 -113 q 233 -190 233 -152 q 223 -256 233 -219 q 194 -324 212 -292 l 124 -324 q 153 -226 148 -269 q 105 -210 122 -225 q 88 -169 88 -194 q 106 -128 88 -143 q 158 -113 124 -113 z "},"ŀ":{"ha":400,"x_min":105,"x_max":432,"o":"m 105 0 l 105 1122 l 216 1122 l 216 0 l 105 0 m 355 481 q 297 499 317 481 q 277 551 277 517 q 297 602 277 583 q 355 622 317 622 q 412 602 392 622 q 432 551 432 583 q 412 499 432 517 q 355 481 392 481 z "},"ḷ":{"ha":321,"x_min":89,"x_max":231,"o":"m 105 0 l 105 1122 l 216 1122 l 216 0 l 105 0 m 160 -250 q 108 -232 128 -250 q 89 -182 89 -213 q 108 -132 89 -151 q 160 -113 128 -113 q 212 -132 193 -113 q 231 -182 231 -151 q 212 -232 231 -213 q 160 -250 193 -250 z "},"ǉ":{"ha":642,"x_min":105,"x_max":558,"o":"m 105 0 l 105 1122 l 216 1122 l 216 0 l 105 0 m 301 -272 q 397 -92 368 -182 q 426 118 426 -2 l 426 753 l 537 753 l 537 124 q 499 -113 537 -10 q 376 -322 462 -216 l 301 -272 m 481 920 q 423 939 443 920 q 403 990 403 957 q 423 1042 403 1024 q 481 1061 444 1061 q 538 1042 517 1061 q 558 990 558 1024 q 538 939 558 957 q 481 920 517 920 z "},"ḻ":{"ha":321,"x_min":-38,"x_max":358,"o":"m 105 0 l 105 1122 l 216 1122 l 216 0 l 105 0 m -38 -219 l -38 -144 l 358 -144 l 358 -219 l -38 -219 z "},"ł":{"ha":321,"x_min":-10,"x_max":332,"o":"m 332 571 l 216 488 l 216 0 l 105 0 l 105 409 l 31 356 l -10 421 l 105 502 l 105 1122 l 216 1122 l 216 581 l 292 635 l 332 571 z "},"m":{"ha":1176,"x_min":105,"x_max":1080,"o":"m 853 765 q 1019 702 958 765 q 1080 499 1080 638 l 1080 0 l 969 0 l 969 494 q 931 626 969 585 q 826 666 894 666 q 729 643 778 666 q 645 569 680 619 q 649 501 649 538 l 649 0 l 540 0 l 540 494 q 503 626 540 586 q 401 666 467 666 q 300 640 350 666 q 216 563 250 615 l 216 0 l 105 0 l 105 753 l 199 753 l 206 668 l 214 668 q 313 741 257 716 q 432 765 368 765 q 620 657 569 765 q 730 739 669 713 q 853 765 790 765 z "},"ṃ":{"ha":1176,"x_min":105,"x_max":1080,"o":"m 853 765 q 1019 702 958 765 q 1080 499 1080 638 l 1080 0 l 969 0 l 969 494 q 931 626 969 585 q 826 666 894 666 q 729 643 778 666 q 645 569 680 619 q 649 501 649 538 l 649 0 l 540 0 l 540 494 q 503 626 540 586 q 401 666 467 666 q 300 640 350 666 q 216 563 250 615 l 216 0 l 105 0 l 105 753 l 199 753 l 206 668 l 214 668 q 313 741 257 716 q 432 765 368 765 q 620 657 569 765 q 730 739 669 713 q 853 765 790 765 m 595 -250 q 543 -232 563 -250 q 524 -182 524 -213 q 543 -132 524 -151 q 595 -113 563 -113 q 647 -132 628 -113 q 666 -182 666 -151 q 647 -232 666 -213 q 595 -250 628 -250 z "},"n":{"ha":790,"x_min":105,"x_max":692,"o":"m 105 753 l 199 753 l 206 668 l 214 668 q 321 740 260 715 q 451 765 382 765 q 628 702 564 765 q 692 498 692 638 l 692 0 l 581 0 l 581 493 q 541 626 581 585 q 424 666 500 666 q 311 642 367 666 q 216 566 255 617 l 216 0 l 105 0 l 105 753 z "},"ń":{"ha":790,"x_min":105,"x_max":692,"o":"m 105 753 l 199 753 l 206 668 l 214 668 q 321 740 260 715 q 451 765 382 765 q 628 702 564 765 q 692 498 692 638 l 692 0 l 581 0 l 581 493 q 541 626 581 585 q 424 666 500 666 q 311 642 367 666 q 216 566 255 617 l 216 0 l 105 0 l 105 753 m 348 870 l 498 1122 l 618 1122 l 451 870 l 348 870 z "},"ŉ":{"ha":790,"x_min":9,"x_max":692,"o":"m 105 753 l 199 753 l 206 668 l 214 668 q 321 740 260 715 q 451 765 382 765 q 628 702 564 765 q 692 498 692 638 l 692 0 l 581 0 l 581 493 q 541 626 581 585 q 424 666 500 666 q 311 642 367 666 q 216 566 255 617 l 216 0 l 105 0 l 105 753 m 80 1128 q 154 1052 154 1128 q 144 985 154 1022 q 115 917 133 949 l 46 917 q 74 1015 69 969 q 26 1032 42 1017 q 9 1072 9 1047 q 27 1113 9 1098 q 80 1128 46 1128 z "},"ň":{"ha":790,"x_min":105,"x_max":692,"o":"m 105 753 l 199 753 l 206 668 l 214 668 q 321 740 260 715 q 451 765 382 765 q 628 702 564 765 q 692 498 692 638 l 692 0 l 581 0 l 581 493 q 541 626 581 585 q 424 666 500 666 q 311 642 367 666 q 216 566 255 617 l 216 0 l 105 0 l 105 753 m 517 1122 l 607 1122 l 449 870 l 349 870 l 192 1122 l 281 1122 l 399 927 l 517 1122 z "},"ņ":{"ha":790,"x_min":105,"x_max":692,"o":"m 105 753 l 199 753 l 206 668 l 214 668 q 321 740 260 715 q 451 765 382 765 q 628 702 564 765 q 692 498 692 638 l 692 0 l 581 0 l 581 493 q 541 626 581 585 q 424 666 500 666 q 311 642 367 666 q 216 566 255 617 l 216 0 l 105 0 l 105 753 m 397 -113 q 453 -133 434 -113 q 472 -190 472 -152 q 461 -256 472 -219 q 433 -324 451 -292 l 363 -324 q 392 -226 387 -269 q 343 -210 360 -225 q 326 -169 326 -194 q 345 -128 326 -143 q 397 -113 363 -113 z "},"ṅ":{"ha":790,"x_min":105,"x_max":692,"o":"m 105 753 l 199 753 l 206 668 l 214 668 q 321 740 260 715 q 451 765 382 765 q 628 702 564 765 q 692 498 692 638 l 692 0 l 581 0 l 581 493 q 541 626 581 585 q 424 666 500 666 q 311 642 367 666 q 216 566 255 617 l 216 0 l 105 0 l 105 753 m 399 917 q 342 935 362 917 q 322 987 322 953 q 342 1039 322 1020 q 399 1058 363 1058 q 456 1039 436 1058 q 476 987 476 1020 q 456 935 476 953 q 399 917 436 917 z "},"ṇ":{"ha":790,"x_min":105,"x_max":692,"o":"m 105 753 l 199 753 l 206 668 l 214 668 q 321 740 260 715 q 451 765 382 765 q 628 702 564 765 q 692 498 692 638 l 692 0 l 581 0 l 581 493 q 541 626 581 585 q 424 666 500 666 q 311 642 367 666 q 216 566 255 617 l 216 0 l 105 0 l 105 753 m 399 -250 q 347 -232 367 -250 q 328 -182 328 -213 q 347 -132 328 -151 q 399 -113 367 -113 q 451 -132 432 -113 q 470 -182 470 -151 q 451 -232 470 -213 q 399 -250 432 -250 z "},"ŋ":{"ha":790,"x_min":105,"x_max":692,"o":"m 458 -272 q 553 -92 524 -182 q 581 118 581 -2 l 581 494 q 540 627 581 587 q 424 667 499 667 q 310 642 366 667 q 216 567 254 617 l 216 0 l 105 0 l 105 753 l 199 753 l 206 668 l 214 668 q 321 741 260 717 q 451 765 382 765 q 628 702 564 765 q 692 499 692 638 l 692 103 q 652 -120 688 -22 q 531 -322 615 -219 l 458 -272 z "},"ǌ":{"ha":1111,"x_min":105,"x_max":1026,"o":"m 105 753 l 199 753 l 206 668 l 214 668 q 321 740 260 715 q 451 765 382 765 q 628 702 564 765 q 692 498 692 638 l 692 0 l 581 0 l 581 493 q 541 626 581 585 q 424 666 500 666 q 311 642 367 666 q 216 566 255 617 l 216 0 l 105 0 l 105 753 m 770 -272 q 866 -92 837 -182 q 894 118 894 -2 l 894 753 l 1006 753 l 1006 124 q 968 -113 1006 -10 q 844 -322 931 -216 l 770 -272 m 949 920 q 892 939 912 920 q 872 990 872 957 q 892 1042 872 1024 q 949 1061 913 1061 q 1006 1042 986 1061 q 1026 990 1026 1024 q 1006 939 1026 957 q 949 920 986 920 z "},"ṉ":{"ha":790,"x_min":105,"x_max":692,"o":"m 105 753 l 199 753 l 206 668 l 214 668 q 321 740 260 715 q 451 765 382 765 q 628 702 564 765 q 692 498 692 638 l 692 0 l 581 0 l 581 493 q 541 626 581 585 q 424 666 500 666 q 311 642 367 666 q 216 566 255 617 l 216 0 l 105 0 l 105 753 m 201 -219 l 201 -144 l 597 -144 l 597 -219 l 201 -219 z "},"ñ":{"ha":790,"x_min":105,"x_max":692,"o":"m 105 753 l 199 753 l 206 668 l 214 668 q 321 740 260 715 q 451 765 382 765 q 628 702 564 765 q 692 498 692 638 l 692 0 l 581 0 l 581 493 q 541 626 581 585 q 424 666 500 666 q 311 642 367 666 q 216 566 255 617 l 216 0 l 105 0 l 105 753 m 499 934 q 449 941 472 934 q 388 965 426 949 q 339 984 360 978 q 299 991 319 991 q 238 978 265 991 q 184 938 210 966 l 184 1019 q 300 1065 227 1065 q 350 1058 326 1065 q 410 1035 373 1051 q 459 1015 439 1022 q 500 1008 480 1008 q 561 1021 533 1008 q 615 1061 588 1034 l 615 981 q 499 934 570 934 z "},"o":{"ha":772,"x_min":65,"x_max":706,"o":"m 385 -13 q 150 82 234 -13 q 65 376 65 178 q 149 669 65 574 q 385 765 233 765 q 622 670 538 765 q 706 376 706 575 q 622 83 706 179 q 385 -13 537 -13 m 385 77 q 540 145 487 77 q 592 374 592 214 q 540 606 592 538 q 385 674 487 674 q 232 606 285 674 q 178 378 178 538 q 231 146 178 215 q 385 77 284 77 z "},"ó":{"ha":772,"x_min":65,"x_max":706,"o":"m 385 -13 q 150 82 234 -13 q 65 376 65 178 q 149 669 65 574 q 385 765 233 765 q 622 670 538 765 q 706 376 706 575 q 622 83 706 179 q 385 -13 537 -13 m 385 77 q 540 145 487 77 q 592 374 592 214 q 540 606 592 538 q 385 674 487 674 q 232 606 285 674 q 178 378 178 538 q 231 146 178 215 q 385 77 284 77 m 334 870 l 484 1122 l 604 1122 l 437 870 l 334 870 z "},"ŏ":{"ha":772,"x_min":65,"x_max":706,"o":"m 385 -13 q 150 82 234 -13 q 65 376 65 178 q 149 669 65 574 q 385 765 233 765 q 622 670 538 765 q 706 376 706 575 q 622 83 706 179 q 385 -13 537 -13 m 385 77 q 540 145 487 77 q 592 374 592 214 q 540 606 592 538 q 385 674 487 674 q 232 606 285 674 q 178 378 178 538 q 231 146 178 215 q 385 77 284 77 m 386 878 q 236 937 291 878 q 177 1104 182 996 l 252 1104 q 290 984 258 1024 q 386 944 323 944 q 482 984 449 944 q 519 1104 514 1024 l 593 1104 q 535 936 589 995 q 386 878 481 878 z "},"ô":{"ha":772,"x_min":65,"x_max":706,"o":"m 385 -13 q 150 82 234 -13 q 65 376 65 178 q 149 669 65 574 q 385 765 233 765 q 622 670 538 765 q 706 376 706 575 q 622 83 706 179 q 385 -13 537 -13 m 385 77 q 540 145 487 77 q 592 374 592 214 q 540 606 592 538 q 385 674 487 674 q 232 606 285 674 q 178 378 178 538 q 231 146 178 215 q 385 77 284 77 m 590 870 l 501 870 l 385 1065 l 269 870 l 180 870 l 335 1122 l 435 1122 l 590 870 z "},"ố":{"ha":772,"x_min":65,"x_max":760,"o":"m 385 -13 q 150 82 234 -13 q 65 376 65 178 q 149 669 65 574 q 385 765 233 765 q 622 670 538 765 q 706 376 706 575 q 622 83 706 179 q 385 -13 537 -13 m 385 77 q 540 145 487 77 q 592 374 592 214 q 540 606 592 538 q 385 674 487 674 q 232 606 285 674 q 178 378 178 538 q 231 146 178 215 q 385 77 284 77 m 656 1297 l 760 1297 l 617 1109 l 532 1109 l 656 1297 m 335 1122 l 435 1122 l 590 870 l 501 870 l 385 1065 l 269 870 l 180 870 l 335 1122 z "},"ộ":{"ha":772,"x_min":65,"x_max":706,"o":"m 385 -13 q 150 82 234 -13 q 65 376 65 178 q 149 669 65 574 q 385 765 233 765 q 622 670 538 765 q 706 376 706 575 q 622 83 706 179 q 385 -13 537 -13 m 385 77 q 540 145 487 77 q 592 374 592 214 q 540 606 592 538 q 385 674 487 674 q 232 606 285 674 q 178 378 178 538 q 231 146 178 215 q 385 77 284 77 m 385 -250 q 333 -232 353 -250 q 314 -182 314 -213 q 333 -132 314 -151 q 385 -113 353 -113 q 437 -132 418 -113 q 456 -182 456 -151 q 437 -232 456 -213 q 385 -250 418 -250 m 590 870 l 501 870 l 385 1065 l 269 870 l 180 870 l 335 1122 l 435 1122 l 590 870 z "},"ồ":{"ha":772,"x_min":65,"x_max":706,"o":"m 385 -13 q 150 82 234 -13 q 65 376 65 178 q 149 669 65 574 q 385 765 233 765 q 622 670 538 765 q 706 376 706 575 q 622 83 706 179 q 385 -13 537 -13 m 385 77 q 540 145 487 77 q 592 374 592 214 q 540 606 592 538 q 385 674 487 674 q 232 606 285 674 q 178 378 178 538 q 231 146 178 215 q 385 77 284 77 m 631 1109 l 547 1109 l 404 1297 l 508 1297 l 631 1109 m 335 1122 l 435 1122 l 590 870 l 501 870 l 385 1065 l 269 870 l 180 870 l 335 1122 z "},"ổ":{"ha":772,"x_min":65,"x_max":709,"o":"m 385 -13 q 150 82 234 -13 q 65 376 65 178 q 149 669 65 574 q 385 765 233 765 q 622 670 538 765 q 706 376 706 575 q 622 83 706 179 q 385 -13 537 -13 m 385 77 q 540 145 487 77 q 592 374 592 214 q 540 606 592 538 q 385 674 487 674 q 232 606 285 674 q 178 378 178 538 q 231 146 178 215 q 385 77 284 77 m 569 1302 q 674 1282 640 1302 q 709 1225 709 1261 q 693 1185 709 1199 q 648 1158 678 1172 q 609 1136 622 1146 q 594 1109 597 1126 l 528 1109 q 540 1143 529 1129 q 563 1164 550 1156 q 598 1182 576 1172 q 631 1199 620 1191 q 642 1219 642 1206 q 624 1243 642 1235 q 563 1251 606 1251 q 429 1230 494 1251 l 429 1280 q 493 1296 456 1290 q 569 1302 531 1302 m 335 1122 l 435 1122 l 590 870 l 501 870 l 385 1065 l 269 870 l 180 870 l 335 1122 z "},"ỗ":{"ha":772,"x_min":65,"x_max":706,"o":"m 385 -13 q 150 82 234 -13 q 65 376 65 178 q 149 669 65 574 q 385 765 233 765 q 622 670 538 765 q 706 376 706 575 q 622 83 706 179 q 385 -13 537 -13 m 385 77 q 540 145 487 77 q 592 374 592 214 q 540 606 592 538 q 385 674 487 674 q 232 606 285 674 q 178 378 178 538 q 231 146 178 215 q 385 77 284 77 m 489 1216 q 551 1227 524 1216 q 605 1263 578 1239 l 605 1192 q 488 1149 562 1149 q 435 1156 460 1149 q 375 1176 410 1163 q 322 1194 341 1189 q 282 1200 303 1200 q 220 1189 247 1200 q 166 1153 192 1177 l 166 1224 q 283 1267 209 1267 q 336 1260 311 1267 q 396 1240 360 1253 q 449 1222 430 1227 q 489 1216 468 1216 m 334 1108 l 437 1108 l 595 870 l 503 870 l 385 1057 l 267 870 l 175 870 l 334 1108 z "},"ȍ":{"ha":772,"x_min":65,"x_max":706,"o":"m 385 -13 q 150 82 234 -13 q 65 376 65 178 q 149 669 65 574 q 385 765 233 765 q 622 670 538 765 q 706 376 706 575 q 622 83 706 179 q 385 -13 537 -13 m 385 77 q 540 145 487 77 q 592 374 592 214 q 540 606 592 538 q 385 674 487 674 q 232 606 285 674 q 178 378 178 538 q 231 146 178 215 q 385 77 284 77 m 225 870 l 120 1122 l 216 1122 l 313 870 l 225 870 m 458 870 l 354 1122 l 449 1122 l 546 870 l 458 870 z "},"ö":{"ha":772,"x_min":65,"x_max":706,"o":"m 385 -13 q 150 82 234 -13 q 65 376 65 178 q 149 669 65 574 q 385 765 233 765 q 622 670 538 765 q 706 376 706 575 q 622 83 706 179 q 385 -13 537 -13 m 385 77 q 540 145 487 77 q 592 374 592 214 q 540 606 592 538 q 385 674 487 674 q 232 606 285 674 q 178 378 178 538 q 231 146 178 215 q 385 77 284 77 m 235 918 q 182 936 201 918 q 163 987 163 955 q 182 1038 163 1019 q 235 1056 201 1056 q 286 1038 267 1056 q 306 987 306 1019 q 286 936 306 955 q 235 918 267 918 m 536 918 q 484 936 503 918 q 465 987 465 955 q 484 1038 465 1019 q 536 1056 503 1056 q 589 1038 569 1056 q 608 987 608 1019 q 589 936 608 955 q 536 918 569 918 z "},"ȫ":{"ha":772,"x_min":65,"x_max":706,"o":"m 385 -13 q 150 82 234 -13 q 65 376 65 178 q 149 669 65 574 q 385 765 233 765 q 622 670 538 765 q 706 376 706 575 q 622 83 706 179 q 385 -13 537 -13 m 385 77 q 540 145 487 77 q 592 374 592 214 q 540 606 592 538 q 385 674 487 674 q 232 606 285 674 q 178 378 178 538 q 231 146 178 215 q 385 77 284 77 m 235 918 q 182 936 201 918 q 163 987 163 955 q 182 1038 163 1019 q 235 1056 201 1056 q 286 1038 267 1056 q 306 987 306 1019 q 286 936 306 955 q 235 918 267 918 m 536 918 q 484 936 503 918 q 465 987 465 955 q 484 1038 465 1019 q 536 1056 503 1056 q 589 1038 569 1056 q 608 987 608 1019 q 589 936 608 955 q 536 918 569 918 m 170 1161 l 170 1236 l 601 1236 l 601 1161 l 170 1161 z "},"ȱ":{"ha":772,"x_min":65,"x_max":706,"o":"m 385 -13 q 150 82 234 -13 q 65 376 65 178 q 149 669 65 574 q 385 765 233 765 q 622 670 538 765 q 706 376 706 575 q 622 83 706 179 q 385 -13 537 -13 m 385 77 q 540 145 487 77 q 592 374 592 214 q 540 606 592 538 q 385 674 487 674 q 232 606 285 674 q 178 378 178 538 q 231 146 178 215 q 385 77 284 77 m 385 917 q 328 935 348 917 q 308 987 308 953 q 328 1039 308 1020 q 385 1058 349 1058 q 442 1039 422 1058 q 463 987 463 1020 q 442 935 463 953 q 385 917 422 917 m 170 1162 l 170 1237 l 601 1237 l 601 1162 l 170 1162 z "},"ọ":{"ha":772,"x_min":65,"x_max":706,"o":"m 385 -13 q 150 82 234 -13 q 65 376 65 178 q 149 669 65 574 q 385 765 233 765 q 622 670 538 765 q 706 376 706 575 q 622 83 706 179 q 385 -13 537 -13 m 385 77 q 540 145 487 77 q 592 374 592 214 q 540 606 592 538 q 385 674 487 674 q 232 606 285 674 q 178 378 178 538 q 231 146 178 215 q 385 77 284 77 m 385 -250 q 333 -232 353 -250 q 314 -182 314 -213 q 333 -132 314 -151 q 385 -113 353 -113 q 437 -132 418 -113 q 456 -182 456 -151 q 437 -232 456 -213 q 385 -250 418 -250 z "},"ò":{"ha":772,"x_min":65,"x_max":706,"o":"m 385 -13 q 150 82 234 -13 q 65 376 65 178 q 149 669 65 574 q 385 765 233 765 q 622 670 538 765 q 706 376 706 575 q 622 83 706 179 q 385 -13 537 -13 m 385 77 q 540 145 487 77 q 592 374 592 214 q 540 606 592 538 q 385 674 487 674 q 232 606 285 674 q 178 378 178 538 q 231 146 178 215 q 385 77 284 77 m 334 870 l 167 1122 l 287 1122 l 437 870 l 334 870 z "},"ỏ":{"ha":772,"x_min":65,"x_max":706,"o":"m 385 -13 q 150 82 234 -13 q 65 376 65 178 q 149 669 65 574 q 385 765 233 765 q 622 670 538 765 q 706 376 706 575 q 622 83 706 179 q 385 -13 537 -13 m 385 77 q 540 145 487 77 q 592 374 592 214 q 540 606 592 538 q 385 674 487 674 q 232 606 285 674 q 178 378 178 538 q 231 146 178 215 q 385 77 284 77 m 351 870 q 362 916 352 897 q 384 947 372 935 q 418 974 397 959 q 450 1001 440 990 q 460 1028 460 1012 q 441 1063 460 1051 q 379 1074 422 1074 q 269 1058 321 1074 l 269 1113 q 323 1126 292 1121 q 383 1131 354 1131 q 529 1033 529 1131 q 521 995 529 1011 q 502 969 513 979 q 472 944 491 958 q 434 910 447 926 q 419 870 421 895 l 351 870 z "},"ơ":{"ha":772,"x_min":65,"x_max":726,"o":"m 594 697 q 706 376 706 602 q 622 83 706 179 q 385 -13 537 -13 q 150 82 234 -13 q 65 376 65 178 q 150 669 65 574 q 388 765 234 765 q 465 761 419 765 q 512 758 499 758 q 645 872 645 758 q 641 919 645 897 q 630 969 638 942 l 710 969 q 723 920 719 944 q 726 867 726 897 q 692 755 726 798 q 594 697 657 711 m 385 77 q 540 145 487 77 q 592 374 592 214 q 540 606 592 538 q 385 674 487 674 q 232 606 285 674 q 178 378 178 538 q 231 146 178 215 q 385 77 284 77 z "},"ớ":{"ha":772,"x_min":65,"x_max":726,"o":"m 597 1122 l 433 870 l 332 870 l 478 1122 l 597 1122 m 594 697 q 706 376 706 602 q 622 83 706 179 q 385 -13 537 -13 q 150 82 234 -13 q 65 376 65 178 q 150 669 65 574 q 388 765 234 765 q 465 761 419 765 q 512 758 499 758 q 645 872 645 758 q 641 919 645 897 q 630 969 638 942 l 710 969 q 723 920 719 944 q 726 867 726 897 q 692 755 726 798 q 594 697 657 711 m 385 77 q 540 145 487 77 q 592 374 592 214 q 540 606 592 538 q 385 674 487 674 q 232 606 285 674 q 178 378 178 538 q 231 146 178 215 q 385 77 284 77 z "},"ợ":{"ha":772,"x_min":65,"x_max":726,"o":"m 594 697 q 706 376 706 602 q 622 83 706 179 q 385 -13 537 -13 q 150 82 234 -13 q 65 376 65 178 q 150 669 65 574 q 388 765 234 765 q 465 761 419 765 q 512 758 499 758 q 645 872 645 758 q 641 919 645 897 q 630 969 638 942 l 710 969 q 723 920 719 944 q 726 867 726 897 q 692 755 726 798 q 594 697 657 711 m 385 77 q 540 145 487 77 q 592 374 592 214 q 540 606 592 538 q 385 674 487 674 q 232 606 285 674 q 178 378 178 538 q 231 146 178 215 q 385 77 284 77 m 384 -250 q 332 -232 351 -250 q 313 -182 313 -213 q 332 -132 313 -151 q 384 -113 351 -113 q 436 -132 417 -113 q 455 -182 455 -151 q 436 -232 455 -213 q 384 -250 417 -250 z "},"ờ":{"ha":772,"x_min":65,"x_max":726,"o":"m 594 697 q 706 376 706 602 q 622 83 706 179 q 385 -13 537 -13 q 150 82 234 -13 q 65 376 65 178 q 150 669 65 574 q 388 765 234 765 q 465 761 419 765 q 512 758 499 758 q 645 872 645 758 q 641 919 645 897 q 630 969 638 942 l 710 969 q 723 920 719 944 q 726 867 726 897 q 692 755 726 798 q 594 697 657 711 m 385 77 q 540 145 487 77 q 592 374 592 214 q 540 606 592 538 q 385 674 487 674 q 232 606 285 674 q 178 378 178 538 q 231 146 178 215 q 385 77 284 77 m 331 870 l 163 1122 l 283 1122 l 433 870 l 331 870 z "},"ở":{"ha":772,"x_min":65,"x_max":726,"o":"m 594 697 q 706 376 706 602 q 622 83 706 179 q 385 -13 537 -13 q 150 82 234 -13 q 65 376 65 178 q 150 669 65 574 q 388 765 234 765 q 465 761 419 765 q 512 758 499 758 q 645 872 645 758 q 641 919 645 897 q 630 969 638 942 l 710 969 q 723 920 719 944 q 726 867 726 897 q 692 755 726 798 q 594 697 657 711 m 385 77 q 540 145 487 77 q 592 374 592 214 q 540 606 592 538 q 385 674 487 674 q 232 606 285 674 q 178 378 178 538 q 231 146 178 215 q 385 77 284 77 m 348 870 q 358 916 349 897 q 381 947 368 935 q 415 974 394 959 q 447 1001 436 990 q 457 1028 457 1012 q 438 1063 457 1051 q 376 1074 418 1074 q 266 1058 317 1074 l 266 1113 q 320 1126 289 1121 q 380 1131 351 1131 q 526 1033 526 1131 q 518 995 526 1011 q 499 969 510 979 q 469 944 488 958 q 430 910 443 926 q 416 870 417 895 l 348 870 z "},"ỡ":{"ha":772,"x_min":65,"x_max":726,"o":"m 280 991 q 221 978 248 991 q 169 938 194 965 l 169 1019 q 281 1065 212 1065 q 331 1058 308 1065 q 389 1035 355 1050 q 437 1015 417 1022 q 476 1008 456 1008 q 535 1021 508 1008 q 588 1061 562 1034 l 588 981 q 475 934 544 934 q 425 942 449 934 q 367 965 401 949 q 319 984 339 978 q 280 991 300 991 m 594 697 q 706 376 706 602 q 622 83 706 179 q 385 -13 537 -13 q 150 82 234 -13 q 65 376 65 178 q 150 669 65 574 q 388 765 234 765 q 465 761 419 765 q 512 758 499 758 q 645 872 645 758 q 641 919 645 897 q 630 969 638 942 l 710 969 q 723 920 719 944 q 726 867 726 897 q 692 755 726 798 q 594 697 657 711 m 385 77 q 540 145 487 77 q 592 374 592 214 q 540 606 592 538 q 385 674 487 674 q 232 606 285 674 q 178 378 178 538 q 231 146 178 215 q 385 77 284 77 z "},"ő":{"ha":772,"x_min":65,"x_max":706,"o":"m 385 -13 q 150 82 234 -13 q 65 376 65 178 q 149 669 65 574 q 385 765 233 765 q 622 670 538 765 q 706 376 706 575 q 622 83 706 179 q 385 -13 537 -13 m 385 77 q 540 145 487 77 q 592 374 592 214 q 540 606 592 538 q 385 674 487 674 q 232 606 285 674 q 178 378 178 538 q 231 146 178 215 q 385 77 284 77 m 226 870 l 324 1122 l 417 1122 l 313 870 l 226 870 m 458 870 l 556 1122 l 649 1122 l 544 870 l 458 870 z "},"ȏ":{"ha":772,"x_min":65,"x_max":706,"o":"m 385 -13 q 150 82 234 -13 q 65 376 65 178 q 149 669 65 574 q 385 765 233 765 q 622 670 538 765 q 706 376 706 575 q 622 83 706 179 q 385 -13 537 -13 m 385 77 q 540 145 487 77 q 592 374 592 214 q 540 606 592 538 q 385 674 487 674 q 232 606 285 674 q 178 378 178 538 q 231 146 178 215 q 385 77 284 77 m 177 890 q 235 1058 182 999 q 384 1116 288 1116 q 534 1057 480 1116 q 593 890 589 998 l 519 890 q 480 1009 513 969 q 384 1049 447 1049 q 289 1010 321 1049 q 252 890 257 970 l 177 890 z "},"ō":{"ha":772,"x_min":65,"x_max":706,"o":"m 385 -13 q 150 82 234 -13 q 65 376 65 178 q 149 669 65 574 q 385 765 233 765 q 622 670 538 765 q 706 376 706 575 q 622 83 706 179 q 385 -13 537 -13 m 385 77 q 540 145 487 77 q 592 374 592 214 q 540 606 592 538 q 385 674 487 674 q 232 606 285 674 q 178 378 178 538 q 231 146 178 215 q 385 77 284 77 m 170 950 l 170 1025 l 601 1025 l 601 950 l 170 950 z "},"ṓ":{"ha":772,"x_min":65,"x_max":706,"o":"m 385 -13 q 150 82 234 -13 q 65 376 65 178 q 149 669 65 574 q 385 765 233 765 q 622 670 538 765 q 706 376 706 575 q 622 83 706 179 q 385 -13 537 -13 m 385 77 q 540 145 487 77 q 592 374 592 214 q 540 606 592 538 q 385 674 487 674 q 232 606 285 674 q 178 378 178 538 q 231 146 178 215 q 385 77 284 77 m 170 950 l 170 1025 l 601 1025 l 601 950 l 170 950 m 334 1124 l 458 1321 l 578 1321 l 436 1124 l 334 1124 z "},"ṑ":{"ha":772,"x_min":65,"x_max":706,"o":"m 385 -13 q 150 82 234 -13 q 65 376 65 178 q 149 669 65 574 q 385 765 233 765 q 622 670 538 765 q 706 376 706 575 q 622 83 706 179 q 385 -13 537 -13 m 385 77 q 540 145 487 77 q 592 374 592 214 q 540 606 592 538 q 385 674 487 674 q 232 606 285 674 q 178 378 178 538 q 231 146 178 215 q 385 77 284 77 m 170 950 l 170 1025 l 601 1025 l 601 950 l 170 950 m 335 1124 l 192 1321 l 313 1321 l 436 1124 l 335 1124 z "},"ǫ":{"ha":772,"x_min":65,"x_max":706,"o":"m 499 3 q 377 -66 413 -25 q 341 -153 341 -107 q 365 -212 341 -192 q 429 -233 388 -233 q 520 -211 475 -233 l 530 -263 q 420 -289 480 -289 q 310 -255 350 -289 q 270 -161 270 -222 q 357 -12 270 -69 q 142 92 218 -3 q 65 376 65 188 q 149 669 65 574 q 385 765 233 765 q 622 670 538 765 q 706 376 706 575 q 499 3 706 71 m 178 378 q 231 146 178 215 q 385 77 284 77 q 540 145 487 77 q 592 374 592 214 q 540 606 592 538 q 385 674 487 674 q 232 606 285 674 q 178 378 178 538 z "},"ø":{"ha":772,"x_min":65,"x_max":706,"o":"m 630 660 q 706 376 706 563 q 622 83 706 179 q 385 -13 537 -13 q 190 44 266 -13 l 143 -22 l 88 19 l 141 94 q 65 376 65 192 q 149 669 65 574 q 385 765 233 765 q 580 710 503 765 l 627 775 l 683 735 l 630 660 m 385 676 q 230 607 283 676 q 176 378 176 539 q 208 183 176 253 l 525 626 q 385 676 476 676 m 385 76 q 542 145 488 76 q 595 374 595 213 q 562 572 595 499 l 245 127 q 385 76 295 76 z "},"ǿ":{"ha":772,"x_min":65,"x_max":706,"o":"m 630 660 q 706 376 706 563 q 622 83 706 179 q 385 -13 537 -13 q 190 44 266 -13 l 143 -22 l 88 19 l 141 94 q 65 376 65 192 q 149 669 65 574 q 385 765 233 765 q 580 710 503 765 l 627 775 l 683 735 l 630 660 m 385 676 q 230 607 283 676 q 176 378 176 539 q 208 183 176 253 l 525 626 q 385 676 476 676 m 385 76 q 542 145 488 76 q 595 374 595 213 q 562 572 595 499 l 245 127 q 385 76 295 76 m 331 870 l 481 1122 l 601 1122 l 433 870 l 331 870 z "},"õ":{"ha":772,"x_min":65,"x_max":706,"o":"m 385 -13 q 150 82 234 -13 q 65 376 65 178 q 149 669 65 574 q 385 765 233 765 q 622 670 538 765 q 706 376 706 575 q 622 83 706 179 q 385 -13 537 -13 m 385 77 q 540 145 487 77 q 592 374 592 214 q 540 606 592 538 q 385 674 487 674 q 232 606 285 674 q 178 378 178 538 q 231 146 178 215 q 385 77 284 77 m 485 934 q 435 941 458 934 q 374 965 412 949 q 325 984 346 978 q 285 991 305 991 q 224 978 251 991 q 170 938 197 966 l 170 1019 q 286 1065 213 1065 q 336 1058 313 1065 q 397 1035 359 1051 q 445 1015 425 1022 q 486 1008 466 1008 q 547 1021 519 1008 q 601 1061 574 1034 l 601 981 q 485 934 556 934 z "},"ṍ":{"ha":772,"x_min":65,"x_max":706,"o":"m 385 -13 q 150 82 234 -13 q 65 376 65 178 q 149 669 65 574 q 385 765 233 765 q 622 670 538 765 q 706 376 706 575 q 622 83 706 179 q 385 -13 537 -13 m 385 77 q 540 145 487 77 q 592 374 592 214 q 540 606 592 538 q 385 674 487 674 q 232 606 285 674 q 178 378 178 538 q 231 146 178 215 q 385 77 284 77 m 485 934 q 435 941 458 934 q 374 965 412 949 q 325 984 346 978 q 285 991 305 991 q 224 978 251 991 q 170 938 197 966 l 170 1019 q 286 1065 213 1065 q 336 1058 313 1065 q 397 1035 359 1051 q 445 1015 425 1022 q 486 1008 466 1008 q 547 1021 519 1008 q 601 1061 574 1034 l 601 981 q 485 934 556 934 m 358 1185 l 482 1383 l 602 1383 l 460 1185 l 358 1185 z "},"ṏ":{"ha":772,"x_min":65,"x_max":706,"o":"m 385 -13 q 150 82 234 -13 q 65 376 65 178 q 149 669 65 574 q 385 765 233 765 q 622 670 538 765 q 706 376 706 575 q 622 83 706 179 q 385 -13 537 -13 m 385 77 q 540 145 487 77 q 592 374 592 214 q 540 606 592 538 q 385 674 487 674 q 232 606 285 674 q 178 378 178 538 q 231 146 178 215 q 385 77 284 77 m 485 934 q 435 941 458 934 q 374 965 412 949 q 325 984 346 978 q 285 991 305 991 q 224 978 251 991 q 170 938 197 966 l 170 1019 q 286 1065 213 1065 q 336 1058 313 1065 q 397 1035 359 1051 q 445 1015 425 1022 q 486 1008 466 1008 q 547 1021 519 1008 q 601 1061 574 1034 l 601 981 q 485 934 556 934 m 235 1129 q 182 1148 201 1129 q 163 1198 163 1166 q 182 1249 163 1230 q 235 1267 201 1267 q 286 1249 267 1267 q 306 1198 306 1230 q 286 1148 306 1166 q 235 1129 267 1129 m 536 1129 q 484 1148 503 1129 q 465 1198 465 1166 q 484 1249 465 1230 q 536 1267 503 1267 q 589 1249 569 1267 q 608 1198 608 1230 q 589 1148 608 1166 q 536 1129 569 1129 z "},"ȭ":{"ha":772,"x_min":65,"x_max":706,"o":"m 385 -13 q 150 82 234 -13 q 65 376 65 178 q 149 669 65 574 q 385 765 233 765 q 622 670 538 765 q 706 376 706 575 q 622 83 706 179 q 385 -13 537 -13 m 385 77 q 540 145 487 77 q 592 374 592 214 q 540 606 592 538 q 385 674 487 674 q 232 606 285 674 q 178 378 178 538 q 231 146 178 215 q 385 77 284 77 m 485 934 q 435 941 458 934 q 374 965 412 949 q 325 984 346 978 q 285 991 305 991 q 224 978 251 991 q 170 938 197 966 l 170 1019 q 286 1065 213 1065 q 336 1058 313 1065 q 397 1035 359 1051 q 445 1015 425 1022 q 486 1008 466 1008 q 547 1021 519 1008 q 601 1061 574 1034 l 601 981 q 485 934 556 934 m 170 1161 l 170 1236 l 601 1236 l 601 1161 l 170 1161 z "},"œ":{"ha":1233,"x_min":65,"x_max":1179,"o":"m 1179 340 l 702 340 q 733 187 705 244 q 816 104 762 130 q 956 78 871 78 q 1142 108 1038 78 l 1142 17 q 943 -13 1040 -13 q 755 25 830 -13 q 642 144 681 63 q 539 26 605 65 q 380 -13 472 -13 q 149 83 233 -13 q 65 376 65 178 q 148 669 65 574 q 380 765 231 765 q 542 725 475 765 q 645 602 609 684 q 742 724 678 683 q 894 765 806 765 q 1105 669 1031 765 q 1179 376 1179 572 l 1179 340 m 890 685 q 752 622 800 685 q 702 416 705 559 l 1072 416 q 1023 623 1069 560 q 890 685 977 685 m 383 77 q 536 145 483 77 q 589 374 589 214 q 536 606 589 537 q 383 674 483 674 q 231 606 284 674 q 178 378 178 538 q 231 146 178 215 q 383 77 283 77 z "},"p":{"ha":784,"x_min":105,"x_max":719,"o":"m 105 753 l 200 753 l 208 670 l 215 670 q 303 740 250 714 q 422 765 357 765 q 574 728 508 765 q 680 607 641 690 q 719 391 719 523 q 623 88 719 188 q 338 -13 527 -13 q 216 -3 288 -13 l 216 -306 l 105 -306 l 105 753 m 340 78 q 540 150 474 78 q 606 381 606 222 q 551 605 606 540 q 397 669 496 669 q 296 646 344 669 q 216 576 248 623 l 216 91 q 276 82 242 85 q 340 78 309 78 z "},"þ":{"ha":784,"x_min":105,"x_max":719,"o":"m 105 1122 l 216 1122 l 216 674 l 223 674 q 312 741 259 717 q 431 765 365 765 q 578 727 514 765 q 681 606 643 690 q 719 391 719 522 q 623 88 719 188 q 338 -13 527 -13 q 216 -3 288 -13 l 216 -306 l 105 -306 l 105 1122 m 340 78 q 540 150 474 78 q 606 381 606 222 q 551 604 606 539 q 398 669 496 669 q 296 647 344 669 q 216 578 248 624 l 216 91 q 276 82 242 85 q 340 78 309 78 z "},"q":{"ha":784,"x_min":65,"x_max":679,"o":"m 568 76 l 561 76 q 472 11 526 35 q 353 -13 419 -13 q 206 25 270 -13 q 103 146 141 63 q 65 361 65 230 q 447 765 65 765 q 567 756 506 765 q 679 731 628 747 l 679 -306 l 568 -306 l 568 76 m 386 83 q 488 105 439 83 q 568 169 536 126 l 568 659 q 438 674 506 674 q 243 602 308 674 q 178 371 178 529 q 233 148 178 213 q 386 83 288 83 z "},"r":{"ha":503,"x_min":105,"x_max":494,"o":"m 105 753 l 198 753 l 207 653 l 214 653 q 310 733 251 705 q 434 761 369 761 q 494 756 465 761 l 494 652 q 429 657 465 657 q 311 630 370 657 q 216 551 251 602 l 216 0 l 105 0 l 105 753 z "},"ŕ":{"ha":503,"x_min":105,"x_max":513,"o":"m 105 753 l 198 753 l 207 653 l 214 653 q 310 733 251 705 q 434 761 369 761 q 494 756 465 761 l 494 652 q 429 657 465 657 q 311 630 370 657 q 216 551 251 602 l 216 0 l 105 0 l 105 753 m 242 870 l 392 1122 l 513 1122 l 345 870 l 242 870 z "},"ř":{"ha":503,"x_min":86,"x_max":501,"o":"m 105 753 l 198 753 l 207 653 l 214 653 q 310 733 251 705 q 434 761 369 761 q 494 756 465 761 l 494 652 q 429 657 465 657 q 311 630 370 657 q 216 551 251 602 l 216 0 l 105 0 l 105 753 m 412 1122 l 501 1122 l 344 870 l 244 870 l 86 1122 l 176 1122 l 294 927 l 412 1122 z "},"ŗ":{"ha":503,"x_min":88,"x_max":494,"o":"m 105 753 l 198 753 l 207 653 l 214 653 q 310 733 251 705 q 434 761 369 761 q 494 756 465 761 l 494 652 q 429 657 465 657 q 311 630 370 657 q 216 551 251 602 l 216 0 l 105 0 l 105 753 m 158 -113 q 214 -133 195 -113 q 233 -190 233 -152 q 223 -256 233 -219 q 194 -324 212 -292 l 124 -324 q 153 -226 148 -269 q 105 -210 122 -225 q 88 -169 88 -194 q 106 -128 88 -143 q 158 -113 124 -113 z "},"ȑ":{"ha":503,"x_min":28,"x_max":494,"o":"m 105 753 l 198 753 l 207 653 l 214 653 q 310 733 251 705 q 434 761 369 761 q 494 756 465 761 l 494 652 q 429 657 465 657 q 311 630 370 657 q 216 551 251 602 l 216 0 l 105 0 l 105 753 m 133 870 l 28 1122 l 124 1122 l 221 870 l 133 870 m 367 870 l 263 1122 l 358 1122 l 454 870 l 367 870 z "},"ṛ":{"ha":503,"x_min":89,"x_max":494,"o":"m 105 753 l 198 753 l 207 653 l 214 653 q 310 733 251 705 q 434 761 369 761 q 494 756 465 761 l 494 652 q 429 657 465 657 q 311 630 370 657 q 216 551 251 602 l 216 0 l 105 0 l 105 753 m 160 -250 q 108 -232 128 -250 q 89 -182 89 -213 q 108 -132 89 -151 q 160 -113 128 -113 q 212 -132 193 -113 q 231 -182 231 -151 q 212 -232 231 -213 q 160 -250 193 -250 z "},"ȓ":{"ha":503,"x_min":85,"x_max":501,"o":"m 105 753 l 198 753 l 207 653 l 214 653 q 310 733 251 705 q 434 761 369 761 q 494 756 465 761 l 494 652 q 429 657 465 657 q 311 630 370 657 q 216 551 251 602 l 216 0 l 105 0 l 105 753 m 85 890 q 143 1058 90 999 q 292 1116 197 1116 q 443 1057 388 1116 q 501 890 497 998 l 427 890 q 389 1009 422 969 q 292 1049 356 1049 q 197 1010 229 1049 q 160 890 165 970 l 85 890 z "},"ṟ":{"ha":503,"x_min":-38,"x_max":494,"o":"m 105 753 l 198 753 l 207 653 l 214 653 q 310 733 251 705 q 434 761 369 761 q 494 756 465 761 l 494 652 q 429 657 465 657 q 311 630 370 657 q 216 551 251 602 l 216 0 l 105 0 l 105 753 m -38 -219 l -38 -144 l 358 -144 l 358 -219 l -38 -219 z "},"s":{"ha":625,"x_min":62,"x_max":578,"o":"m 285 -13 q 76 17 170 -13 l 76 107 q 285 76 179 76 q 471 202 471 76 q 444 281 471 253 q 355 322 417 308 l 253 342 q 107 414 152 364 q 62 547 62 464 q 94 661 62 612 q 194 738 127 710 q 360 765 261 765 q 538 743 451 765 l 538 653 q 450 671 492 665 q 363 676 408 676 q 214 642 260 676 q 168 550 168 608 q 194 475 168 503 q 281 433 219 447 l 383 413 q 532 342 485 391 q 578 208 578 292 q 502 45 578 103 q 285 -13 426 -13 z "},"ś":{"ha":625,"x_min":62,"x_max":578,"o":"m 285 -13 q 76 17 170 -13 l 76 107 q 285 76 179 76 q 471 202 471 76 q 444 281 471 253 q 355 322 417 308 l 253 342 q 107 414 152 364 q 62 547 62 464 q 94 661 62 612 q 194 738 127 710 q 360 765 261 765 q 538 743 451 765 l 538 653 q 450 671 492 665 q 363 676 408 676 q 214 642 260 676 q 168 550 168 608 q 194 475 168 503 q 281 433 219 447 l 383 413 q 532 342 485 391 q 578 208 578 292 q 502 45 578 103 q 285 -13 426 -13 m 265 870 l 415 1122 l 535 1122 l 367 870 l 265 870 z "},"ṥ":{"ha":625,"x_min":62,"x_max":578,"o":"m 285 -13 q 76 17 170 -13 l 76 107 q 285 76 179 76 q 471 202 471 76 q 444 281 471 253 q 355 322 417 308 l 253 342 q 107 414 152 364 q 62 547 62 464 q 94 661 62 612 q 194 738 127 710 q 360 765 261 765 q 538 743 451 765 l 538 653 q 450 671 492 665 q 363 676 408 676 q 214 642 260 676 q 168 550 168 608 q 194 475 168 503 q 281 433 219 447 l 383 413 q 532 342 485 391 q 578 208 578 292 q 502 45 578 103 q 285 -13 426 -13 m 256 1094 q 206 1110 224 1094 q 188 1152 188 1125 q 206 1195 188 1179 q 256 1211 224 1211 q 306 1195 288 1211 q 324 1152 324 1179 q 306 1110 324 1125 q 256 1094 288 1094 m 265 870 l 415 1122 l 535 1122 l 367 870 l 265 870 z "},"š":{"ha":625,"x_min":62,"x_max":578,"o":"m 285 -13 q 76 17 170 -13 l 76 107 q 285 76 179 76 q 471 202 471 76 q 444 281 471 253 q 355 322 417 308 l 253 342 q 107 414 152 364 q 62 547 62 464 q 94 661 62 612 q 194 738 127 710 q 360 765 261 765 q 538 743 451 765 l 538 653 q 450 671 492 665 q 363 676 408 676 q 214 642 260 676 q 168 550 168 608 q 194 475 168 503 q 281 433 219 447 l 383 413 q 532 342 485 391 q 578 208 578 292 q 502 45 578 103 q 285 -13 426 -13 m 434 1122 l 524 1122 l 366 870 l 266 870 l 108 1122 l 198 1122 l 316 927 l 434 1122 z "},"ṧ":{"ha":625,"x_min":62,"x_max":578,"o":"m 285 -13 q 76 17 170 -13 l 76 107 q 285 76 179 76 q 471 202 471 76 q 444 281 471 253 q 355 322 417 308 l 253 342 q 107 414 152 364 q 62 547 62 464 q 94 661 62 612 q 194 738 127 710 q 360 765 261 765 q 538 743 451 765 l 538 653 q 450 671 492 665 q 363 676 408 676 q 214 642 260 676 q 168 550 168 608 q 194 475 168 503 q 281 433 219 447 l 383 413 q 532 342 485 391 q 578 208 578 292 q 502 45 578 103 q 285 -13 426 -13 m 316 1128 q 266 1144 284 1128 q 248 1186 248 1159 q 266 1229 248 1213 q 316 1245 284 1245 q 366 1229 348 1245 q 384 1186 384 1213 q 366 1144 384 1159 q 316 1128 348 1128 m 434 1122 l 524 1122 l 366 870 l 266 870 l 108 1122 l 198 1122 l 316 927 l 434 1122 z "},"ş":{"ha":625,"x_min":62,"x_max":578,"o":"m 578 208 q 520 60 578 117 q 351 -10 462 3 l 351 -72 q 432 -106 404 -78 q 459 -180 459 -134 q 422 -260 459 -231 q 317 -289 385 -289 q 254 -282 285 -289 q 199 -265 222 -276 l 199 -208 q 315 -234 251 -234 q 373 -220 354 -234 q 392 -176 392 -206 q 313 -117 392 -117 l 288 -117 l 288 -13 l 285 -13 q 76 17 170 -13 l 76 107 q 285 76 179 76 q 471 202 471 76 q 444 281 471 253 q 355 322 417 308 l 253 342 q 107 414 152 364 q 62 547 62 464 q 94 661 62 612 q 194 738 127 710 q 360 765 261 765 q 538 743 451 765 l 538 653 q 450 671 492 665 q 363 676 408 676 q 214 642 260 676 q 168 550 168 608 q 194 475 168 503 q 281 433 219 447 l 383 413 q 532 342 485 391 q 578 208 578 292 z "},"ŝ":{"ha":625,"x_min":62,"x_max":578,"o":"m 285 -13 q 76 17 170 -13 l 76 107 q 285 76 179 76 q 471 202 471 76 q 444 281 471 253 q 355 322 417 308 l 253 342 q 107 414 152 364 q 62 547 62 464 q 94 661 62 612 q 194 738 127 710 q 360 765 261 765 q 538 743 451 765 l 538 653 q 450 671 492 665 q 363 676 408 676 q 214 642 260 676 q 168 550 168 608 q 194 475 168 503 q 281 433 219 447 l 383 413 q 532 342 485 391 q 578 208 578 292 q 502 45 578 103 q 285 -13 426 -13 m 521 870 l 432 870 l 316 1065 l 200 870 l 110 870 l 266 1122 l 366 1122 l 521 870 z "},"ș":{"ha":625,"x_min":62,"x_max":578,"o":"m 285 -13 q 76 17 170 -13 l 76 107 q 285 76 179 76 q 471 202 471 76 q 444 281 471 253 q 355 322 417 308 l 253 342 q 107 414 152 364 q 62 547 62 464 q 94 661 62 612 q 194 738 127 710 q 360 765 261 765 q 538 743 451 765 l 538 653 q 450 671 492 665 q 363 676 408 676 q 214 642 260 676 q 168 550 168 608 q 194 475 168 503 q 281 433 219 447 l 383 413 q 532 342 485 391 q 578 208 578 292 q 502 45 578 103 q 285 -13 426 -13 m 314 -113 q 370 -133 351 -113 q 389 -190 389 -152 q 378 -256 389 -219 q 349 -324 367 -292 l 280 -324 q 309 -226 303 -269 q 260 -210 277 -225 q 243 -169 243 -194 q 261 -128 243 -143 q 314 -113 280 -113 z "},"ṡ":{"ha":625,"x_min":62,"x_max":578,"o":"m 285 -13 q 76 17 170 -13 l 76 107 q 285 76 179 76 q 471 202 471 76 q 444 281 471 253 q 355 322 417 308 l 253 342 q 107 414 152 364 q 62 547 62 464 q 94 661 62 612 q 194 738 127 710 q 360 765 261 765 q 538 743 451 765 l 538 653 q 450 671 492 665 q 363 676 408 676 q 214 642 260 676 q 168 550 168 608 q 194 475 168 503 q 281 433 219 447 l 383 413 q 532 342 485 391 q 578 208 578 292 q 502 45 578 103 q 285 -13 426 -13 m 316 917 q 258 935 278 917 q 238 987 238 953 q 259 1039 238 1020 q 316 1058 279 1058 q 373 1039 353 1058 q 393 987 393 1020 q 373 935 393 953 q 316 917 353 917 z "},"ṣ":{"ha":625,"x_min":62,"x_max":578,"o":"m 285 -13 q 76 17 170 -13 l 76 107 q 285 76 179 76 q 471 202 471 76 q 444 281 471 253 q 355 322 417 308 l 253 342 q 107 414 152 364 q 62 547 62 464 q 94 661 62 612 q 194 738 127 710 q 360 765 261 765 q 538 743 451 765 l 538 653 q 450 671 492 665 q 363 676 408 676 q 214 642 260 676 q 168 550 168 608 q 194 475 168 503 q 281 433 219 447 l 383 413 q 532 342 485 391 q 578 208 578 292 q 502 45 578 103 q 285 -13 426 -13 m 316 -250 q 264 -232 283 -250 q 244 -182 244 -213 q 264 -132 244 -151 q 316 -113 283 -113 q 368 -132 349 -113 q 387 -182 387 -151 q 368 -232 387 -213 q 316 -250 349 -250 z "},"ṩ":{"ha":625,"x_min":62,"x_max":578,"o":"m 285 -13 q 76 17 170 -13 l 76 107 q 285 76 179 76 q 471 202 471 76 q 444 281 471 253 q 355 322 417 308 l 253 342 q 107 414 152 364 q 62 547 62 464 q 94 661 62 612 q 194 738 127 710 q 360 765 261 765 q 538 743 451 765 l 538 653 q 450 671 492 665 q 363 676 408 676 q 214 642 260 676 q 168 550 168 608 q 194 475 168 503 q 281 433 219 447 l 383 413 q 532 342 485 391 q 578 208 578 292 q 502 45 578 103 q 285 -13 426 -13 m 316 -250 q 264 -232 283 -250 q 244 -182 244 -213 q 264 -132 244 -151 q 316 -113 283 -113 q 368 -132 349 -113 q 387 -182 387 -151 q 368 -232 387 -213 q 316 -250 349 -250 m 316 917 q 258 935 278 917 q 238 987 238 953 q 259 1039 238 1020 q 316 1058 279 1058 q 373 1039 353 1058 q 393 987 393 1020 q 373 935 393 953 q 316 917 353 917 z "},"ß":{"ha":965,"x_min":13,"x_max":917,"o":"m 722 413 q 872 342 826 390 q 917 208 917 293 q 841 45 917 103 q 620 -13 765 -13 q 415 15 508 -13 l 415 105 q 620 76 517 76 q 765 108 719 76 q 810 202 810 140 q 784 281 810 253 q 694 322 758 308 l 592 342 q 447 414 492 363 q 401 546 401 464 q 434 659 401 611 q 532 735 467 708 q 695 762 598 762 q 738 760 707 762 q 742 822 742 792 q 681 997 742 942 q 514 1051 619 1051 q 328 983 391 1051 q 266 769 266 916 l 266 0 l 155 0 l 155 660 l 13 660 l 13 753 l 155 753 l 155 772 q 247 1043 155 951 q 508 1136 340 1136 q 675 1102 603 1136 q 788 997 747 1069 q 828 815 828 925 q 823 739 828 779 q 809 667 817 699 q 706 676 758 676 q 555 642 601 676 q 508 550 508 608 q 534 475 508 503 q 620 433 560 447 l 722 413 z "}}}
